<?xml version="1.0" standalone="no"?>
<!DOCTYPE svg PUBLIC "-//W3C//DTD SVG 20010904//EN"
 "http://www.w3.org/TR/2001/REC-SVG-20010904/DTD/svg10.dtd">
<svg version="1.0" xmlns="http://www.w3.org/2000/svg"
 width="73.000000pt" height="42.000000pt" viewBox="0 0 73.000000 42.000000"
 preserveAspectRatio="xMidYMid meet">

<g transform="translate(0.000000,42.000000) scale(0.100000,-0.100000)"
fill="#000000" stroke="none">
<path d="M235 340 l-69 -70 72 0 72 0 0 70 c0 39 -1 70 -3 70 -1 0 -34 -31
-72 -70z"/>
<path d="M647 341 c-66 -68 -67 -70 -67 -125 0 -31 3 -56 8 -56 4 0 38 30 75
68 l67 68 0 57 c0 31 -4 57 -8 57 -5 0 -39 -31 -75 -69z"/>
<path d="M88 193 l-68 -69 0 -62 0 -62 145 0 145 0 0 75 0 75 -75 0 -74 0 -3
55 -3 56 -67 -68z"/>
<path d="M440 78 l0 -72 70 69 c39 38 70 71 70 72 0 2 -31 3 -70 3 l-70 0 0
-72z"/>
</g>
</svg>
