<?xml version="1.0" encoding="utf-8"?>
<!-- Generator: Adobe Illustrator 24.1.2, SVG Export Plug-In . SVG Version: 6.00 Build 0)  -->
<svg version="1.1" id="Icon" xmlns="http://www.w3.org/2000/svg" xmlns:xlink="http://www.w3.org/1999/xlink" x="0px" y="0px"
	 viewBox="0 0 48 48" style="enable-background:new 0 0 48 48;" xml:space="preserve">
<style type="text/css">
	.st0{fill:#96A5AF;}
</style>
<path class="st0" d="M28,36c0,2.21-1.79,4-4,4s-4-1.79-4-4s1.79-4,4-4S28,33.79,28,36z M32.48,27.52l-2.82,2.82
	C28.14,28.84,26.14,28,24,28s-4.14,0.84-5.66,2.34l-2.82-2.82C17.78,25.24,20.8,24,24,24S30.22,25.24,32.48,27.52z M38.14,21.86
	l-2.82,2.82C32.2,21.56,28.1,20,24,20s-8.2,1.56-11.32,4.68l-2.82-2.82C17.66,14.06,30.34,14.06,38.14,21.86z M43.8,16.2l-2.84,2.84
	C36.62,14.68,30.62,12,24,12s-12.62,2.68-16.96,7.04L4.2,16.2C9.28,11.14,16.28,8,24,8S38.72,11.14,43.8,16.2z"/>
</svg>
