<?xml version="1.0" encoding="utf-8"?>
<!-- Generator: Adobe Illustrator 24.1.2, SVG Export Plug-In . SVG Version: 6.00 Build 0)  -->
<svg version="1.1" id="Icon" xmlns="http://www.w3.org/2000/svg" xmlns:xlink="http://www.w3.org/1999/xlink" x="0px" y="0px"
	 viewBox="0 0 48 48" style="enable-background:new 0 0 48 48;" xml:space="preserve">
<style type="text/css">
	.st0{fill:#96A5AF;}
</style>
<path class="st0" d="M42.12,37.88l-4.24,4.24L26.82,31.06l4.24-4.24L42.12,37.88z M30.24,22H34l8-8l-8-8l-8,8v3.76l-7.12,7.12L18,24
	l-2,2v1.76L15.76,28H14l-8,8v2l4,4h2l8-8v-1.76L20.24,32H22l2-2l-0.88-0.88L30.24,22z M15.76,20l1.18,1.18l4.24-4.24L20,15.76V10
	l-4-4h-4l-2,2l4,4l-2,2l-4-4l-2,2v4l4,4H15.76z"/>
</svg>
