<?xml version="1.0" encoding="utf-8"?>
<!-- Generator: Adobe Illustrator 24.1.2, SVG Export Plug-In . SVG Version: 6.00 Build 0)  -->
<svg version="1.1" id="Icon" xmlns="http://www.w3.org/2000/svg" xmlns:xlink="http://www.w3.org/1999/xlink" x="0px" y="0px"
	 viewBox="0 0 48 48" style="enable-background:new 0 0 48 48;" xml:space="preserve">
<style type="text/css">
	.st0{fill:#96A5AF;}
</style>
<path class="st0" d="M28.18,27.8L35.12,40h-7.06c-0.25,0.02-0.49-0.12-0.58-0.36c-2.24-3.94-4.49-7.87-6.74-11.8
	c-0.16-0.23-0.16-0.53,0-0.76c3.6-6.24,7.14-12.48,10.72-18.74C31.56,8.16,31.64,8,31.92,8h7.2c0,0-7.72,13.5-10.94,19.12
	C28.04,27.32,28.04,27.6,28.18,27.8z M21.32,20.88l-3.82-6.72c-0.09-0.22-0.31-0.35-0.54-0.32h-6.68l4,7c0.14,0.19,0.14,0.45,0,0.64
	c-1.34,2.16-5.36,8.82-5.36,8.82h6.76c0.18-0.03,0.34-0.14,0.44-0.3l5.22-8.54C21.44,21.28,21.44,21.05,21.32,20.88z"/>
</svg>
