<?xml version="1.0" encoding="utf-8"?>
<!-- Generator: Adobe Illustrator 24.1.2, SVG Export Plug-In . SVG Version: 6.00 Build 0)  -->
<svg version="1.1" id="Icon" xmlns="http://www.w3.org/2000/svg" xmlns:xlink="http://www.w3.org/1999/xlink" x="0px" y="0px"
	 viewBox="0 0 48 48" style="enable-background:new 0 0 48 48;" xml:space="preserve">
<style type="text/css">
	.st0{fill:#96A5AF;}
</style>
<path class="st0" d="M14.86,26.3L6,35.16V17.44L14.86,26.3z M25.42,34.02h-2.84l-4.88-4.88L6.84,40h34.32L30.3,29.14L25.42,34.02z
	 M30.56,14H8.24L24,29.78l9.96-9.96C32.12,18.46,30.84,16.38,30.56,14z M38,21.44l-4.86,4.86L42,35.16V20.94
	c-0.92,0.36-1.94,0.56-3,0.56C38.66,21.5,38.32,21.48,38,21.44z M39,8c-2.76,0-5,2.24-5,5s2.24,5,5,5s5-2.24,5-5S41.76,8,39,8z"/>
</svg>
