<?xml version="1.0" encoding="utf-8"?>
<!-- Generator: Adobe Illustrator 24.1.2, SVG Export Plug-In . SVG Version: 6.00 Build 0)  -->
<svg version="1.1" id="Icon" xmlns="http://www.w3.org/2000/svg" xmlns:xlink="http://www.w3.org/1999/xlink" x="0px" y="0px"
	 viewBox="0 0 48 48" style="enable-background:new 0 0 48 48;" xml:space="preserve">
<path d="M7.7,18.4V40h7.2V18.4H7.7z M32.5,17.9c-3.8,0-5.5,2.1-6.5,3.6v-3h-7.2c0.1,2,0,21.4,0,21.6H26V27.9c0-0.6,0.1-1.3,0.2-1.7
	c0.5-1.3,1.7-2.6,3.7-2.6c2.6,0,3.6,2,3.6,4.9V40h7.2V27.6C40.7,21,37.2,17.9,32.5,17.9z M15.3,11.7c-0.1,2.1-1.6,3.7-4,3.7
	c-2.5,0-4.1-1.6-4.1-3.7S8.9,8,11.3,8C13.8,8,15.3,9.6,15.3,11.7z"/>
</svg>
