<?xml version="1.0" encoding="utf-8"?>
<!-- Generator: Adobe Illustrator 24.1.2, SVG Export Plug-In . SVG Version: 6.00 Build 0)  -->
<svg version="1.1" id="Icon" xmlns="http://www.w3.org/2000/svg" xmlns:xlink="http://www.w3.org/1999/xlink" x="0px" y="0px"
	 viewBox="0 0 48 48" style="enable-background:new 0 0 48 48;" xml:space="preserve">
<path d="M17.6,40H8V14l6-6h16.4H40v26l-6,6H17.6z M32,32c0-4.42-3.58-8-8-8s-8,3.58-8,8H32z M16,16c-1.1,0-2,0.9-2,2s0.9,2,2,2
	s2-0.9,2-2S17.1,16,16,16z M32,16c-1.1,0-2,0.9-2,2s0.9,2,2,2c1.1,0,2-0.9,2-2S33.1,16,32,16z"/>
</svg>
