<?xml version="1.0" encoding="utf-8"?>
<!-- Generator: Adobe Illustrator 24.1.2, SVG Export Plug-In . SVG Version: 6.00 Build 0)  -->
<svg version="1.1" id="Icon" xmlns="http://www.w3.org/2000/svg" xmlns:xlink="http://www.w3.org/1999/xlink" x="0px" y="0px"
	 viewBox="0 0 48 48" style="enable-background:new 0 0 48 48;" xml:space="preserve">
<path d="M37.9,10.1c-5.46-5.48-14.32-5.5-19.8-0.04c-4.34,4.32-5.37,10.95-2.54,16.38L6,36v2l4,4h2l9.56-9.56
	c6.86,3.57,15.31,0.9,18.88-5.96C43.27,21.05,42.24,14.42,37.9,10.1z M35.08,27.1c-3.91,3.9-10.24,3.89-14.14-0.02
	s-3.89-10.24,0.02-14.14c3.9-3.89,10.22-3.89,14.12,0c3.87,3.92,3.87,10.22,0,14.14V27.1z"/>
</svg>
