<?xml version="1.0" encoding="utf-8"?>
<!-- Generator: Adobe Illustrator 24.1.2, SVG Export Plug-In . SVG Version: 6.00 Build 0)  -->
<svg version="1.1" id="Icon" xmlns="http://www.w3.org/2000/svg" xmlns:xlink="http://www.w3.org/1999/xlink" x="0px" y="0px"
	 viewBox="0 0 48 48" style="enable-background:new 0 0 48 48;" xml:space="preserve">
<g>
	<path d="M16.34,24L10,30.34V34H4v-6l4-4H16.34z M12,14c-2.21,0-4,1.79-4,4s1.79,4,4,4s4-1.79,4-4S14.21,14,12,14z M40,24h-8.34
		L38,30.34V34h6v-6L40,24z M32,18c0,2.21,1.79,4,4,4s4-1.79,4-4s-1.79-4-4-4S32,15.79,32,18z M24,14c-2.76,0-5,2.24-5,5s2.24,5,5,5
		s5-2.24,5-5S26.76,14,24,14z M34,32l-4-4H18l-4,4v6h20V32z"/>
</g>
</svg>
