<?xml version="1.0" encoding="utf-8"?>
<!-- Generator: Adobe Illustrator 24.1.2, SVG Export Plug-In . SVG Version: 6.00 Build 0)  -->
<svg version="1.1" id="Icon" xmlns="http://www.w3.org/2000/svg" xmlns:xlink="http://www.w3.org/1999/xlink" x="0px" y="0px"
	 viewBox="0 0 48 48" style="enable-background:new 0 0 48 48;" xml:space="preserve">
<g>
	<path d="M37.79,32.03L35,35h-5l-2,2h-4l-2,2h-4l-7-7H6V13h6l4-4h6.76l-10,10l4.12,4.12c1.14,1.14,2.6,1.77,4.12,1.77
		s2.98-0.63,4.12-1.77L27,21.24L37.79,32.03z M37,13l-4.29-4H27L17,19l2,2c1.18,1.18,2.82,1.18,4,0l4-4l13,13l2-2V13H37z"/>
</g>
</svg>
