<?xml version="1.0" encoding="utf-8"?>
<!-- Generator: Adobe Illustrator 24.1.2, SVG Export Plug-In . SVG Version: 6.00 Build 0)  -->
<svg version="1.1" id="Icon" xmlns="http://www.w3.org/2000/svg" xmlns:xlink="http://www.w3.org/1999/xlink" x="0px" y="0px"
	 viewBox="0 0 48 48" style="enable-background:new 0 0 48 48;" xml:space="preserve">
<path d="M24,8C15.16,8,8,15.16,8,24s7.16,16,16,16s16-7.16,16-16S32.84,8,24,8z M35.82,22h-3.88c-0.14-2.8-0.7-5.57-1.66-8.2
	C33.22,15.61,35.24,18.6,35.82,22z M12.18,26h3.88c0.14,2.8,0.7,5.57,1.66,8.2C14.78,32.39,12.76,29.4,12.18,26z M16.06,22h-3.88
	c0.58-3.4,2.6-6.39,5.54-8.2C16.76,16.43,16.2,19.2,16.06,22z M24,36c-1.28,0-3.5-3.76-3.92-10h7.84C27.5,32.24,25.28,36,24,36z
	 M20.08,22c0.42-6.24,2.64-10,3.92-10s3.5,3.76,3.92,10H20.08z M30.28,34.2c0.96-2.63,1.52-5.4,1.66-8.2h3.88
	C35.24,29.4,33.22,32.39,30.28,34.2z"/>
</svg>
