<?xml version="1.0" standalone="no"?>
<!DOCTYPE svg PUBLIC "-//W3C//DTD SVG 1.1//EN" "http://www.w3.org/Graphics/SVG/1.1/DTD/svg11.dtd" >
<svg xmlns="http://www.w3.org/2000/svg" xmlns:xlink="http://www.w3.org/1999/xlink" version="1.1">
<metadata>
Created by Christoph Koeberlin (http://christoph.koe.berlin)
Copyright (c) 2011 Swiss Typefaces Sa`rl. All rights reserved.
</metadata>
<defs>
<font id="Font" horiz-adv-x="558" >
  <font-face 
    font-family="Font"
    font-weight="300"
    font-stretch="normal"
    units-per-em="1000"
    panose-1="2 11 3 0 3 0 0 0 0 0"
    ascent="800"
    descent="-200"
    x-height="516"
    cap-height="700"
    bbox="-220 -209 1028 874"
    underline-thickness="48"
    underline-position="-100"
    unicode-range="U+0020-FB04"
  />
<missing-glyph horiz-adv-x="500" 
d="M56 0v700h387v-700h-387zM355 646h-212l106 -238zM388 603l-113 -253l113 -254v507zM223 350l-112 251v-503zM355 54l-106 237l-106 -237h212z" />
    <glyph glyph-name=".notdef" horiz-adv-x="500" 
d="M56 0v700h387v-700h-387zM355 646h-212l106 -238zM388 603l-113 -253l113 -254v507zM223 350l-112 251v-503zM355 54l-106 237l-106 -237h212z" />
    <glyph glyph-name=".null" horiz-adv-x="0" 
 />
    <glyph glyph-name="nonmarkingreturn" horiz-adv-x="0" 
 />
    <glyph glyph-name="space" unicode=" " horiz-adv-x="230" 
 />
    <glyph glyph-name="exclam" unicode="!" horiz-adv-x="264" 
d="M158 700v-490h-53v490h53zM90 84h84v-84h-84v84z" />
    <glyph glyph-name="quotedbl" unicode="&#x22;" horiz-adv-x="356" 
d="M85 476v224h53v-224h-53zM218 476v224h53v-224h-53z" />
    <glyph glyph-name="numbersign" unicode="#" horiz-adv-x="700" 
d="M469 216l-53 -216h-47l53 216h-211l-53 -216h-47l53 216h-71v45h82l44 178h-81v45h92l54 216h47l-54 -216h211l54 216h47l-54 -216h72v-45h-83l-44 -178h82v-45h-93zM222 261h211l44 178h-211z" />
    <glyph glyph-name="dollar" unicode="$" horiz-adv-x="505" 
d="M233 800h43v-91q39 -4 69 -19.5t51 -39.5t32.5 -55t13.5 -65h-53q-4 49 -32 85t-81 43v-289l41 -17q39 -16 65 -37.5t41.5 -46t22.5 -51.5t7 -53q0 -33 -10 -63.5t-31 -54t-54.5 -38t-81.5 -17.5v-91h-43v91q-41 4 -74.5 20.5t-58 44t-39 64t-15.5 80.5h53
q5 -63 39 -106.5t95 -51.5v286l-34 14q-67 27 -104.5 70t-37.5 115q0 74 45.5 124.5t130.5 57.5v91zM110 527q0 -49 24.5 -79.5t72.5 -50.5l26 -11v272q-33 -3 -56.5 -15t-38.5 -30t-21.5 -40t-6.5 -46zM400 164q0 48 -27 83t-69 52l-28 11v-268q65 5 94.5 39.5t29.5 82.5z
" />
    <glyph glyph-name="percent" unicode="%" horiz-adv-x="806" 
d="M668 700l-481 -700h-48l481 700h48zM189 330q30 0 52 18.5t22 56.5v184q0 38 -22 56.5t-52 18.5q-29 0 -51.5 -18.5t-22.5 -56.5v-184q0 -38 22.5 -56.5t51.5 -18.5zM189 288q-21 0 -41.5 6t-37.5 19.5t-27.5 36t-10.5 55.5v184q0 33 10.5 55.5t27.5 36t37.5 19.5t41.5 6
t42 -6t37.5 -19.5t27 -36t10.5 -55.5v-184q0 -33 -10.5 -55.5t-27 -36t-37.5 -19.5t-42 -6zM617 36q30 0 52 18.5t22 56.5v184q0 38 -22 56.5t-52 18.5q-29 0 -51.5 -18.5t-22.5 -56.5v-184q0 -38 22.5 -56.5t51.5 -18.5zM617 -6q-21 0 -41.5 6t-37.5 19.5t-27.5 36
t-10.5 55.5v184q0 33 10.5 55.5t27.5 36t37.5 19.5t41.5 6t42 -6t37.5 -19.5t27 -36t10.5 -55.5v-184q0 -33 -10.5 -55.5t-27 -36t-37.5 -19.5t-42 -6z" />
    <glyph glyph-name="ampersand" unicode="&#x26;" horiz-adv-x="595" 
d="M247 649q-66 0 -100.5 -38t-34.5 -98q0 -59 34.5 -96.5t100.5 -37.5h155v80h53v-80h127v-51h-127v-328h-203q-45 0 -81 13.5t-61 38.5t-38 60t-13 78q0 59 26 100.5t69 62.5q-48 21 -71.5 62t-23.5 98q0 51 16.5 86.5t43 58t60 32.5t68.5 10h155v-51h-155zM402 51v277
h-150q-37 0 -63.5 -11t-43.5 -30t-25 -44t-8 -53t8 -53.5t25 -44.5t43.5 -30t63.5 -11h150z" />
    <glyph glyph-name="quotesingle" unicode="'" horiz-adv-x="223" 
d="M85 476v224h53v-224h-53z" />
    <glyph glyph-name="parenleft" unicode="(" horiz-adv-x="262" 
d="M101 597q0 25 4.5 44t16.5 32t33 20t53 7h10v-42h-10q-40 0 -52 -15t-12 -46v-586q0 -31 12 -46t52 -15h10v-42h-10q-32 0 -53 7t-33 20t-16.5 32t-4.5 44v586z" />
    <glyph glyph-name="parenright" unicode=")" horiz-adv-x="262" 
d="M161 11q0 -25 -4.5 -44t-16.5 -32t-33 -20t-53 -7h-10v42h10q40 0 52 15t12 46v586q0 31 -12 46t-52 15h-10v42h10q32 0 53 -7t33 -20t16.5 -32t4.5 -44v-586z" />
    <glyph glyph-name="asterisk" unicode="*" horiz-adv-x="453" 
d="M226 507l-73 -100l-37 26l74 100l-118 39l14 43l118 -39v124h45v-124l118 39l14 -43l-118 -39l74 -100l-37 -26z" />
    <glyph glyph-name="plus" unicode="+" 
d="M257 258h-176v45h176v175h45v-175h175v-45h-175v-176h-45v176z" />
    <glyph glyph-name="comma" unicode="," horiz-adv-x="264" 
d="M90 84h84v-84l-31 -84h-49l31 84h-35v84z" />
    <glyph glyph-name="hyphen" unicode="-" horiz-adv-x="410" 
d="M60 258v45h290v-45h-290z" />
    <glyph glyph-name="period" unicode="." horiz-adv-x="264" 
d="M90 84h84v-84h-84v84z" />
    <glyph glyph-name="slash" unicode="/" horiz-adv-x="332" 
d="M332 700l-283 -700h-49l283 700h49z" />
    <glyph glyph-name="zero" horiz-adv-x="534" 
d="M465 192q0 -56 -18 -94.5t-46.5 -62.5t-63.5 -34.5t-70 -10.5t-70 10.5t-63.5 34.5t-46.5 62.5t-18 94.5v316q0 56 18 94.5t46.5 62.5t63.5 34.5t70 10.5t70 -10.5t63.5 -34.5t46.5 -62.5t18 -94.5v-316zM412 508q0 35 -11 63t-30 47.5t-46 30t-58 10.5
q-32 0 -58.5 -10.5t-45.5 -30t-30 -47.5t-11 -63v-316q0 -35 11 -63t30 -47.5t45.5 -30t58.5 -10.5q31 0 58 10.5t46 30t30 47.5t11 63v316z" />
    <glyph glyph-name="one" unicode="1" horiz-adv-x="329" 
d="M52 585l134 115h53v-700h-53v632l-134 -115v68z" />
    <glyph glyph-name="two" unicode="2" horiz-adv-x="507" 
d="M106 495h-53v13q0 56 18 94.5t46.5 62.5t63.5 34.5t70 10.5t70.5 -11t64 -34.5t46 -60.5t17.5 -90q0 -47 -20.5 -91t-65.5 -96l-243 -276h329v-51h-396v51l272 310q39 45 55 82.5t16 70.5q0 64 -39.5 104t-105.5 41q-32 0 -58.5 -10.5t-45.5 -30t-30 -47.5t-11 -63v-13z
" />
    <glyph glyph-name="three" unicode="3" horiz-adv-x="513" 
d="M255 -10q-37 0 -73 10.5t-65 34t-47 62t-18 95.5v8h53v-8q0 -71 41.5 -111t108.5 -40q66 0 103 37.5t37 109.5q0 27 -9 52.5t-26 45t-43 31t-59 11.5h-49v51h51q66 0 100.5 39t34.5 98q0 30 -11 56.5t-30 45.5t-46 30t-58 11q-32 0 -58.5 -10.5t-45.5 -30t-30 -47.5
t-11 -63v-8h-53v8q0 56 18 94.5t46.5 62.5t63.5 34.5t70 10.5q36 0 71 -11t63.5 -35t46 -60.5t17.5 -87.5q0 -60 -26 -100.5t-71 -62.5q43 -21 70 -63.5t27 -101.5q0 -50 -14.5 -87.5t-40.5 -62t-61 -36.5t-77 -12z" />
    <glyph glyph-name="four" unicode="4" horiz-adv-x="508" 
d="M402 700v-451h73v-49h-73v-200h-53v200h-329v49l329 451h53zM349 249v365l-267 -365h267z" />
    <glyph glyph-name="five" unicode="5" horiz-adv-x="514" 
d="M131 380q24 28 61 42.5t75 14.5q35 0 70 -10.5t63.5 -34.5t46.5 -62.5t18 -94.5v-43q0 -56 -18 -94.5t-46.5 -62.5t-63.5 -34.5t-70 -10.5t-70 10.5t-63.5 34.5t-46.5 62.5t-18 94.5v8h53v-8q0 -35 11 -63t30 -47.5t45.5 -30t58.5 -10.5q31 0 58 10.5t46 30t30 47.5
t11 63v43q0 35 -11 63t-30 47.5t-46 30t-58 10.5q-42 0 -75.5 -18.5t-51.5 -52.5h-62v385h360v-51h-307v-269z" />
    <glyph glyph-name="six" unicode="6" horiz-adv-x="528" 
d="M122 362q18 27 56.5 47.5t88.5 20.5q35 0 70 -10.5t63.5 -34.5t46.5 -62.5t18 -94.5v-36q0 -56 -18 -94.5t-46.5 -62.5t-63.5 -34.5t-70 -10.5t-70 10.5t-63.5 34.5t-46.5 62.5t-18 94.5v316q0 56 18 94.5t46.5 62.5t63.5 34.5t70 10.5t70 -10.5t63.5 -34.5t46.5 -62.5
t18 -94.5v-8h-53v8q0 35 -11 63t-30 47.5t-46 30t-58 10.5q-32 0 -58.5 -10.5t-45.5 -30t-30 -47.5t-11 -63v-146zM122 192q0 -35 11 -63t30 -47.5t45.5 -30t58.5 -10.5q31 0 58 10.5t46 30t30 47.5t11 63v36q0 35 -11 63t-30 47.5t-46 30t-58 10.5q-32 0 -58.5 -10.5
t-45.5 -30t-30 -47.5t-11 -63v-36z" />
    <glyph glyph-name="seven" unicode="7" horiz-adv-x="442" 
d="M413 700v-51l-237 -649h-53l237 649h-337v51h390z" />
    <glyph glyph-name="eight" unicode="8" horiz-adv-x="526" 
d="M454 519q0 -53 -22.5 -96.5t-67.5 -69.5q43 -21 70 -65.5t27 -103.5q0 -53 -18.5 -90t-47.5 -60t-64 -33.5t-68 -10.5t-68 10.5t-64 33.5t-47.5 60t-18.5 90q0 59 27 103.5t70 65.5q-45 26 -67.5 69.5t-22.5 96.5q0 51 17 87t44 59t61 34t69 11t69 -11t61 -34t44 -59
t17 -87zM408 184q0 31 -11.5 57.5t-31.5 46t-46 30t-56 10.5t-56 -10.5t-46 -30t-31.5 -46t-11.5 -57.5q0 -32 11.5 -58t31.5 -45t46 -29.5t56 -10.5t56 10.5t46 29.5t31.5 45t11.5 58zM125 519q0 -30 9 -55.5t26 -44t43 -29.5t60 -11t60 11t43 29.5t26 44t9 55.5t-9 55.5
t-26.5 44t-43.5 29.5t-59 11t-59 -11t-43.5 -29.5t-26.5 -44t-9 -55.5z" />
    <glyph glyph-name="nine" unicode="9" horiz-adv-x="528" 
d="M406 338q-18 -27 -56.5 -47.5t-88.5 -20.5q-35 0 -70 10.5t-63.5 34.5t-46.5 62.5t-18 94.5v36q0 56 18 94.5t46.5 62.5t63.5 34.5t70 10.5t70 -10.5t63.5 -34.5t46.5 -62.5t18 -94.5v-316q0 -56 -18 -94.5t-46.5 -62.5t-63.5 -34.5t-70 -10.5t-70 10.5t-63.5 34.5
t-46.5 62.5t-18 94.5v8h53v-8q0 -35 11 -63t30 -47.5t45.5 -30t58.5 -10.5q31 0 58 10.5t46 30t30 47.5t11 63v146zM406 508q0 35 -11 63t-30 47.5t-46 30t-58 10.5q-32 0 -58.5 -10.5t-45.5 -30t-30 -47.5t-11 -63v-36q0 -35 11 -63t30 -47.5t45.5 -30t58.5 -10.5
q31 0 58 10.5t46 30t30 47.5t11 63v36z" />
    <glyph glyph-name="colon" unicode=":" horiz-adv-x="264" 
d="M90 516h84v-84h-84v84zM90 84h84v-84h-84v84z" />
    <glyph glyph-name="semicolon" unicode=";" horiz-adv-x="264" 
d="M90 84h84v-84l-31 -84h-49l31 84h-35v84zM90 516h84v-84h-84v84z" />
    <glyph glyph-name="less" unicode="&#x3c;" 
d="M477 46v-51l-396 239v50l396 239v-51l-353 -213z" />
    <glyph glyph-name="equal" unicode="=" 
d="M477 395v-45h-396v45h396zM81 155v45h396v-45h-396z" />
    <glyph glyph-name="greater" unicode="&#x3e;" 
d="M434 259l-353 213v51l396 -239v-50l-396 -239v51z" />
    <glyph glyph-name="question" unicode="?" horiz-adv-x="504" 
d="M47 508q0 56 18 94.5t46.5 62.5t63.5 34.5t70 10.5t70 -10.5t63.5 -34.5t46.5 -62.5t18 -94.5q0 -49 -23 -88t-53 -66l-60 -55q-23 -21 -29.5 -34t-6.5 -33v-22h-53v22q0 28 11 51.5t42 51.5l60 55q25 23 42 53t17 65t-11 63t-30 47.5t-46 30t-58 10.5q-32 0 -58.5 -10.5
t-45.5 -30t-30 -47.5t-11 -63v-8h-53v8zM200 84h84v-84h-84v84z" />
    <glyph glyph-name="at" unicode="@" horiz-adv-x="862" 
d="M576 328q0 35 -11 63t-30 47.5t-46 30t-58 10.5q-56 0 -94.5 -31.5t-47.5 -87.5h-54q5 47 24.5 79.5t46.5 52.5t60 29t65 9q35 0 70 -10.5t63.5 -34.5t46.5 -62.5t18 -94.5v-232q0 -11 3 -22.5t10 -20.5t18 -14.5t27 -5.5q31 0 44 20t13 43v295q0 45 -17.5 94t-55.5 89.5
t-97 67t-143 26.5t-143 -26.5t-97 -67t-55.5 -89.5t-17.5 -94v-266q0 -45 17.5 -94t55.5 -89.5t97 -67t143 -26.5q65 0 114.5 16.5t86.5 42.5l25 -36q-42 -29 -98 -47t-128 -18q-96 0 -163.5 30.5t-110.5 77.5t-62.5 103.5t-19.5 107.5v266q0 51 19.5 107.5t62.5 103.5
t110.5 77.5t163.5 30.5t163.5 -30.5t110.5 -77.5t62.5 -103.5t19.5 -107.5v-287q0 -59 -27 -86.5t-75 -27.5t-74.5 23t-34.5 50q-25 -36 -69 -54.5t-103 -18.5q-42 0 -74 12t-54 33t-33 48.5t-11 58.5q0 51 26 90.5t86 57.5q45 14 105.5 19.5t126.5 9.5v9zM576 272
q-86 -5 -141.5 -11.5t-84.5 -20.5q-37 -17 -51 -40t-14 -54q0 -21 7 -40t22.5 -33.5t40.5 -23t61 -8.5q34 0 63.5 11t51 30.5t33.5 47.5t12 62v80z" />
    <glyph glyph-name="A" unicode="A" horiz-adv-x="564" 
d="M415 217h-266l-74 -217h-56l238 700h50l238 -700h-56zM398 268l-116 341l-116 -341h232z" />
    <glyph glyph-name="B" unicode="B" horiz-adv-x="579" 
d="M419 359q22 -8 41.5 -24t34.5 -38t23.5 -49t8.5 -57q0 -39 -13 -74t-37.5 -61t-60 -41t-80.5 -15h-251v700h233q43 0 78.5 -14t61 -39t39 -59.5t13.5 -74.5q0 -52 -25 -93t-66 -61zM140 328v-274h196q30 0 55 9.5t43 27.5t28 43t10 57q0 31 -10 56.5t-28 43.5t-43 27.5
t-55 9.5h-196zM318 381q28 0 52.5 8.5t43.5 25t30 41.5t11 57t-11 57t-30 42t-43.5 25.5t-52.5 8.5h-178v-265h178z" />
    <glyph glyph-name="C" unicode="C" horiz-adv-x="559" 
d="M505 200q-4 -49 -22 -88t-47.5 -66t-67.5 -41.5t-83 -14.5q-48 0 -88.5 16.5t-70 47t-46 74.5t-16.5 99v246q0 55 16.5 99t46 74.5t70 47t88.5 16.5q45 0 83 -14.5t67.5 -41.5t47.5 -66t22 -88h-55q-4 40 -18.5 69t-36.5 48.5t-50.5 29t-59.5 9.5q-34 0 -64.5 -11
t-53 -34t-35.5 -57.5t-13 -80.5v-246q0 -47 13 -81t35.5 -57t53 -34t64.5 -11q31 0 59.5 9.5t50.5 29t36.5 48.5t18.5 69h55z" />
    <glyph glyph-name="D" unicode="D" horiz-adv-x="591" 
d="M527 237q0 -55 -16.5 -99t-46 -74.5t-70 -47t-88.5 -16.5h-221v700h221q48 0 88.5 -16.5t70 -47t46 -74.5t16.5 -99v-226zM140 54h166q34 0 64.5 11t53 34t35.5 57t13 81v226q0 46 -13 80.5t-35.5 57.5t-53 34t-64.5 11h-166v-592z" />
    <glyph glyph-name="E" unicode="E" horiz-adv-x="541" 
d="M140 54h332v-54h-387v700h387v-54h-332v-265h332v-53h-332v-274z" />
    <glyph glyph-name="F" unicode="F" horiz-adv-x="531" 
d="M140 0h-55v700h387v-54h-332v-265h332v-53h-332v-328z" />
    <glyph glyph-name="G" unicode="G" horiz-adv-x="566" 
d="M285 361h221v-134q0 -55 -16.5 -99t-46 -74.5t-70 -47t-88.5 -16.5t-88.5 16.5t-70 47t-46 74.5t-16.5 99v246q0 55 16.5 99t46 74.5t70 47t88.5 16.5q45 0 83 -14.5t67.5 -41.5t47.5 -66t22 -88h-55q-4 39 -18.5 68.5t-36.5 49t-50.5 29t-59.5 9.5q-34 0 -64.5 -11
t-53 -34t-35.5 -57.5t-13 -80.5v-246q0 -47 13 -81t35.5 -57t53 -34t64.5 -11t64.5 11t53 34t35.5 57t13 81v81h-166v53z" />
    <glyph glyph-name="H" unicode="H" horiz-adv-x="612" 
d="M472 700h55v-700h-55v328h-332v-328h-55v700h55v-319h332v319z" />
    <glyph glyph-name="I" unicode="I" horiz-adv-x="225" 
d="M140 0h-55v700h55v-700z" />
    <glyph glyph-name="J" unicode="J" horiz-adv-x="467" 
d="M336 700h55v-518q0 -44 -14 -79t-39 -60.5t-59.5 -39t-74.5 -13.5t-74 13.5t-58.5 39t-38.5 60.5t-14 79v18h55v-18q0 -28 8.5 -53t25.5 -44t41 -30t56 -11q31 0 55.5 11t41.5 30t25.5 44t8.5 53v518z" />
    <glyph glyph-name="K" unicode="K" horiz-adv-x="597" 
d="M140 0h-55v700h55v-411l349 411h71l-246 -289l272 -411h-66l-243 367l-137 -161v-206z" />
    <glyph glyph-name="L" unicode="L" horiz-adv-x="492" 
d="M140 54h332v-54h-387v700h55v-646z" />
    <glyph glyph-name="M" unicode="M" horiz-adv-x="706" 
d="M322 188l-184 400v-588h-53v700h58l210 -453l210 453h58v-700h-53v588l-184 -400h-62z" />
    <glyph glyph-name="N" unicode="N" horiz-adv-x="612" 
d="M527 0h-55l-332 591v-591h-55v700h55l332 -591v591h55v-700z" />
    <glyph glyph-name="O" unicode="O" horiz-adv-x="570" 
d="M506 227q0 -55 -16.5 -99t-46 -74.5t-70 -47t-88.5 -16.5t-88.5 16.5t-70 47t-46 74.5t-16.5 99v246q0 55 16.5 99t46 74.5t70 47t88.5 16.5t88.5 -16.5t70 -47t46 -74.5t16.5 -99v-246zM119 227q0 -47 13 -81t35.5 -57t53 -34t64.5 -11t64.5 11t53 34t35.5 57t13 81v246
q0 46 -13 80.5t-35.5 57.5t-53 34t-64.5 11t-64.5 -11t-53 -34t-35.5 -57.5t-13 -80.5v-246z" />
    <glyph glyph-name="P" unicode="P" horiz-adv-x="549" 
d="M140 293v-293h-55v700h226q42 0 79 -13t64.5 -38.5t44 -63.5t16.5 -88t-16.5 -88.5t-44 -64t-64.5 -38.5t-79 -13h-171zM311 347q30 0 57 9.5t47.5 28.5t32.5 47t12 65t-12 64.5t-32.5 46.5t-47.5 28.5t-57 9.5h-171v-299h171z" />
    <glyph glyph-name="Q" unicode="Q" horiz-adv-x="569" 
d="M419 32q-56 -42 -134 -42q-48 0 -88.5 16.5t-70 47t-46 74.5t-16.5 99v246q0 55 16.5 99t46 74.5t70 47t88.5 16.5t88.5 -16.5t70 -47t46 -74.5t16.5 -99v-246q0 -97 -50 -159l77 -76l-37 -37zM119 227q0 -47 13 -81t35.5 -57t53 -34t64.5 -11q54 0 95 27l-73 73l36 37
l75 -74q16 23 24.5 52.5t8.5 67.5v246q0 46 -13 80.5t-35.5 57.5t-53 34t-64.5 11t-64.5 -11t-53 -34t-35.5 -57.5t-13 -80.5v-246z" />
    <glyph glyph-name="R" unicode="R" horiz-adv-x="572" 
d="M140 328v-328h-55v700h238q43 0 78.5 -14t61 -39t39 -59.5t13.5 -74.5q0 -38 -12 -70t-34.5 -56t-54 -39.5t-70.5 -18.5l194 -329h-63l-193 328h-142zM323 381q28 0 52.5 8.5t43.5 25t30 41.5t11 57t-11 57t-30 42t-43.5 25.5t-52.5 8.5h-183v-265h183z" />
    <glyph glyph-name="S" unicode="S" horiz-adv-x="515" 
d="M250 656q-35 0 -62 -10.5t-45 -28.5t-27 -42t-9 -51q0 -50 25.5 -84t73.5 -47l125 -34q28 -8 53 -23t43.5 -37.5t29.5 -53t11 -67.5q0 -38 -12 -72.5t-37 -60t-63.5 -40.5t-91.5 -15q-94 0 -154.5 55.5t-68.5 154.5h55q3 -39 18 -68.5t37.5 -49t51.5 -29t61 -9.5
q71 0 110 34t39 100q0 42 -24 77.5t-80 50.5l-121 33q-67 18 -101.5 68t-34.5 117q0 39 13 72.5t38 59t62 40t85 14.5q85 0 138.5 -47.5t68.5 -132.5h-55q-14 64 -53 95t-99 31z" />
    <glyph glyph-name="T" unicode="T" horiz-adv-x="481" 
d="M268 0h-55v646h-194v54h443v-54h-194v-646z" />
    <glyph glyph-name="U" unicode="U" horiz-adv-x="594" 
d="M76 700h55v-473q0 -47 13 -81t35.5 -57t53 -34t64.5 -11t64.5 11t53 34t35.5 57t13 81v473h55v-473q0 -55 -16.5 -99t-46 -74.5t-70 -47t-88.5 -16.5t-88.5 16.5t-70 47t-46 74.5t-16.5 99v473z" />
    <glyph glyph-name="V" unicode="V" horiz-adv-x="564" 
d="M489 700h56l-238 -700h-50l-238 700h56l207 -609z" />
    <glyph glyph-name="W" unicode="W" horiz-adv-x="716" 
d="M358 509l-144 -509h-53l-129 700h54l108 -591l139 491h50l139 -491l108 591h54l-129 -700h-53z" />
    <glyph glyph-name="X" unicode="X" horiz-adv-x="564" 
d="M282 319l-197 -319h-62l224 362l-209 338h62l182 -295l182 295h62l-209 -338l224 -362h-62z" />
    <glyph glyph-name="Y" unicode="Y" horiz-adv-x="543" 
d="M299 291v-291h-55v291l-236 409h61l203 -352l202 352h61z" />
    <glyph glyph-name="Z" unicode="Z" horiz-adv-x="537" 
d="M44 0v54l380 592h-375v54h437v-54l-380 -592h385v-54h-447z" />
    <glyph glyph-name="bracketleft" unicode="[" horiz-adv-x="262" 
d="M101 700h117v-42h-74v-708h74v-42h-117v792z" />
    <glyph glyph-name="backslash" unicode="\" horiz-adv-x="332" 
d="M49 700l283 -700h-49l-283 700h49z" />
    <glyph glyph-name="bracketright" unicode="]" horiz-adv-x="262" 
d="M161 -92h-117v42h74v708h-74v42h117v-792z" />
    <glyph glyph-name="asciicircum" unicode="^" horiz-adv-x="606" 
d="M303 648l-182 -348h-51l209 400h48l209 -400h-51z" />
    <glyph glyph-name="underscore" unicode="_" horiz-adv-x="406" 
d="M5 -114v45h396v-45h-396z" />
    <glyph glyph-name="grave" unicode="`" horiz-adv-x="298" 
d="M142 700l85 -129h-51l-118 129h84z" />
    <glyph glyph-name="a" unicode="a" horiz-adv-x="527" 
d="M401 328q0 35 -11 63t-30 47.5t-46 30t-58 10.5q-56 0 -94.5 -31.5t-47.5 -87.5h-54q5 47 24.5 79.5t46.5 52.5t60 29t65 9q35 0 70 -10.5t63.5 -34.5t46.5 -62.5t18 -94.5v-328h-53v63q-25 -36 -69 -54.5t-103 -18.5q-42 0 -74 12t-54 33t-33 48.5t-11 58.5
q0 51 26 90.5t86 57.5q45 14 105.5 19.5t126.5 9.5v9zM401 272q-86 -5 -141.5 -11.5t-84.5 -20.5q-37 -17 -51 -40t-14 -54q0 -21 7 -40t22.5 -33.5t40.5 -23t61 -8.5q34 0 63.5 11t51 30.5t33.5 47.5t12 62v80z" />
    <glyph glyph-name="b" unicode="b" horiz-adv-x="542" 
d="M80 700h53v-243q23 36 62.5 54.5t82.5 18.5q35 0 70 -10.5t63.5 -34.5t46.5 -62.5t18 -94.5v-136q0 -56 -18 -94.5t-46.5 -62.5t-63.5 -34.5t-70 -10.5q-43 0 -82.5 18.5t-62.5 54.5v-63h-53v700zM133 192q0 -35 11 -63t30 -47.5t45.5 -30t58.5 -10.5q31 0 58 10.5t46 30
t30 47.5t11 63v136q0 35 -11 63t-30 47.5t-46 30t-58 10.5q-32 0 -58.5 -10.5t-45.5 -30t-30 -47.5t-11 -63v-136z" />
    <glyph glyph-name="c" unicode="c" horiz-adv-x="516" 
d="M264 -10q-35 0 -70 10.5t-63.5 34.5t-46.5 62.5t-18 94.5v136q0 56 18 94.5t46.5 62.5t63.5 34.5t70 10.5q32 0 65 -9t60 -29t46.5 -52.5t24.5 -79.5h-54q-9 56 -47.5 87.5t-94.5 31.5q-32 0 -58.5 -10.5t-45.5 -30t-30 -47.5t-11 -63v-136q0 -35 11 -63t30 -47.5
t45.5 -30t58.5 -10.5q56 0 94.5 31.5t47.5 87.5h54q-5 -47 -24.5 -79.5t-46.5 -52.5t-60 -29t-65 -9z" />
    <glyph glyph-name="d" unicode="d" horiz-adv-x="542" 
d="M462 0h-53v63q-23 -36 -62.5 -54.5t-82.5 -18.5q-35 0 -70 10.5t-63.5 34.5t-46.5 62.5t-18 94.5v136q0 56 18 94.5t46.5 62.5t63.5 34.5t70 10.5q43 0 82.5 -18.5t62.5 -54.5v243h53v-700zM409 328q0 35 -11 63t-30 47.5t-46 30t-58 10.5q-32 0 -58.5 -10.5t-45.5 -30
t-30 -47.5t-11 -63v-136q0 -35 11 -63t30 -47.5t45.5 -30t58.5 -10.5q31 0 58 10.5t46 30t30 47.5t11 63v136z" />
    <glyph glyph-name="e" unicode="e" horiz-adv-x="523" 
d="M119 192q0 -35 11 -63t30 -47.5t45.5 -30t58.5 -10.5q56 0 94.5 31.5t47.5 87.5h54q-5 -47 -24.5 -79.5t-46.5 -52.5t-60 -29t-65 -9q-35 0 -70 10.5t-63.5 34.5t-46.5 62.5t-18 94.5v136q0 56 18 94.5t46.5 62.5t63.5 34.5t70 10.5t70 -10.5t63.5 -34.5t46.5 -62.5
t18 -94.5v-75h-343v-61zM119 304h290v24q0 35 -11 63t-30 47.5t-46 30t-58 10.5q-32 0 -58.5 -10.5t-45.5 -30t-30 -47.5t-11 -63v-24z" />
    <glyph glyph-name="f" unicode="f" horiz-adv-x="305" 
d="M33 516h73v81q0 25 4.5 44t16.5 32t33 20t53 7h73v-51h-73q-34 0 -44 -12t-10 -40v-81h127v-51h-127v-465h-53v465h-73v51z" />
    <glyph glyph-name="g" unicode="g" horiz-adv-x="541" 
d="M408 77q-23 -36 -62.5 -54.5t-82.5 -18.5q-35 0 -70 10.5t-63.5 34.5t-46.5 62.5t-18 94.5v122q0 56 18 94.5t46.5 62.5t63.5 34.5t70 10.5q43 0 82.5 -18.5t62.5 -54.5v59h53v-508q0 -56 -18 -94.5t-46.5 -62.5t-63.5 -34.5t-70 -10.5q-32 0 -65 9t-60 29t-46.5 52.5
t-24.5 79.5h54q9 -56 47.5 -87.5t94.5 -31.5q31 0 58 10.5t46 30t30 47.5t11 63v69zM408 328q0 35 -11 63t-30 47.5t-46 30t-58 10.5q-32 0 -58.5 -10.5t-45.5 -30t-30 -47.5t-11 -63v-122q0 -35 11 -63t30 -47.5t45.5 -30t58.5 -10.5q31 0 58 10.5t46 30t30 47.5t11 63v122
z" />
    <glyph glyph-name="h" unicode="h" horiz-adv-x="549" 
d="M133 0h-53v700h53v-243q23 36 62.5 54.5t82.5 18.5q35 0 70 -10.5t63.5 -34.5t46.5 -62.5t18 -94.5v-328h-53v328q0 35 -11 63t-30 47.5t-46 30t-58 10.5q-32 0 -58.5 -10.5t-45.5 -30t-30 -47.5t-11 -63v-328z" />
    <glyph glyph-name="i" unicode="i" horiz-adv-x="213" 
d="M133 516v-516h-53v516h53zM133 613h-53v87h53v-87z" />
    <glyph glyph-name="j" unicode="j" horiz-adv-x="213" 
d="M133 613h-53v87h53v-87zM80 516h53v-597q0 -25 -4.5 -44t-16.5 -32t-33 -20t-53 -7h-10v51h10q34 0 44 12t10 40v597z" />
    <glyph glyph-name="k" unicode="k" horiz-adv-x="489" 
d="M133 247l248 269h68l-187 -203l212 -313h-63l-186 274l-92 -100v-174h-53v700h53v-453z" />
    <glyph glyph-name="l" unicode="l" horiz-adv-x="242" 
d="M131 103q0 -28 10 -40t44 -12h10v-51h-10q-32 0 -53 7t-33 20t-16.5 32t-4.5 44v597h53v-597z" />
    <glyph glyph-name="m" unicode="m" horiz-adv-x="852" 
d="M592 530q30 0 63 -10.5t60.5 -34.5t45.5 -62.5t18 -94.5v-328h-53v328q0 35 -11 63t-29.5 47.5t-43 30t-51.5 10.5t-51 -10t-43 -29.5t-30 -47.5t-11 -64v-328h-53v328q0 36 -11 64t-30 47.5t-43 29.5t-51 10t-51.5 -10.5t-43 -30t-29.5 -47.5t-11 -63v-328h-53v516h53
v-59q23 36 61.5 54.5t73.5 18.5q21 0 44.5 -5t45.5 -17t41 -31.5t31 -47.5q12 28 31 47.5t41 31.5t45.5 17t44.5 5z" />
    <glyph glyph-name="n" unicode="n" horiz-adv-x="549" 
d="M133 0h-53v516h53v-59q23 36 62.5 54.5t82.5 18.5q35 0 70 -10.5t63.5 -34.5t46.5 -62.5t18 -94.5v-328h-53v328q0 35 -11 63t-30 47.5t-46 30t-58 10.5q-32 0 -58.5 -10.5t-45.5 -30t-30 -47.5t-11 -63v-328z" />
    <glyph glyph-name="o" unicode="o" horiz-adv-x="528" 
d="M462 192q0 -56 -18 -94.5t-46.5 -62.5t-63.5 -34.5t-70 -10.5t-70 10.5t-63.5 34.5t-46.5 62.5t-18 94.5v136q0 56 18 94.5t46.5 62.5t63.5 34.5t70 10.5t70 -10.5t63.5 -34.5t46.5 -62.5t18 -94.5v-136zM409 328q0 35 -11 63t-30 47.5t-46 30t-58 10.5
q-32 0 -58.5 -10.5t-45.5 -30t-30 -47.5t-11 -63v-136q0 -35 11 -63t30 -47.5t45.5 -30t58.5 -10.5q31 0 58 10.5t46 30t30 47.5t11 63v136z" />
    <glyph glyph-name="p" unicode="p" horiz-adv-x="542" 
d="M80 516h53v-59q23 36 62.5 54.5t82.5 18.5q35 0 70 -10.5t63.5 -34.5t46.5 -62.5t18 -94.5v-136q0 -56 -18 -94.5t-46.5 -62.5t-63.5 -34.5t-70 -10.5q-43 0 -82.5 18.5t-62.5 54.5v-247h-53v700zM133 192q0 -35 11 -63t30 -47.5t45.5 -30t58.5 -10.5q31 0 58 10.5t46 30
t30 47.5t11 63v136q0 35 -11 63t-30 47.5t-46 30t-58 10.5q-32 0 -58.5 -10.5t-45.5 -30t-30 -47.5t-11 -63v-136z" />
    <glyph glyph-name="q" unicode="q" horiz-adv-x="542" 
d="M462 -184h-53v247q-23 -36 -62.5 -54.5t-82.5 -18.5q-35 0 -70 10.5t-63.5 34.5t-46.5 62.5t-18 94.5v136q0 56 18 94.5t46.5 62.5t63.5 34.5t70 10.5q43 0 82.5 -18.5t62.5 -54.5v59h53v-700zM409 328q0 35 -11 63t-30 47.5t-46 30t-58 10.5q-32 0 -58.5 -10.5
t-45.5 -30t-30 -47.5t-11 -63v-136q0 -35 11 -63t30 -47.5t45.5 -30t58.5 -10.5q31 0 58 10.5t46 30t30 47.5t11 63v136z" />
    <glyph glyph-name="r" unicode="r" horiz-adv-x="315" 
d="M278 474q-32 0 -58.5 -10.5t-45.5 -30t-30 -47.5t-11 -63v-323h-53v516h53v-64q23 36 62.5 54.5t82.5 18.5h15v-51h-15z" />
    <glyph glyph-name="s" unicode="s" horiz-adv-x="484" 
d="M369 368q-5 53 -43 82t-92 29q-24 0 -46.5 -5t-40 -16t-28.5 -28t-11 -41q0 -35 20.5 -55.5t68.5 -31.5l99 -22q73 -16 106.5 -51.5t33.5 -101.5q0 -67 -51 -102t-133 -35q-39 0 -75 9.5t-64.5 30t-47 53t-21.5 78.5h54q4 -33 18.5 -56t36.5 -37t48 -20.5t52 -6.5
t49.5 5.5t41.5 16t28.5 27t10.5 38.5q0 36 -20.5 61.5t-67.5 35.5l-116 26q-54 12 -89 44.5t-35 93.5q0 35 15 61.5t40.5 44t57.5 26.5t67 9q36 0 68.5 -10t58 -30t42 -50.5t19.5 -71.5h-54z" />
    <glyph glyph-name="t" unicode="t" horiz-adv-x="329" 
d="M157 103q0 -28 10 -40t44 -12h73v-51h-73q-32 0 -53 7t-33 20t-16.5 32t-4.5 44v362h-73v51h73v117h53v-117h127v-51h-127v-362z" />
    <glyph glyph-name="u" unicode="u" horiz-adv-x="542" 
d="M409 516h53v-516h-53v63q-23 -36 -63 -54.5t-78 -18.5q-33 0 -68 10.5t-63 34.5t-46 62.5t-18 94.5v324h53v-324q0 -35 11 -63t30 -47.5t45 -30t56 -10.5q29 0 55 10.5t45 30t30 47.5t11 63v324z" />
    <glyph glyph-name="v" unicode="v" horiz-adv-x="452" 
d="M384 516h57l-186 -516h-58l-186 516h57l158 -447z" />
    <glyph glyph-name="w" unicode="w" horiz-adv-x="676" 
d="M371 516l119 -443l113 443h55l-136 -516h-63l-121 453l-121 -453h-63l-136 516h55l113 -443l119 443h66z" />
    <glyph glyph-name="x" unicode="x" horiz-adv-x="460" 
d="M371 516h61l-167 -251l175 -265h-61l-149 227l-149 -227h-61l175 265l-167 251h61l141 -213z" />
    <glyph glyph-name="y" unicode="y" horiz-adv-x="452" 
d="M226 -81q-8 -22 -15.5 -40.5t-19 -32.5t-29.5 -22t-46 -8h-26v51h27q28 0 38.5 15.5t19.5 40.5l25 70l-189 523h57l158 -447l158 447h57z" />
    <glyph glyph-name="z" unicode="z" horiz-adv-x="477" 
d="M108 51h326v-51h-390v51l320 414h-313v51h376v-51z" />
    <glyph glyph-name="braceleft" unicode="{" horiz-adv-x="294" 
d="M59 283v42h10q40 0 52 15t12 46v211q0 25 4.5 44t16.5 32t33 20t53 7h10v-42h-10q-40 0 -52 -15t-12 -46v-211q0 -28 -7.5 -49.5t-26.5 -32.5q19 -12 26.5 -33.5t7.5 -48.5v-211q0 -31 12 -46t52 -15h10v-42h-10q-32 0 -53 7t-33 20t-16.5 32t-4.5 44v211q0 31 -12 46
t-52 15h-10z" />
    <glyph glyph-name="bar" unicode="|" horiz-adv-x="213" 
d="M85 700h43v-800h-43v800z" />
    <glyph glyph-name="braceright" unicode="}" horiz-adv-x="294" 
d="M225 283q-40 0 -52 -15t-12 -46v-211q0 -25 -4.5 -44t-16.5 -32t-33 -20t-53 -7h-10v42h10q40 0 52 15t12 46v211q0 27 7.5 48.5t26.5 33.5q-19 11 -26.5 32.5t-7.5 49.5v211q0 31 -12 46t-52 15h-10v42h10q32 0 53 -7t33 -20t16.5 -32t4.5 -44v-211q0 -31 12 -46t52 -15
h10v-42h-10z" />
    <glyph glyph-name="asciitilde" unicode="~" horiz-adv-x="526" 
d="M65 268q23 26 56 42t62 16q23 0 44.5 -7t41.5 -16t38.5 -16t35.5 -7q14 0 37.5 10t50.5 36l30 -33q-23 -26 -56 -42t-62 -16q-23 0 -44.5 7t-41.5 16t-38.5 16t-35.5 7q-14 0 -37.5 -10t-50.5 -36z" />
    <glyph glyph-name="uni00A0" unicode="&#xa0;" horiz-adv-x="230" 
 />
    <glyph glyph-name="exclamdown" unicode="&#xa1;" horiz-adv-x="234" 
d="M144 306v-490h-53v490h53zM75 516h84v-84h-84v84z" />
    <glyph glyph-name="cent" unicode="&#xa2;" horiz-adv-x="526" 
d="M248 -9q-33 3 -64.5 15t-56.5 36t-40.5 61t-15.5 89v136q0 52 15.5 89t40.5 61t56.5 36t64.5 15v91h43v-91q30 -3 59 -13.5t53 -31t40.5 -51t21.5 -73.5h-54q-8 50 -40 80.5t-80 36.5v-435q48 6 80 36.5t40 81.5h54q-5 -43 -21.5 -74t-40.5 -51t-53 -30.5t-59 -13.5v-91
h-43v91zM124 192q0 -64 34.5 -103.5t89.5 -46.5v436q-55 -7 -89.5 -46.5t-34.5 -103.5v-136z" />
    <glyph glyph-name="sterling" unicode="&#xa3;" horiz-adv-x="590" 
d="M70 51h16q30 1 39 13.5t9 38.5v226h-64v43h64v136q0 56 18 94.5t46.5 62.5t63.5 34.5t70 10.5t70 -10.5t63.5 -34.5t46.5 -62.5t18 -94.5h-53q0 35 -11 63t-30 47.5t-46 30t-58 10.5q-32 0 -58.5 -10.5t-45.5 -30t-30 -47.5t-11 -63v-136h290v-43h-290v-226q0 -15 -2 -29
t-10 -23h355v-51h-460v51z" />
    <glyph glyph-name="currency" unicode="&#xa4;" horiz-adv-x="720" 
d="M90 340q0 51 17 95.5t47 79.5l-84 85l31 30l84 -85q35 31 79.5 48t95.5 17t95.5 -17t79.5 -48l84 85l31 -30l-85 -85q31 -35 48 -79.5t17 -95.5t-17 -95.5t-48 -79.5l85 -85l-31 -30l-84 84q-35 -30 -79.5 -47t-95.5 -17t-95.5 17t-79.5 47l-84 -84l-31 30l84 85
q-30 35 -47 79.5t-17 95.5zM141 340q0 -45 17 -85t47 -70t70 -47t85 -17t85 17t70 47t47 70t17 85t-17 85t-47 70t-70 47t-85 17t-85 -17t-70 -47t-47 -70t-17 -85z" />
    <glyph glyph-name="yen" unicode="&#xa5;" horiz-adv-x="586" 
d="M241 334l-212 366h58l206 -356l206 356h58l-213 -366h146v-43h-171v-102h171v-43h-171v-146h-53v146h-171v43h171v102h-171v43h146z" />
    <glyph glyph-name="brokenbar" unicode="&#xa6;" horiz-adv-x="213" 
d="M85 239h43v-339h-43v339zM85 700h43v-339h-43v339z" />
    <glyph glyph-name="section" unicode="&#xa7;" horiz-adv-x="554" 
d="M204 122q-20 7 -43.5 18t-44.5 29t-35 45t-14 67q0 52 27 86.5t74 50.5q-29 20 -48.5 52t-19.5 81q0 35 13.5 64.5t37 50.5t55.5 32.5t69 11.5q72 0 121.5 -42.5t60.5 -119.5h-45q-8 54 -44 87t-93 33q-25 0 -48 -8t-41 -23t-29.5 -37t-11.5 -49q0 -45 24.5 -73.5
t62.5 -41.5l116 -40q20 -7 44 -18t45 -29t35.5 -45.5t14.5 -67.5q0 -54 -28.5 -88t-75.5 -50q29 -21 49.5 -55.5t20.5 -84.5q0 -30 -9 -57.5t-29 -48.5t-53.5 -33.5t-81.5 -12.5q-42 0 -75 13t-56.5 36t-37 54.5t-17.5 68.5h45q6 -58 45 -94t96 -36q68 0 98 32.5t30 77.5
t-24 78t-63 46zM234 388q-21 -2 -43 -7.5t-39 -18t-28.5 -32t-11.5 -49.5q0 -25 8 -43.5t22 -32t33 -23.5t40 -17l103 -36q21 1 43 7t40 18.5t29.5 32t11.5 49.5q0 49 -30 76t-73 41z" />
    <glyph glyph-name="dieresis" unicode="&#xa8;" horiz-adv-x="410" 
d="M125 592h-53v87h53v-87zM338 592h-53v87h53v-87z" />
    <glyph glyph-name="copyright" unicode="&#xa9;" horiz-adv-x="820" 
d="M50 350q0 75 28.5 140.5t77 114t114 77t140.5 28.5t140.5 -28.5t114 -77t77 -114t28.5 -140.5t-28.5 -140.5t-77 -114t-114 -77t-140.5 -28.5t-140.5 28.5t-114 77t-77 114t-28.5 140.5zM93 350q0 -66 25 -123.5t67.5 -101t100.5 -68.5t124 -25t124 25t100.5 68.5
t67.5 101t25 123.5t-25 123.5t-67.5 101t-100.5 68.5t-124 25t-124 -25t-100.5 -68.5t-67.5 -101t-25 -123.5zM410 125q-62 0 -101 39.5t-39 108.5v153q0 69 39 108.5t101 39.5q59 0 96.5 -35.5t42.5 -98.5h-43q-4 46 -31 69t-65 23q-41 0 -69 -26.5t-28 -79.5v-153
q0 -54 28 -80t69 -26q38 0 65 23t31 69h43q-5 -63 -42.5 -98.5t-96.5 -35.5z" />
    <glyph glyph-name="ordfeminine" unicode="&#xaa;" horiz-adv-x="312" 
d="M132 395q-19 0 -37 5.5t-31.5 16.5t-22 27.5t-8.5 39.5q0 11 3 24t10 25t19.5 21.5t32.5 15.5q26 8 58 11.5t70 5.5v5q0 38 -22.5 56.5t-51.5 18.5q-26 0 -46.5 -14.5t-25.5 -43.5h-44q3 28 14 47t27 30.5t35.5 16.5t39.5 5q21 0 42 -6t37.5 -19.5t27 -36t10.5 -55.5
v-190h-43v31q-14 -19 -38.5 -28t-55.5 -9zM142 437q35 0 59.5 18.5t24.5 53.5v39q-49 -3 -78.5 -7.5t-44.5 -12.5q-17 -9 -22 -19t-5 -24q0 -20 16 -34t50 -14z" />
    <glyph glyph-name="guillemotleft" unicode="&#xab;" horiz-adv-x="461" 
d="M62 246v54l162 143v-59l-126 -111l126 -111v-59zM229 246v54l162 143v-59l-126 -111l126 -111v-59z" />
    <glyph glyph-name="logicalnot" unicode="&#xac;" 
d="M81 303h396v-221h-45v176h-351v45z" />
    <glyph glyph-name="uni00AD" unicode="&#xad;" horiz-adv-x="410" 
d="M60 258v45h290v-45h-290z" />
    <glyph glyph-name="registered" unicode="&#xae;" horiz-adv-x="820" 
d="M50 350q0 75 28.5 140.5t77 114t114 77t140.5 28.5t140.5 -28.5t114 -77t77 -114t28.5 -140.5t-28.5 -140.5t-77 -114t-114 -77t-140.5 -28.5t-140.5 28.5t-114 77t-77 114t-28.5 140.5zM93 350q0 -66 25 -123.5t67.5 -101t100.5 -68.5t124 -25t124 25t100.5 68.5
t67.5 101t25 123.5t-25 123.5t-67.5 101t-100.5 68.5t-124 25t-124 -25t-100.5 -68.5t-67.5 -101t-25 -123.5zM526 131l-118 200h-76v-200h-43v437h149q32 0 55 -10t38 -26.5t22.5 -38t7.5 -44.5q0 -42 -25 -76.5t-79 -40.5l119 -201h-50zM332 373h106q36 0 58 20.5t22 55.5
t-22 55.5t-58 20.5h-106v-152z" />
    <glyph glyph-name="macron" unicode="&#xaf;" horiz-adv-x="427" 
d="M69 613v45h289v-45h-289z" />
    <glyph glyph-name="degree" unicode="&#xb0;" horiz-adv-x="424" 
d="M56 549q0 32 12.5 60.5t33.5 49.5t49.5 33.5t60.5 12.5t60.5 -12.5t49.5 -33.5t33.5 -49.5t12.5 -60.5t-12.5 -60.5t-33.5 -49.5t-49.5 -33.5t-60.5 -12.5t-60.5 12.5t-49.5 33.5t-33.5 49.5t-12.5 60.5zM101 549q0 -23 8.5 -43.5t23.5 -35.5t35.5 -24t43.5 -9t43.5 9
t35.5 24t23.5 35.5t8.5 43.5t-8.5 43.5t-23.5 35.5t-35.5 24t-43.5 9t-43.5 -9t-35.5 -24t-23.5 -35.5t-8.5 -43.5z" />
    <glyph glyph-name="plusminus" unicode="&#xb1;" 
d="M81 317v45h176v154h45v-154h175v-45h-175v-154h-45v154h-176zM81 0v45h396v-45h-396z" />
    <glyph glyph-name="twosuperior" unicode="&#xb2;" horiz-adv-x="299" 
d="M31 442l155 178q15 17 25.5 36t10.5 42q0 36 -22.5 54.5t-51.5 18.5t-51.5 -18.5t-22.5 -56.5v-11h-43v11q0 33 10.5 55.5t27 36t37.5 19.5t42 6t42 -6t37.5 -19.5t27 -36t10.5 -54.5t-12.5 -55.5t-35.5 -50.5l-130 -149h178v-41h-234v41z" />
    <glyph glyph-name="threesuperior" unicode="&#xb3;" horiz-adv-x="302" 
d="M150 395q-21 0 -42.5 6t-39 19.5t-28 36t-10.5 55.5v5h43v-5q0 -38 23 -56.5t54 -18.5q32 0 51.5 18.5t19.5 53.5q0 29 -18.5 52.5t-52.5 23.5h-29v41h29q31 0 51 19t20 54q0 34 -21.5 53t-52.5 19q-29 0 -51.5 -18.5t-22.5 -56.5v-5h-43v5q0 33 10.5 55.5t27.5 36
t37.5 19.5t41.5 6q22 0 43.5 -6.5t38 -20t26.5 -35.5t10 -52q0 -34 -15 -58.5t-35 -35.5q20 -11 35 -36t15 -60q0 -30 -10 -52t-26.5 -35.5t-37 -20t-41.5 -6.5z" />
    <glyph glyph-name="acute" unicode="&#xb4;" horiz-adv-x="298" 
d="M240 700l-118 -129h-51l85 129h84z" />
    <glyph glyph-name="mu" unicode="&#xb5;" horiz-adv-x="548" 
d="M274 41q29 0 55 10.5t45 30t30 47.5t11 63v324h53v-516h-53v63q-23 -36 -63 -54.5t-78 -18.5t-78 18.5t-63 54.5v-247h-53v700h53v-324q0 -35 11 -63t30 -47.5t45 -30t55 -10.5z" />
    <glyph glyph-name="mu" unicode="&#x3bc;" horiz-adv-x="548" 
d="M274 41q29 0 55 10.5t45 30t30 47.5t11 63v324h53v-516h-53v63q-23 -36 -63 -54.5t-78 -18.5t-78 18.5t-63 54.5v-247h-53v700h53v-324q0 -35 11 -63t30 -47.5t45 -30t55 -10.5z" />
    <glyph glyph-name="paragraph" unicode="&#xb6;" horiz-adv-x="533" 
d="M443 -87h-43v745h-110v-745h-43v387h-10q-41 0 -77.5 16t-63.5 43t-42.5 63.5t-15.5 77.5t15.5 77.5t42.5 63.5t63.5 43t77.5 16h206v-787z" />
    <glyph glyph-name="periodcentered" unicode="&#xb7;" horiz-adv-x="274" 
d="M95 332h84v-84h-84v84z" />
    <glyph glyph-name="cedilla" unicode="&#xb8;" horiz-adv-x="249" 
d="M118 0h49l-38 -158h-69z" />
    <glyph glyph-name="onesuperior" unicode="&#xb9;" horiz-adv-x="204" 
d="M108 750l-78 -67v57l78 67h43v-406h-43v349z" />
    <glyph glyph-name="ordmasculine" unicode="&#xba;" horiz-adv-x="311" 
d="M156 437q29 0 51.5 18.5t22.5 56.5v80q0 38 -22.5 56.5t-51.5 18.5q-30 0 -52 -18.5t-22 -56.5v-80q0 -38 22 -56.5t52 -18.5zM156 395q-21 0 -42 6t-38 19.5t-27.5 36t-10.5 55.5v79q0 33 10.5 55.5t27.5 36t38 19.5t42 6t41.5 -6t37.5 -19.5t27.5 -36t10.5 -55.5v-79
q0 -33 -10.5 -55.5t-27.5 -36t-37.5 -19.5t-41.5 -6z" />
    <glyph glyph-name="guillemotright" unicode="&#xbb;" horiz-adv-x="461" 
d="M70 103v59l126 111l-126 111v59l162 -143v-54zM237 103v59l126 111l-126 111v59l162 -143v-54z" />
    <glyph glyph-name="onequarter" unicode="&#xbc;" horiz-adv-x="666" 
d="M148 643l-78 -67v57l78 67h43v-406h-43v349zM593 700l-481 -700h-48l481 700h48zM541 110h-186v41l186 255h43v-255h43v-41h-43v-110h-43v110zM541 151v185l-135 -185h135z" />
    <glyph glyph-name="onehalf" unicode="&#xbd;" horiz-adv-x="718" 
d="M148 643l-78 -67v57l78 67h43v-406h-43v349zM593 700l-481 -700h-48l481 700h48zM424 41l155 178q15 17 25.5 36t10.5 42q0 36 -22.5 54.5t-51.5 18.5t-51.5 -18.5t-22.5 -56.5v-11h-43v11q0 33 10.5 55.5t27 36t37.5 19.5t42 6t42 -6t37.5 -19.5t27 -36t10.5 -54.5
t-12.5 -55.5t-35.5 -50.5l-130 -149h178v-41h-234v41z" />
    <glyph glyph-name="threequarters" unicode="&#xbe;" horiz-adv-x="724" 
d="M170 288q-21 0 -42.5 6t-39 19.5t-28 36t-10.5 55.5v5h43v-5q0 -38 23 -56.5t54 -18.5q32 0 51.5 18.5t19.5 53.5q0 29 -18.5 52.5t-52.5 23.5h-29v41h29q31 0 51 19t20 54q0 34 -21.5 53t-52.5 19q-29 0 -51.5 -18.5t-22.5 -56.5v-5h-43v5q0 33 10.5 55.5t27.5 36
t37.5 19.5t41.5 6q22 0 43.5 -6.5t38 -20t26.5 -35.5t10 -52q0 -34 -15 -58.5t-35 -35.5q20 -11 35 -36t15 -60q0 -30 -10 -52t-26.5 -35.5t-37 -20t-41.5 -6.5zM651 700l-481 -700h-48l481 700h48zM599 110h-186v41l186 255h43v-255h43v-41h-43v-110h-43v110zM599 151v185
l-135 -185h135z" />
    <glyph glyph-name="questiondown" unicode="&#xbf;" horiz-adv-x="486" 
d="M449 8q0 -56 -18 -94.5t-46.5 -62.5t-63.5 -34.5t-70 -10.5t-70 10.5t-63.5 34.5t-46.5 62.5t-18 94.5q0 49 23 88t53 66l60 55q23 21 29.5 34t6.5 33v22h53v-22q0 -28 -11 -51.5t-42 -51.5l-60 -55q-25 -23 -42 -53t-17 -65t11 -63t30 -47.5t45.5 -30t58.5 -10.5
q31 0 58 10.5t46 30t30 47.5t11 63v8h53v-8zM209 516h84v-84h-84v84z" />
    <glyph glyph-name="Agrave" unicode="&#xc0;" horiz-adv-x="564" 
d="M415 217h-266l-74 -217h-56l238 700h50l238 -700h-56zM398 268l-116 341l-116 -341h232zM244 854l100 -109h-58l-128 109h86z" />
    <glyph glyph-name="Aacute" unicode="&#xc1;" horiz-adv-x="564" 
d="M415 217h-266l-74 -217h-56l238 700h50l238 -700h-56zM398 268l-116 341l-116 -341h232zM406 854l-128 -109h-58l100 109h86z" />
    <glyph glyph-name="Acircumflex" unicode="&#xc2;" horiz-adv-x="564" 
d="M415 217h-266l-74 -217h-56l238 700h50l238 -700h-56zM398 268l-116 341l-116 -341h232zM433 745h-72l-79 63l-79 -63h-72l125 109h52z" />
    <glyph glyph-name="Atilde" unicode="&#xc3;" horiz-adv-x="564" 
d="M415 217h-266l-74 -217h-56l238 700h50l238 -700h-56zM398 268l-116 341l-116 -341h232zM230 845q11 0 22 -2.5t23 -9.5l33 -17q8 -4 15 -7t14 -3q27 0 44 37h56q-9 -29 -21.5 -46.5t-26 -26.5t-28 -12t-26.5 -3q-11 0 -22 2.5t-23 9.5l-33 17q-8 4 -15 7t-14 3
q-27 0 -44 -37h-56q9 29 21.5 46.5t26 26.5t28 12t26.5 3z" />
    <glyph glyph-name="Adieresis" unicode="&#xc4;" horiz-adv-x="564" 
d="M415 217h-266l-74 -217h-56l238 700h50l238 -700h-56zM398 268l-116 341l-116 -341h232zM204 756h-55v87h55v-87zM415 756h-55v87h55v-87z" />
    <glyph glyph-name="Aring" unicode="&#xc5;" horiz-adv-x="564" 
d="M415 217h-266l-74 -217h-56l238 700h50l238 -700h-56zM398 268l-116 341l-116 -341h232zM208 799q0 31 21.5 53t52.5 22t53 -22t22 -53t-22 -52.5t-53 -21.5t-52.5 21.5t-21.5 52.5zM253 799q0 -12 8.5 -20.5t20.5 -8.5t21 8.5t9 20.5t-9 21t-21 9t-20.5 -9t-8.5 -21z
" />
    <glyph glyph-name="AE" unicode="&#xc6;" horiz-adv-x="824" 
d="M423 54h332v-54h-387v217h-198l-100 -217h-58l322 700h421v-54h-332v-265h332v-53h-332v-274zM368 268v380l-175 -380h175z" />
    <glyph glyph-name="Ccedilla" unicode="&#xc7;" horiz-adv-x="559" 
d="M505 200q-4 -49 -22 -88t-47.5 -66t-67.5 -41.5t-83 -14.5q-48 0 -88.5 16.5t-70 47t-46 74.5t-16.5 99v246q0 55 16.5 99t46 74.5t70 47t88.5 16.5q45 0 83 -14.5t67.5 -41.5t47.5 -66t22 -88h-55q-4 40 -18.5 69t-36.5 48.5t-50.5 29t-59.5 9.5q-34 0 -64.5 -11
t-53 -34t-35.5 -57.5t-13 -80.5v-246q0 -47 13 -81t35.5 -57t53 -34t64.5 -11q31 0 59.5 9.5t50.5 29t36.5 48.5t18.5 69h55zM264 0h56l-38 -158h-71z" />
    <glyph glyph-name="Egrave" unicode="&#xc8;" horiz-adv-x="541" 
d="M140 54h332v-54h-387v700h387v-54h-332v-265h332v-53h-332v-274zM240 854l100 -109h-58l-128 109h86z" />
    <glyph glyph-name="Eacute" unicode="&#xc9;" horiz-adv-x="541" 
d="M140 54h332v-54h-387v700h387v-54h-332v-265h332v-53h-332v-274zM402 854l-128 -109h-58l100 109h86z" />
    <glyph glyph-name="Ecircumflex" unicode="&#xca;" horiz-adv-x="541" 
d="M140 54h332v-54h-387v700h387v-54h-332v-265h332v-53h-332v-274zM429 745h-72l-79 63l-79 -63h-72l125 109h52z" />
    <glyph glyph-name="Edieresis" unicode="&#xcb;" horiz-adv-x="541" 
d="M140 54h332v-54h-387v700h387v-54h-332v-265h332v-53h-332v-274zM200 756h-55v87h55v-87zM411 756h-55v87h55v-87z" />
    <glyph glyph-name="Igrave" unicode="&#xcc;" horiz-adv-x="225" 
d="M140 0h-55v700h55v-700zM75 854l100 -109h-58l-128 109h86z" />
    <glyph glyph-name="Iacute" unicode="&#xcd;" horiz-adv-x="225" 
d="M140 0h-55v700h55v-700zM237 854l-128 -109h-58l100 109h86z" />
    <glyph glyph-name="Icircumflex" unicode="&#xce;" horiz-adv-x="225" 
d="M140 0h-55v700h55v-700zM264 745h-72l-79 63l-79 -63h-72l125 109h52z" />
    <glyph glyph-name="Idieresis" unicode="&#xcf;" horiz-adv-x="225" 
d="M140 0h-55v700h55v-700zM35 756h-55v87h55v-87zM245 756h-55v87h55v-87z" />
    <glyph glyph-name="Eth" unicode="&#xd0;" horiz-adv-x="602" 
d="M538 237q0 -55 -16.5 -99t-46 -74.5t-70 -47t-88.5 -16.5h-221v328h-70v45h70v327h221q48 0 88.5 -16.5t70 -47t46 -74.5t16.5 -99v-226zM151 373h166v-45h-166v-274h166q34 0 64.5 11t53 34t35.5 57t13 81v226q0 46 -13 80.5t-35.5 57.5t-53 34t-64.5 11h-166v-273z" />
    <glyph glyph-name="Ntilde" unicode="&#xd1;" horiz-adv-x="612" 
d="M527 0h-55l-332 591v-591h-55v700h55l332 -591v591h55v-700zM254 845q11 0 22 -2.5t23 -9.5l33 -17q8 -4 15 -7t14 -3q27 0 44 37h56q-9 -29 -21.5 -46.5t-26 -26.5t-28 -12t-26.5 -3q-11 0 -22 2.5t-23 9.5l-33 17q-8 4 -15 7t-14 3q-27 0 -44 -37h-56q9 29 21.5 46.5
t26 26.5t28 12t26.5 3z" />
    <glyph glyph-name="Ograve" unicode="&#xd2;" horiz-adv-x="570" 
d="M506 227q0 -55 -16.5 -99t-46 -74.5t-70 -47t-88.5 -16.5t-88.5 16.5t-70 47t-46 74.5t-16.5 99v246q0 55 16.5 99t46 74.5t70 47t88.5 16.5t88.5 -16.5t70 -47t46 -74.5t16.5 -99v-246zM119 227q0 -47 13 -81t35.5 -57t53 -34t64.5 -11t64.5 11t53 34t35.5 57t13 81v246
q0 46 -13 80.5t-35.5 57.5t-53 34t-64.5 11t-64.5 -11t-53 -34t-35.5 -57.5t-13 -80.5v-246zM247 854l100 -109h-58l-128 109h86z" />
    <glyph glyph-name="Oacute" unicode="&#xd3;" horiz-adv-x="570" 
d="M506 227q0 -55 -16.5 -99t-46 -74.5t-70 -47t-88.5 -16.5t-88.5 16.5t-70 47t-46 74.5t-16.5 99v246q0 55 16.5 99t46 74.5t70 47t88.5 16.5t88.5 -16.5t70 -47t46 -74.5t16.5 -99v-246zM119 227q0 -47 13 -81t35.5 -57t53 -34t64.5 -11t64.5 11t53 34t35.5 57t13 81v246
q0 46 -13 80.5t-35.5 57.5t-53 34t-64.5 11t-64.5 -11t-53 -34t-35.5 -57.5t-13 -80.5v-246zM409 854l-128 -109h-58l100 109h86z" />
    <glyph glyph-name="Ocircumflex" unicode="&#xd4;" horiz-adv-x="570" 
d="M506 227q0 -55 -16.5 -99t-46 -74.5t-70 -47t-88.5 -16.5t-88.5 16.5t-70 47t-46 74.5t-16.5 99v246q0 55 16.5 99t46 74.5t70 47t88.5 16.5t88.5 -16.5t70 -47t46 -74.5t16.5 -99v-246zM119 227q0 -47 13 -81t35.5 -57t53 -34t64.5 -11t64.5 11t53 34t35.5 57t13 81v246
q0 46 -13 80.5t-35.5 57.5t-53 34t-64.5 11t-64.5 -11t-53 -34t-35.5 -57.5t-13 -80.5v-246zM436 745h-72l-79 63l-79 -63h-72l125 109h52z" />
    <glyph glyph-name="Otilde" unicode="&#xd5;" horiz-adv-x="570" 
d="M506 227q0 -55 -16.5 -99t-46 -74.5t-70 -47t-88.5 -16.5t-88.5 16.5t-70 47t-46 74.5t-16.5 99v246q0 55 16.5 99t46 74.5t70 47t88.5 16.5t88.5 -16.5t70 -47t46 -74.5t16.5 -99v-246zM119 227q0 -47 13 -81t35.5 -57t53 -34t64.5 -11t64.5 11t53 34t35.5 57t13 81v246
q0 46 -13 80.5t-35.5 57.5t-53 34t-64.5 11t-64.5 -11t-53 -34t-35.5 -57.5t-13 -80.5v-246zM233 845q11 0 22 -2.5t23 -9.5l33 -17q8 -4 15 -7t14 -3q27 0 44 37h56q-9 -29 -21.5 -46.5t-26 -26.5t-28 -12t-26.5 -3q-11 0 -22 2.5t-23 9.5l-33 17q-8 4 -15 7t-14 3
q-27 0 -44 -37h-56q9 29 21.5 46.5t26 26.5t28 12t26.5 3z" />
    <glyph glyph-name="Odieresis" unicode="&#xd6;" horiz-adv-x="570" 
d="M506 227q0 -55 -16.5 -99t-46 -74.5t-70 -47t-88.5 -16.5t-88.5 16.5t-70 47t-46 74.5t-16.5 99v246q0 55 16.5 99t46 74.5t70 47t88.5 16.5t88.5 -16.5t70 -47t46 -74.5t16.5 -99v-246zM119 227q0 -47 13 -81t35.5 -57t53 -34t64.5 -11t64.5 11t53 34t35.5 57t13 81v246
q0 46 -13 80.5t-35.5 57.5t-53 34t-64.5 11t-64.5 -11t-53 -34t-35.5 -57.5t-13 -80.5v-246zM207 756h-55v87h55v-87zM418 756h-55v87h55v-87z" />
    <glyph glyph-name="multiply" unicode="&#xd7;" 
d="M311 280l171 -169l-32 -32l-171 169l-170 -169l-32 32l170 169l-170 170l32 32l170 -170l171 170l32 -32z" />
    <glyph glyph-name="Oslash" unicode="&#xd8;" horiz-adv-x="576" 
d="M509 227q0 -55 -16.5 -99t-46 -74.5t-70 -47t-88.5 -16.5q-87 0 -147 52l-34 -61l-40 22l42 75q-20 29 -31 66.5t-11 82.5v246q0 55 16.5 99t46 74.5t70 47t88.5 16.5q43 0 80.5 -13.5t66.5 -39.5l35 63l39 -23l-43 -75q20 -29 31.5 -66.5t11.5 -82.5v-246zM122 227
q0 -55 18 -94l267 475q-23 24 -53.5 36t-65.5 12q-34 0 -64.5 -11t-53 -34t-35.5 -57.5t-13 -80.5v-246zM454 473q0 53 -19 93l-266 -475q23 -24 53.5 -35.5t65.5 -11.5q34 0 64.5 11t53 34t35.5 57t13 81v246z" />
    <glyph glyph-name="Ugrave" unicode="&#xd9;" horiz-adv-x="594" 
d="M76 700h55v-473q0 -47 13 -81t35.5 -57t53 -34t64.5 -11t64.5 11t53 34t35.5 57t13 81v473h55v-473q0 -55 -16.5 -99t-46 -74.5t-70 -47t-88.5 -16.5t-88.5 16.5t-70 47t-46 74.5t-16.5 99v473zM257 854l100 -109h-58l-128 109h86z" />
    <glyph glyph-name="Uacute" unicode="&#xda;" horiz-adv-x="594" 
d="M76 700h55v-473q0 -47 13 -81t35.5 -57t53 -34t64.5 -11t64.5 11t53 34t35.5 57t13 81v473h55v-473q0 -55 -16.5 -99t-46 -74.5t-70 -47t-88.5 -16.5t-88.5 16.5t-70 47t-46 74.5t-16.5 99v473zM421 854l-128 -109h-58l100 109h86z" />
    <glyph glyph-name="Ucircumflex" unicode="&#xdb;" horiz-adv-x="594" 
d="M76 700h55v-473q0 -47 13 -81t35.5 -57t53 -34t64.5 -11t64.5 11t53 34t35.5 57t13 81v473h55v-473q0 -55 -16.5 -99t-46 -74.5t-70 -47t-88.5 -16.5t-88.5 16.5t-70 47t-46 74.5t-16.5 99v473zM448 745h-72l-79 63l-79 -63h-72l125 109h52z" />
    <glyph glyph-name="Udieresis" unicode="&#xdc;" horiz-adv-x="594" 
d="M76 700h55v-473q0 -47 13 -81t35.5 -57t53 -34t64.5 -11t64.5 11t53 34t35.5 57t13 81v473h55v-473q0 -55 -16.5 -99t-46 -74.5t-70 -47t-88.5 -16.5t-88.5 16.5t-70 47t-46 74.5t-16.5 99v473zM219 756h-55v87h55v-87zM430 756h-55v87h55v-87z" />
    <glyph glyph-name="Yacute" unicode="&#xdd;" horiz-adv-x="543" 
d="M299 291v-291h-55v291l-236 409h61l203 -352l202 352h61zM395 854l-128 -109h-58l100 109h86z" />
    <glyph glyph-name="Thorn" unicode="&#xde;" horiz-adv-x="539" 
d="M140 147v-147h-55v700h55v-146h171q42 0 79 -13t64.5 -38.5t44 -63.5t16.5 -88t-16.5 -88.5t-44 -64t-64.5 -38.5t-79 -13h-171zM311 201q30 0 57 9.5t47.5 28.5t32.5 47t12 65t-12 64.5t-32.5 46.5t-47.5 28.5t-57 9.5h-171v-299h171z" />
    <glyph glyph-name="germandbls" unicode="&#xdf;" horiz-adv-x="529" 
d="M253 404q63 0 91.5 35t28.5 92t-28.5 92.5t-91.5 35.5t-91.5 -35t-28.5 -88v-536h-53v536q0 35 10 66.5t31 55.5t53.5 38t78.5 14t78.5 -14t53.5 -38.5t31 -57t10 -69.5q0 -46 -15.5 -84.5t-47.5 -62.5q53 -22 83 -68.5t30 -118.5q0 -52 -14 -90.5t-39.5 -64.5t-61 -39
t-78.5 -13q-30 0 -57 6v54q25 -9 57 -9q69 0 104.5 40.5t35.5 115.5q0 72 -40.5 114t-121.5 42h-35v51h27z" />
    <glyph glyph-name="agrave" unicode="&#xe0;" horiz-adv-x="527" 
d="M401 328q0 35 -11 63t-30 47.5t-46 30t-58 10.5q-56 0 -94.5 -31.5t-47.5 -87.5h-54q5 47 24.5 79.5t46.5 52.5t60 29t65 9q35 0 70 -10.5t63.5 -34.5t46.5 -62.5t18 -94.5v-328h-53v63q-25 -36 -69 -54.5t-103 -18.5q-42 0 -74 12t-54 33t-33 48.5t-11 58.5
q0 51 26 90.5t86 57.5q45 14 105.5 19.5t126.5 9.5v9zM401 272q-86 -5 -141.5 -11.5t-84.5 -20.5q-37 -17 -51 -40t-14 -54q0 -21 7 -40t22.5 -33.5t40.5 -23t61 -8.5q34 0 63.5 11t51 30.5t33.5 47.5t12 62v80zM141.991 700l117.993 -129h50.9971l-84.9951 129h-83.9951z
" />
    <glyph glyph-name="aacute" unicode="&#xe1;" horiz-adv-x="527" 
d="M401 328q0 35 -11 63t-30 47.5t-46 30t-58 10.5q-56 0 -94.5 -31.5t-47.5 -87.5h-54q5 47 24.5 79.5t46.5 52.5t60 29t65 9q35 0 70 -10.5t63.5 -34.5t46.5 -62.5t18 -94.5v-328h-53v63q-25 -36 -69 -54.5t-103 -18.5q-42 0 -74 12t-54 33t-33 48.5t-11 58.5
q0 51 26 90.5t86 57.5q45 14 105.5 19.5t126.5 9.5v9zM401 272q-86 -5 -141.5 -11.5t-84.5 -20.5q-37 -17 -51 -40t-14 -54q0 -21 7 -40t22.5 -33.5t40.5 -23t61 -8.5q34 0 63.5 11t51 30.5t33.5 47.5t12 62v80zM368 700l-118 -129h-51l85 129h84z" />
    <glyph glyph-name="acircumflex" unicode="&#xe2;" horiz-adv-x="527" 
d="M401 328q0 35 -11 63t-30 47.5t-46 30t-58 10.5q-56 0 -94.5 -31.5t-47.5 -87.5h-54q5 47 24.5 79.5t46.5 52.5t60 29t65 9q35 0 70 -10.5t63.5 -34.5t46.5 -62.5t18 -94.5v-328h-53v63q-25 -36 -69 -54.5t-103 -18.5q-42 0 -74 12t-54 33t-33 48.5t-11 58.5
q0 51 26 90.5t86 57.5q45 14 105.5 19.5t126.5 9.5v9zM401 272q-86 -5 -141.5 -11.5t-84.5 -20.5q-37 -17 -51 -40t-14 -54q0 -21 7 -40t22.5 -33.5t40.5 -23t61 -8.5q34 0 63.5 11t51 30.5t33.5 47.5t12 62v80zM260 654l-87 -83h-64l125 129h52l125 -129h-64z" />
    <glyph glyph-name="atilde" unicode="&#xe3;" horiz-adv-x="527" 
d="M401 328q0 35 -11 63t-30 47.5t-46 30t-58 10.5q-56 0 -94.5 -31.5t-47.5 -87.5h-54q5 47 24.5 79.5t46.5 52.5t60 29t65 9q35 0 70 -10.5t63.5 -34.5t46.5 -62.5t18 -94.5v-328h-53v63q-25 -36 -69 -54.5t-103 -18.5q-42 0 -74 12t-54 33t-33 48.5t-11 58.5
q0 51 26 90.5t86 57.5q45 14 105.5 19.5t126.5 9.5v9zM401 272q-86 -5 -141.5 -11.5t-84.5 -20.5q-37 -17 -51 -40t-14 -54q0 -21 7 -40t22.5 -33.5t40.5 -23t61 -8.5q34 0 63.5 11t51 30.5t33.5 47.5t12 62v80zM415 679q-9 -29 -21.5 -46.5t-26 -26.5t-28 -12t-26.5 -3
q-11 0 -22 2.5t-23 9.5l-33 19q-5 3 -13.5 6.5t-19.5 3.5t-23.5 -8t-23.5 -31h-49q9 29 21.5 46.5t26 26.5t28 12t26.5 3q11 0 22 -2.5t23 -9.5l33 -19q5 -3 13.5 -6.5t19.5 -3.5t23.5 8t23.5 31h49z" />
    <glyph glyph-name="adieresis" unicode="&#xe4;" horiz-adv-x="527" 
d="M401 328q0 35 -11 63t-30 47.5t-46 30t-58 10.5q-56 0 -94.5 -31.5t-47.5 -87.5h-54q5 47 24.5 79.5t46.5 52.5t60 29t65 9q35 0 70 -10.5t63.5 -34.5t46.5 -62.5t18 -94.5v-328h-53v63q-25 -36 -69 -54.5t-103 -18.5q-42 0 -74 12t-54 33t-33 48.5t-11 58.5
q0 51 26 90.5t86 57.5q45 14 105.5 19.5t126.5 9.5v9zM401 272q-86 -5 -141.5 -11.5t-84.5 -20.5q-37 -17 -51 -40t-14 -54q0 -21 7 -40t22.5 -33.5t40.5 -23t61 -8.5q34 0 63.5 11t51 30.5t33.5 47.5t12 62v80zM180 592h-53v87h53v-87zM393 592h-53v87h53v-87z" />
    <glyph glyph-name="aring" unicode="&#xe5;" horiz-adv-x="527" 
d="M401 328q0 35 -11 63t-30 47.5t-46 30t-58 10.5q-56 0 -94.5 -31.5t-47.5 -87.5h-54q5 47 24.5 79.5t46.5 52.5t60 29t65 9q35 0 70 -10.5t63.5 -34.5t46.5 -62.5t18 -94.5v-328h-53v63q-25 -36 -69 -54.5t-103 -18.5q-42 0 -74 12t-54 33t-33 48.5t-11 58.5
q0 51 26 90.5t86 57.5q45 14 105.5 19.5t126.5 9.5v9zM401 272q-86 -5 -141.5 -11.5t-84.5 -20.5q-37 -17 -51 -40t-14 -54q0 -21 7 -40t22.5 -33.5t40.5 -23t61 -8.5q34 0 63.5 11t51 30.5t33.5 47.5t12 62v80zM186 635q0 31 21.5 53t52.5 22t53 -22t22 -53t-22 -52.5
t-53 -21.5t-52.5 21.5t-21.5 52.5zM229 635q0 -13 9 -22t22 -9t22.5 9t9.5 22t-9.5 22.5t-22.5 9.5t-22 -9.5t-9 -22.5z" />
    <glyph glyph-name="ae" unicode="&#xe6;" horiz-adv-x="858" 
d="M454 304h290v24q0 35 -11 63t-30 47.5t-46 30t-58 10.5q-32 0 -58.5 -10.5t-45.5 -30t-30 -47.5t-11 -63v-24zM401 272q-86 -5 -141.5 -11.5t-84.5 -20.5q-37 -17 -51 -40t-14 -54q0 -21 7 -40t22.5 -33.5t40.5 -23t61 -8.5q34 0 63.5 11t51 30.5t33.5 47.5t12 62v80z
M454 192q0 -35 11 -63t30 -47.5t45.5 -30t58.5 -10.5q56 0 94.5 31.5t47.5 87.5h54q-5 -47 -24.5 -79.5t-46.5 -52.5t-60 -29t-65 -9q-26 0 -52 5.5t-50 18t-44 32t-33 48.5q-13 -28 -33.5 -47.5t-46 -32t-54 -18.5t-57.5 -6q-42 0 -74 12t-54 33t-33 48.5t-11 58.5
q0 51 26 90.5t86 57.5q45 14 105.5 19.5t126.5 9.5v9q0 35 -11 63t-30 47.5t-46 30t-58 10.5q-56 0 -94.5 -31.5t-47.5 -87.5h-54q5 47 24.5 79.5t46.5 52.5t60 29t65 9q56 0 102 -26.5t69 -73.5q23 47 69 73.5t103 26.5q35 0 70 -10.5t63.5 -34.5t46.5 -62.5t18 -94.5v-75
h-343v-61z" />
    <glyph glyph-name="ccedilla" unicode="&#xe7;" horiz-adv-x="516" 
d="M264 -10q-35 0 -70 10.5t-63.5 34.5t-46.5 62.5t-18 94.5v136q0 56 18 94.5t46.5 62.5t63.5 34.5t70 10.5q32 0 65 -9t60 -29t46.5 -52.5t24.5 -79.5h-54q-9 56 -47.5 87.5t-94.5 31.5q-32 0 -58.5 -10.5t-45.5 -30t-30 -47.5t-11 -63v-136q0 -35 11 -63t30 -47.5
t45.5 -30t58.5 -10.5q56 0 94.5 31.5t47.5 87.5h54q-5 -47 -24.5 -79.5t-46.5 -52.5t-60 -29t-65 -9zM249 0h49l-38 -158h-69z" />
    <glyph glyph-name="egrave" unicode="&#xe8;" horiz-adv-x="523" 
d="M119 192q0 -35 11 -63t30 -47.5t45.5 -30t58.5 -10.5q56 0 94.5 31.5t47.5 87.5h54q-5 -47 -24.5 -79.5t-46.5 -52.5t-60 -29t-65 -9q-35 0 -70 10.5t-63.5 34.5t-46.5 62.5t-18 94.5v136q0 56 18 94.5t46.5 62.5t63.5 34.5t70 10.5t70 -10.5t63.5 -34.5t46.5 -62.5
t18 -94.5v-75h-343v-61zM119 304h290v24q0 35 -11 63t-30 47.5t-46 30t-58 10.5q-32 0 -58.5 -10.5t-45.5 -30t-30 -47.5t-11 -63v-24zM150.991 700l117.992 -129h50.9971l-84.9951 129h-83.9941z" />
    <glyph glyph-name="eacute" unicode="&#xe9;" horiz-adv-x="523" 
d="M119 192q0 -35 11 -63t30 -47.5t45.5 -30t58.5 -10.5q56 0 94.5 31.5t47.5 87.5h54q-5 -47 -24.5 -79.5t-46.5 -52.5t-60 -29t-65 -9q-35 0 -70 10.5t-63.5 34.5t-46.5 62.5t-18 94.5v136q0 56 18 94.5t46.5 62.5t63.5 34.5t70 10.5t70 -10.5t63.5 -34.5t46.5 -62.5
t18 -94.5v-75h-343v-61zM119 304h290v24q0 35 -11 63t-30 47.5t-46 30t-58 10.5q-32 0 -58.5 -10.5t-45.5 -30t-30 -47.5t-11 -63v-24zM377 700l-118 -129h-51l85 129h84z" />
    <glyph glyph-name="ecircumflex" unicode="&#xea;" horiz-adv-x="523" 
d="M119 192q0 -35 11 -63t30 -47.5t45.5 -30t58.5 -10.5q56 0 94.5 31.5t47.5 87.5h54q-5 -47 -24.5 -79.5t-46.5 -52.5t-60 -29t-65 -9q-35 0 -70 10.5t-63.5 34.5t-46.5 62.5t-18 94.5v136q0 56 18 94.5t46.5 62.5t63.5 34.5t70 10.5t70 -10.5t63.5 -34.5t46.5 -62.5
t18 -94.5v-75h-343v-61zM119 304h290v24q0 35 -11 63t-30 47.5t-46 30t-58 10.5q-32 0 -58.5 -10.5t-45.5 -30t-30 -47.5t-11 -63v-24zM264 654l-87 -83h-64l125 129h52l125 -129h-64z" />
    <glyph glyph-name="edieresis" unicode="&#xeb;" horiz-adv-x="523" 
d="M119 192q0 -35 11 -63t30 -47.5t45.5 -30t58.5 -10.5q56 0 94.5 31.5t47.5 87.5h54q-5 -47 -24.5 -79.5t-46.5 -52.5t-60 -29t-65 -9q-35 0 -70 10.5t-63.5 34.5t-46.5 62.5t-18 94.5v136q0 56 18 94.5t46.5 62.5t63.5 34.5t70 10.5t70 -10.5t63.5 -34.5t46.5 -62.5
t18 -94.5v-75h-343v-61zM119 304h290v24q0 35 -11 63t-30 47.5t-46 30t-58 10.5q-32 0 -58.5 -10.5t-45.5 -30t-30 -47.5t-11 -63v-24zM184 592h-53v87h53v-87zM397 592h-53v87h53v-87z" />
    <glyph glyph-name="igrave" unicode="&#xec;" horiz-adv-x="213" 
d="M133 516v-516h-53v516h53zM-7 700l117.993 -129h50.9971l-84.9951 129h-83.9951z" />
    <glyph glyph-name="iacute" unicode="&#xed;" horiz-adv-x="213" 
d="M133 516v-516h-53v516h53zM220 700l-118 -129h-51l85 129h84z" />
    <glyph glyph-name="icircumflex" unicode="&#xee;" horiz-adv-x="213" 
d="M133 516v-516h-53v516h53zM107 654l-87 -83h-64l125 129h52l125 -129h-64z" />
    <glyph glyph-name="idieresis" unicode="&#xef;" horiz-adv-x="213" 
d="M133 516v-516h-53v516h53zM27 592h-53v87h53v-87zM240 592h-53v87h53v-87z" />
    <glyph glyph-name="eth" unicode="&#xf0;" horiz-adv-x="528" 
d="M330 585l86 -118q19 -26 32.5 -59t13.5 -80v-136q0 -56 -18 -94.5t-46.5 -62.5t-63.5 -34.5t-70 -10.5t-70 10.5t-63.5 34.5t-46.5 62.5t-18 94.5v136q0 56 18 94.5t46.5 62.5t63.5 34.5t70 10.5q11 0 21.5 -1t21.5 -3l-43 59h-125v43h93l-52 72h66l52 -72h83v-43h-51z
M409 328q0 35 -11 63t-30 47.5t-46 30t-58 10.5q-32 0 -58.5 -10.5t-45.5 -30t-30 -47.5t-11 -63v-136q0 -35 11 -63t30 -47.5t45.5 -30t58.5 -10.5q31 0 58 10.5t46 30t30 47.5t11 63v136z" />
    <glyph glyph-name="ntilde" unicode="&#xf1;" horiz-adv-x="549" 
d="M133 0h-53v516h53v-59q23 36 62.5 54.5t82.5 18.5q35 0 70 -10.5t63.5 -34.5t46.5 -62.5t18 -94.5v-328h-53v328q0 35 -11 63t-30 47.5t-46 30t-58 10.5q-32 0 -58.5 -10.5t-45.5 -30t-30 -47.5t-11 -63v-328zM433 679q-9 -29 -21.5 -46.5t-26 -26.5t-28 -12t-26.5 -3
q-11 0 -22 2.5t-23 9.5l-33 19q-5 3 -13.5 6.5t-19.5 3.5t-23.5 -8t-23.5 -31h-49q9 29 21.5 46.5t26 26.5t28 12t26.5 3q11 0 22 -2.5t23 -9.5l33 -19q5 -3 13.5 -6.5t19.5 -3.5t23.5 8t23.5 31h49z" />
    <glyph glyph-name="ograve" unicode="&#xf2;" horiz-adv-x="528" 
d="M462 192q0 -56 -18 -94.5t-46.5 -62.5t-63.5 -34.5t-70 -10.5t-70 10.5t-63.5 34.5t-46.5 62.5t-18 94.5v136q0 56 18 94.5t46.5 62.5t63.5 34.5t70 10.5t70 -10.5t63.5 -34.5t46.5 -62.5t18 -94.5v-136zM409 328q0 35 -11 63t-30 47.5t-46 30t-58 10.5
q-32 0 -58.5 -10.5t-45.5 -30t-30 -47.5t-11 -63v-136q0 -35 11 -63t30 -47.5t45.5 -30t58.5 -10.5q31 0 58 10.5t46 30t30 47.5t11 63v136zM150.991 700l117.992 -129h50.9971l-84.9951 129h-83.9941z" />
    <glyph glyph-name="oacute" unicode="&#xf3;" horiz-adv-x="528" 
d="M462 192q0 -56 -18 -94.5t-46.5 -62.5t-63.5 -34.5t-70 -10.5t-70 10.5t-63.5 34.5t-46.5 62.5t-18 94.5v136q0 56 18 94.5t46.5 62.5t63.5 34.5t70 10.5t70 -10.5t63.5 -34.5t46.5 -62.5t18 -94.5v-136zM409 328q0 35 -11 63t-30 47.5t-46 30t-58 10.5
q-32 0 -58.5 -10.5t-45.5 -30t-30 -47.5t-11 -63v-136q0 -35 11 -63t30 -47.5t45.5 -30t58.5 -10.5q31 0 58 10.5t46 30t30 47.5t11 63v136zM377 700l-118 -129h-51l85 129h84z" />
    <glyph glyph-name="ocircumflex" unicode="&#xf4;" horiz-adv-x="528" 
d="M462 192q0 -56 -18 -94.5t-46.5 -62.5t-63.5 -34.5t-70 -10.5t-70 10.5t-63.5 34.5t-46.5 62.5t-18 94.5v136q0 56 18 94.5t46.5 62.5t63.5 34.5t70 10.5t70 -10.5t63.5 -34.5t46.5 -62.5t18 -94.5v-136zM409 328q0 35 -11 63t-30 47.5t-46 30t-58 10.5
q-32 0 -58.5 -10.5t-45.5 -30t-30 -47.5t-11 -63v-136q0 -35 11 -63t30 -47.5t45.5 -30t58.5 -10.5q31 0 58 10.5t46 30t30 47.5t11 63v136zM264 654l-87 -83h-64l125 129h52l125 -129h-64z" />
    <glyph glyph-name="otilde" unicode="&#xf5;" horiz-adv-x="528" 
d="M462 192q0 -56 -18 -94.5t-46.5 -62.5t-63.5 -34.5t-70 -10.5t-70 10.5t-63.5 34.5t-46.5 62.5t-18 94.5v136q0 56 18 94.5t46.5 62.5t63.5 34.5t70 10.5t70 -10.5t63.5 -34.5t46.5 -62.5t18 -94.5v-136zM409 328q0 35 -11 63t-30 47.5t-46 30t-58 10.5
q-32 0 -58.5 -10.5t-45.5 -30t-30 -47.5t-11 -63v-136q0 -35 11 -63t30 -47.5t45.5 -30t58.5 -10.5q31 0 58 10.5t46 30t30 47.5t11 63v136zM419 679q-9 -29 -21.5 -46.5t-26 -26.5t-28 -12t-26.5 -3q-11 0 -22 2.5t-23 9.5l-33 19q-5 3 -13.5 6.5t-19.5 3.5t-23.5 -8
t-23.5 -31h-49q9 29 21.5 46.5t26 26.5t28 12t26.5 3q11 0 22 -2.5t23 -9.5l33 -19q5 -3 13.5 -6.5t19.5 -3.5t23.5 8t23.5 31h49z" />
    <glyph glyph-name="odieresis" unicode="&#xf6;" horiz-adv-x="528" 
d="M462 192q0 -56 -18 -94.5t-46.5 -62.5t-63.5 -34.5t-70 -10.5t-70 10.5t-63.5 34.5t-46.5 62.5t-18 94.5v136q0 56 18 94.5t46.5 62.5t63.5 34.5t70 10.5t70 -10.5t63.5 -34.5t46.5 -62.5t18 -94.5v-136zM409 328q0 35 -11 63t-30 47.5t-46 30t-58 10.5
q-32 0 -58.5 -10.5t-45.5 -30t-30 -47.5t-11 -63v-136q0 -35 11 -63t30 -47.5t45.5 -30t58.5 -10.5q31 0 58 10.5t46 30t30 47.5t11 63v136zM184 592h-53v87h53v-87zM397 592h-53v87h53v-87z" />
    <glyph glyph-name="divide" unicode="&#xf7;" 
d="M238 479q0 17 12.5 29.5t29.5 12.5t29.5 -12.5t12.5 -29.5t-12.5 -29.5t-29.5 -12.5t-29.5 12.5t-12.5 29.5zM238 82q0 17 12.5 29.5t29.5 12.5t29.5 -12.5t12.5 -29.5t-12.5 -29.5t-29.5 -12.5t-29.5 12.5t-12.5 29.5zM81 258v45h396v-45h-396z" />
    <glyph glyph-name="oslash" unicode="&#xf8;" horiz-adv-x="534" 
d="M465 192q0 -56 -18 -94.5t-46.5 -62.5t-63.5 -34.5t-70 -10.5q-33 0 -66.5 9t-61.5 31l-35 -52l-35 24l39 58q-18 23 -28.5 56t-10.5 76v136q0 56 18 94.5t46.5 62.5t63.5 34.5t70 10.5q33 0 66 -9.5t61 -30.5l35 52l36 -24l-39 -59q18 -23 28.5 -55.5t10.5 -75.5v-136z
M412 328q0 47 -20 81l-223 -334q39 -34 98 -34q31 0 58 10.5t46 30t30 47.5t11 63v136zM122 192q0 -46 19 -82l223 335q-39 34 -97 34q-32 0 -58.5 -10.5t-45.5 -30t-30 -47.5t-11 -63v-136z" />
    <glyph glyph-name="ugrave" unicode="&#xf9;" horiz-adv-x="542" 
d="M409 516h53v-516h-53v63q-23 -36 -63 -54.5t-78 -18.5q-33 0 -68 10.5t-63 34.5t-46 62.5t-18 94.5v324h53v-324q0 -35 11 -63t30 -47.5t45 -30t56 -10.5q29 0 55 10.5t45 30t30 47.5t11 63v324zM153.99 700l117.993 -129h50.9971l-84.9951 129h-83.9951z" />
    <glyph glyph-name="uacute" unicode="&#xfa;" horiz-adv-x="542" 
d="M409 516h53v-516h-53v63q-23 -36 -63 -54.5t-78 -18.5q-33 0 -68 10.5t-63 34.5t-46 62.5t-18 94.5v324h53v-324q0 -35 11 -63t30 -47.5t45 -30t56 -10.5q29 0 55 10.5t45 30t30 47.5t11 63v324zM380 700l-118 -129h-51l85 129h84z" />
    <glyph glyph-name="ucircumflex" unicode="&#xfb;" horiz-adv-x="542" 
d="M409 516h53v-516h-53v63q-23 -36 -63 -54.5t-78 -18.5q-33 0 -68 10.5t-63 34.5t-46 62.5t-18 94.5v324h53v-324q0 -35 11 -63t30 -47.5t45 -30t56 -10.5q29 0 55 10.5t45 30t30 47.5t11 63v324zM267 654l-87 -83h-64l125 129h52l125 -129h-64z" />
    <glyph glyph-name="udieresis" unicode="&#xfc;" horiz-adv-x="542" 
d="M409 516h53v-516h-53v63q-23 -36 -63 -54.5t-78 -18.5q-33 0 -68 10.5t-63 34.5t-46 62.5t-18 94.5v324h53v-324q0 -35 11 -63t30 -47.5t45 -30t56 -10.5q29 0 55 10.5t45 30t30 47.5t11 63v324zM187 592h-53v87h53v-87zM400 592h-53v87h53v-87z" />
    <glyph glyph-name="yacute" unicode="&#xfd;" horiz-adv-x="452" 
d="M226 -81q-8 -22 -15.5 -40.5t-19 -32.5t-29.5 -22t-46 -8h-26v51h27q28 0 38.5 15.5t19.5 40.5l25 70l-189 523h57l158 -447l158 447h57zM339 700l-118 -129h-51l85 129h84z" />
    <glyph glyph-name="thorn" unicode="&#xfe;" horiz-adv-x="542" 
d="M80 700h53v-243q23 36 62.5 54.5t82.5 18.5q35 0 70 -10.5t63.5 -34.5t46.5 -62.5t18 -94.5v-136q0 -56 -18 -94.5t-46.5 -62.5t-63.5 -34.5t-70 -10.5q-43 0 -82.5 18.5t-62.5 54.5v-247h-53v884zM133 192q0 -35 11 -63t30 -47.5t45.5 -30t58.5 -10.5q31 0 58 10.5
t46 30t30 47.5t11 63v136q0 35 -11 63t-30 47.5t-46 30t-58 10.5q-32 0 -58.5 -10.5t-45.5 -30t-30 -47.5t-11 -63v-136z" />
    <glyph glyph-name="ydieresis" unicode="&#xff;" horiz-adv-x="452" 
d="M226 -81q-8 -22 -15.5 -40.5t-19 -32.5t-29.5 -22t-46 -8h-26v51h27q28 0 38.5 15.5t19.5 40.5l25 70l-189 523h57l158 -447l158 447h57zM146 592h-53v87h53v-87zM359 592h-53v87h53v-87z" />
    <glyph glyph-name="Abreve" unicode="&#x102;" horiz-adv-x="564" 
d="M415 217h-266l-74 -217h-56l238 700h50l238 -700h-56zM398 268l-116 341l-116 -341h232zM314 796q25 0 41.5 16.5t16.5 41.5h51q0 -23 -8.5 -42.5t-23.5 -34.5t-35 -23.5t-42 -8.5h-64q-23 0 -42.5 8.5t-34.5 23.5t-23.5 34.5t-8.5 42.5h51q0 -25 16.5 -41.5t41.5 -16.5
h64v0z" />
    <glyph glyph-name="Amacron" unicode="&#x100;" horiz-adv-x="564" 
d="M415 217h-266l-74 -217h-56l238 700h50l238 -700h-56zM398 268l-116 341l-116 -341h232zM138 774v47h289v-47h-289z" />
    <glyph glyph-name="Aogonek" unicode="&#x104;" horiz-adv-x="564" 
d="M415 217h-266l-74 -217h-56l238 700h50l238 -700q-31 -23 -56.5 -46.5t-25.5 -50.5q0 -23 11.5 -32t28.5 -9q10 0 20.5 3.5t21.5 8.5v-50q-11 -7 -23 -10t-24 -3q-42 0 -66 23.5t-24 62.5q0 36 23.5 61t57.5 42zM398 268l-116 341l-116 -341h232z" />
    <glyph glyph-name="Cacute" unicode="&#x106;" horiz-adv-x="559" 
d="M505 200q-4 -49 -22 -88t-47.5 -66t-67.5 -41.5t-83 -14.5q-48 0 -88.5 16.5t-70 47t-46 74.5t-16.5 99v246q0 55 16.5 99t46 74.5t70 47t88.5 16.5q45 0 83 -14.5t67.5 -41.5t47.5 -66t22 -88h-55q-4 40 -18.5 69t-36.5 48.5t-50.5 29t-59.5 9.5q-34 0 -64.5 -11
t-53 -34t-35.5 -57.5t-13 -80.5v-246q0 -47 13 -81t35.5 -57t53 -34t64.5 -11q31 0 59.5 9.5t50.5 29t36.5 48.5t18.5 69h55zM408 854l-128 -109h-58l100 109h86z" />
    <glyph glyph-name="Ccaron" unicode="&#x10c;" horiz-adv-x="559" 
d="M505 200q-4 -49 -22 -88t-47.5 -66t-67.5 -41.5t-83 -14.5q-48 0 -88.5 16.5t-70 47t-46 74.5t-16.5 99v246q0 55 16.5 99t46 74.5t70 47t88.5 16.5q45 0 83 -14.5t67.5 -41.5t47.5 -66t22 -88h-55q-4 40 -18.5 69t-36.5 48.5t-50.5 29t-59.5 9.5q-34 0 -64.5 -11
t-53 -34t-35.5 -57.5t-13 -80.5v-246q0 -47 13 -81t35.5 -57t53 -34t64.5 -11q31 0 59.5 9.5t50.5 29t36.5 48.5t18.5 69h55zM310 745h-52l-125 109h72l79 -63l79 63h72z" />
    <glyph glyph-name="Ccircumflex" unicode="&#x108;" horiz-adv-x="559" 
d="M505 200q-4 -49 -22 -88t-47.5 -66t-67.5 -41.5t-83 -14.5q-48 0 -88.5 16.5t-70 47t-46 74.5t-16.5 99v246q0 55 16.5 99t46 74.5t70 47t88.5 16.5q45 0 83 -14.5t67.5 -41.5t47.5 -66t22 -88h-55q-4 40 -18.5 69t-36.5 48.5t-50.5 29t-59.5 9.5q-34 0 -64.5 -11
t-53 -34t-35.5 -57.5t-13 -80.5v-246q0 -47 13 -81t35.5 -57t53 -34t64.5 -11q31 0 59.5 9.5t50.5 29t36.5 48.5t18.5 69h55zM435 745h-72l-79 63l-79 -63h-72l125 109h52z" />
    <glyph glyph-name="Cdotaccent" unicode="&#x10a;" horiz-adv-x="559" 
d="M505 200q-4 -49 -22 -88t-47.5 -66t-67.5 -41.5t-83 -14.5q-48 0 -88.5 16.5t-70 47t-46 74.5t-16.5 99v246q0 55 16.5 99t46 74.5t70 47t88.5 16.5q45 0 83 -14.5t67.5 -41.5t47.5 -66t22 -88h-55q-4 40 -18.5 69t-36.5 48.5t-50.5 29t-59.5 9.5q-34 0 -64.5 -11
t-53 -34t-35.5 -57.5t-13 -80.5v-246q0 -47 13 -81t35.5 -57t53 -34t64.5 -11q31 0 59.5 9.5t50.5 29t36.5 48.5t18.5 69h55zM312 756h-55v87h55v-87z" />
    <glyph glyph-name="Dcaron" unicode="&#x10e;" horiz-adv-x="591" 
d="M527 237q0 -55 -16.5 -99t-46 -74.5t-70 -47t-88.5 -16.5h-221v700h221q48 0 88.5 -16.5t70 -47t46 -74.5t16.5 -99v-226zM140 54h166q34 0 64.5 11t53 34t35.5 57t13 81v226q0 46 -13 80.5t-35.5 57.5t-53 34t-64.5 11h-166v-592zM312 745h-52l-125 109h72l79 -63l79 63
h72z" />
    <glyph glyph-name="Dcroat" unicode="&#x110;" horiz-adv-x="602" 
d="M538 237q0 -55 -16.5 -99t-46 -74.5t-70 -47t-88.5 -16.5h-221v328h-70v45h70v327h221q48 0 88.5 -16.5t70 -47t46 -74.5t16.5 -99v-226zM151 373h166v-45h-166v-274h166q34 0 64.5 11t53 34t35.5 57t13 81v226q0 46 -13 80.5t-35.5 57.5t-53 34t-64.5 11h-166v-273z" />
    <glyph glyph-name="Ebreve" unicode="&#x114;" horiz-adv-x="541" 
d="M140 54h332v-54h-387v700h387v-54h-332v-265h332v-53h-332v-274zM310 796q25 0 41.5 16.5t16.5 41.5h51q0 -23 -8.5 -42.5t-23.5 -34.5t-35 -23.5t-42 -8.5h-64q-23 0 -42.5 8.5t-34.5 23.5t-23.5 34.5t-8.5 42.5h51q0 -25 16.5 -41.5t41.5 -16.5h64v0z" />
    <glyph glyph-name="Ecaron" unicode="&#x11a;" horiz-adv-x="541" 
d="M140 54h332v-54h-387v700h387v-54h-332v-265h332v-53h-332v-274zM304 745h-52l-125 109h72l79 -63l79 63h72z" />
    <glyph glyph-name="Emacron" unicode="&#x112;" horiz-adv-x="541" 
d="M140 54h332v-54h-387v700h387v-54h-332v-265h332v-53h-332v-274zM134 774v47h289v-47h-289z" />
    <glyph glyph-name="Eogonek" unicode="&#x118;" horiz-adv-x="541" 
d="M140 54h332v-54h-387v700h387v-54h-332v-265h332v-53h-332v-274zM472 0q-31 -23 -56.5 -46.5t-25.5 -50.5q0 -23 11.5 -32t28.5 -9q10 0 20.5 3.5t21.5 8.5v-50q-11 -7 -23 -10t-24 -3q-42 0 -66 23.5t-24 62.5q0 36 24 61t58 42h55z" />
    <glyph glyph-name="Edotaccent" unicode="&#x116;" horiz-adv-x="541" 
d="M140 54h332v-54h-387v700h387v-54h-332v-265h332v-53h-332v-274zM306 756h-55v87h55v-87z" />
    <glyph glyph-name="Gbreve" unicode="&#x11e;" horiz-adv-x="566" 
d="M285 361h221v-134q0 -55 -16.5 -99t-46 -74.5t-70 -47t-88.5 -16.5t-88.5 16.5t-70 47t-46 74.5t-16.5 99v246q0 55 16.5 99t46 74.5t70 47t88.5 16.5q45 0 83 -14.5t67.5 -41.5t47.5 -66t22 -88h-55q-4 39 -18.5 68.5t-36.5 49t-50.5 29t-59.5 9.5q-34 0 -64.5 -11
t-53 -34t-35.5 -57.5t-13 -80.5v-246q0 -47 13 -81t35.5 -57t53 -34t64.5 -11t64.5 11t53 34t35.5 57t13 81v81h-166v53zM317 796q25 0 41.5 16.5t16.5 41.5h51q0 -23 -8.5 -42.5t-23.5 -34.5t-35 -23.5t-42 -8.5h-64q-23 0 -42.5 8.5t-34.5 23.5t-23.5 34.5t-8.5 42.5h51
q0 -25 16.5 -41.5t41.5 -16.5h64v0z" />
    <glyph glyph-name="Gcircumflex" unicode="&#x11c;" horiz-adv-x="566" 
d="M285 361h221v-134q0 -55 -16.5 -99t-46 -74.5t-70 -47t-88.5 -16.5t-88.5 16.5t-70 47t-46 74.5t-16.5 99v246q0 55 16.5 99t46 74.5t70 47t88.5 16.5q45 0 83 -14.5t67.5 -41.5t47.5 -66t22 -88h-55q-4 39 -18.5 68.5t-36.5 49t-50.5 29t-59.5 9.5q-34 0 -64.5 -11
t-53 -34t-35.5 -57.5t-13 -80.5v-246q0 -47 13 -81t35.5 -57t53 -34t64.5 -11t64.5 11t53 34t35.5 57t13 81v81h-166v53zM436 745h-72l-79 63l-79 -63h-72l125 109h52z" />
    <glyph glyph-name="Gcommaaccent" unicode="&#x122;" horiz-adv-x="566" 
d="M285 361h221v-134q0 -55 -16.5 -99t-46 -74.5t-70 -47t-88.5 -16.5t-88.5 16.5t-70 47t-46 74.5t-16.5 99v246q0 55 16.5 99t46 74.5t70 47t88.5 16.5q45 0 83 -14.5t67.5 -41.5t47.5 -66t22 -88h-55q-4 39 -18.5 68.5t-36.5 49t-50.5 29t-59.5 9.5q-34 0 -64.5 -11
t-53 -34t-35.5 -57.5t-13 -80.5v-246q0 -47 13 -81t35.5 -57t53 -34t64.5 -11t64.5 11t53 34t35.5 57t13 81v81h-166v53zM248 -50h74v-74l-21 -74h-49l21 74h-25v74z" />
    <glyph glyph-name="Gdotaccent" unicode="&#x120;" horiz-adv-x="566" 
d="M285 361h221v-134q0 -55 -16.5 -99t-46 -74.5t-70 -47t-88.5 -16.5t-88.5 16.5t-70 47t-46 74.5t-16.5 99v246q0 55 16.5 99t46 74.5t70 47t88.5 16.5q45 0 83 -14.5t67.5 -41.5t47.5 -66t22 -88h-55q-4 39 -18.5 68.5t-36.5 49t-50.5 29t-59.5 9.5q-34 0 -64.5 -11
t-53 -34t-35.5 -57.5t-13 -80.5v-246q0 -47 13 -81t35.5 -57t53 -34t64.5 -11t64.5 11t53 34t35.5 57t13 81v81h-166v53zM313 756h-55v87h55v-87z" />
    <glyph glyph-name="Hbar" unicode="&#x126;" horiz-adv-x="612" 
d="M140 563h332v137h55v-700h-55v328h-332v-328h-55v700h55v-137zM472 518h-332v-137h332v137z" />
    <glyph glyph-name="Hcircumflex" unicode="&#x124;" horiz-adv-x="612" 
d="M472 700h55v-700h-55v328h-332v-328h-55v700h55v-319h332v319zM457 745h-72l-79 63l-79 -63h-72l125 109h52z" />
    <glyph glyph-name="Ibreve" unicode="&#x12c;" horiz-adv-x="225" 
d="M140 0h-55v700h55v-700zM145 796q25 0 41.5 16.5t16.5 41.5h51q0 -23 -8.5 -42.5t-23.5 -34.5t-35 -23.5t-42 -8.5h-64q-23 0 -42.5 8.5t-34.5 23.5t-23.5 34.5t-8.5 42.5h51q0 -25 16.5 -41.5t41.5 -16.5h64v0z" />
    <glyph glyph-name="Idotaccent" unicode="&#x130;" horiz-adv-x="225" 
d="M140 0h-55v700h55v-700zM140 756h-55v87h55v-87z" />
    <glyph glyph-name="Imacron" unicode="&#x12a;" horiz-adv-x="225" 
d="M140 0h-55v700h55v-700zM-31 774v47h289v-47h-289z" />
    <glyph glyph-name="Iogonek" unicode="&#x12e;" horiz-adv-x="222" 
d="M140 0h-55v700h55v-700zM141 0q-31 -23 -56.5 -46.5t-25.5 -50.5q0 -23 11.5 -32t28.5 -9q10 0 20.5 3.5t21.5 8.5v-50q-11 -7 -23 -10t-24 -3q-42 0 -66 23.5t-24 62.5q0 36 24 61t58 42h55z" />
    <glyph glyph-name="Itilde" unicode="&#x128;" horiz-adv-x="225" 
d="M140 0h-55v700h55v-700zM61 845q11 0 22 -2.5t23 -9.5l33 -17q8 -4 15 -7t14 -3q27 0 44 37h56q-9 -29 -21.5 -46.5t-26 -26.5t-28 -12t-26.5 -3q-11 0 -22 2.5t-23 9.5l-33 17q-8 4 -15 7t-14 3q-27 0 -44 -37h-56q9 29 21.5 46.5t26 26.5t28 12t26.5 3z" />
    <glyph glyph-name="uni1ECA" unicode="&#x1eca;" horiz-adv-x="225" 
d="M140 0h-55v700h55v-700zM140 -136h-55v87h55v-87z" />
    <glyph glyph-name="Jcircumflex" unicode="&#x134;" horiz-adv-x="467" 
d="M336 700h55v-518q0 -44 -14 -79t-39 -60.5t-59.5 -39t-74.5 -13.5t-74 13.5t-58.5 39t-38.5 60.5t-14 79v18h55v-18q0 -28 8.5 -53t25.5 -44t41 -30t56 -11q31 0 55.5 11t41.5 30t25.5 44t8.5 53v518zM514 745h-72l-79 63l-79 -63h-72l125 109h52z" />
    <glyph glyph-name="Kcommaaccent" unicode="&#x136;" horiz-adv-x="597" 
d="M140 0h-55v700h55v-411l349 411h71l-246 -289l272 -411h-66l-243 367l-137 -161v-206zM283 -50h74v-74l-21 -74h-49l21 74h-25v74z" />
    <glyph glyph-name="Lacute" unicode="&#x139;" horiz-adv-x="492" 
d="M140 54h332v-54h-387v700h55v-646zM237 854l-128 -109h-58l100 109h86z" />
    <glyph glyph-name="Lcaron" unicode="&#x13d;" horiz-adv-x="492" 
d="M318 542h-46l28 158h74zM140 54h332v-54h-387v700h55v-646z" />
    <glyph glyph-name="Lcommaaccent" unicode="&#x13b;" horiz-adv-x="492" 
d="M140 54h332v-54h-387v700h55v-646zM241 -50h74v-74l-21 -74h-49l21 74h-25v74z" />
    <glyph glyph-name="Ldot" unicode="&#x13f;" horiz-adv-x="492" 
d="M140 54h332v-54h-387v700h55v-646zM377 335h-55v87h55v-87z" />
    <glyph glyph-name="Lslash" unicode="&#x141;" horiz-adv-x="503" 
d="M151 353l166 92v-51l-166 -92v-248h332v-54h-387v271l-70 -38v51l70 38v378h55v-347z" />
    <glyph glyph-name="Eng" unicode="&#x14a;" horiz-adv-x="612" 
d="M527 0q0 -42 -14.5 -76t-40 -58t-59.5 -37t-73 -13h-34v54h35q30 0 54 10.5t40.5 28.5t26 41.5t10.5 49.5l-332 591v-591h-55v700h55l332 -591v591h55v-700z" />
    <glyph glyph-name="Nacute" unicode="&#x143;" horiz-adv-x="612" 
d="M527 0h-55l-332 591v-591h-55v700h55l332 -591v591h55v-700zM430 854l-128 -109h-58l100 109h86z" />
    <glyph glyph-name="Ncaron" unicode="&#x147;" horiz-adv-x="612" 
d="M527 0h-55l-332 591v-591h-55v700h55l332 -591v591h55v-700zM332 745h-52l-125 109h72l79 -63l79 63h72z" />
    <glyph glyph-name="Ncommaaccent" unicode="&#x145;" horiz-adv-x="612" 
d="M527 0h-55l-332 591v-591h-55v700h55l332 -591v591h55v-700zM269 -50h74v-74l-21 -74h-49l21 74h-25v74z" />
    <glyph glyph-name="OE" unicode="&#x152;" horiz-adv-x="907" 
d="M119 227q0 -47 13 -81t35.5 -57t53 -34t64.5 -11t64.5 11t53 34t35.5 57t13 81v246q0 46 -13 80.5t-35.5 57.5t-53 34t-64.5 11t-64.5 -11t-53 -34t-35.5 -57.5t-13 -80.5v-246zM451 69q-24 -37 -68 -58t-98 -21q-48 0 -88.5 16.5t-70 47t-46 74.5t-16.5 99v246
q0 55 16.5 99t46 74.5t70 47t88.5 16.5q54 0 98 -21t68 -58v69h387v-54h-332v-265h332v-53h-332v-274h332v-54h-387v69z" />
    <glyph glyph-name="Obreve" unicode="&#x14e;" horiz-adv-x="570" 
d="M506 227q0 -55 -16.5 -99t-46 -74.5t-70 -47t-88.5 -16.5t-88.5 16.5t-70 47t-46 74.5t-16.5 99v246q0 55 16.5 99t46 74.5t70 47t88.5 16.5t88.5 -16.5t70 -47t46 -74.5t16.5 -99v-246zM119 227q0 -47 13 -81t35.5 -57t53 -34t64.5 -11t64.5 11t53 34t35.5 57t13 81v246
q0 46 -13 80.5t-35.5 57.5t-53 34t-64.5 11t-64.5 -11t-53 -34t-35.5 -57.5t-13 -80.5v-246zM317 796q25 0 41.5 16.5t16.5 41.5h51q0 -23 -8.5 -42.5t-23.5 -34.5t-35 -23.5t-42 -8.5h-64q-23 0 -42.5 8.5t-34.5 23.5t-23.5 34.5t-8.5 42.5h51q0 -25 16.5 -41.5t41.5 -16.5
h64v0z" />
    <glyph glyph-name="Ohungarumlaut" unicode="&#x150;" horiz-adv-x="570" 
d="M506 227q0 -55 -16.5 -99t-46 -74.5t-70 -47t-88.5 -16.5t-88.5 16.5t-70 47t-46 74.5t-16.5 99v246q0 55 16.5 99t46 74.5t70 47t88.5 16.5t88.5 -16.5t70 -47t46 -74.5t16.5 -99v-246zM119 227q0 -47 13 -81t35.5 -57t53 -34t64.5 -11t64.5 11t53 34t35.5 57t13 81v246
q0 46 -13 80.5t-35.5 57.5t-53 34t-64.5 11t-64.5 -11t-53 -34t-35.5 -57.5t-13 -80.5v-246zM342 854l-118 -109h-53l90 109h81zM506 854l-118 -109h-53l90 109h81z" />
    <glyph glyph-name="Omacron" unicode="&#x14c;" horiz-adv-x="570" 
d="M506 227q0 -55 -16.5 -99t-46 -74.5t-70 -47t-88.5 -16.5t-88.5 16.5t-70 47t-46 74.5t-16.5 99v246q0 55 16.5 99t46 74.5t70 47t88.5 16.5t88.5 -16.5t70 -47t46 -74.5t16.5 -99v-246zM119 227q0 -47 13 -81t35.5 -57t53 -34t64.5 -11t64.5 11t53 34t35.5 57t13 81v246
q0 46 -13 80.5t-35.5 57.5t-53 34t-64.5 11t-64.5 -11t-53 -34t-35.5 -57.5t-13 -80.5v-246zM141 774v47h289v-47h-289z" />
    <glyph glyph-name="uni1ECC" unicode="&#x1ecc;" horiz-adv-x="570" 
d="M506 227q0 -55 -16.5 -99t-46 -74.5t-70 -47t-88.5 -16.5t-88.5 16.5t-70 47t-46 74.5t-16.5 99v246q0 55 16.5 99t46 74.5t70 47t88.5 16.5t88.5 -16.5t70 -47t46 -74.5t16.5 -99v-246zM119 227q0 -47 13 -81t35.5 -57t53 -34t64.5 -11t64.5 11t53 34t35.5 57t13 81v246
q0 46 -13 80.5t-35.5 57.5t-53 34t-64.5 11t-64.5 -11t-53 -34t-35.5 -57.5t-13 -80.5v-246zM313 -136h-55v87h55v-87z" />
    <glyph glyph-name="Racute" unicode="&#x154;" horiz-adv-x="572" 
d="M140 328v-328h-55v700h238q43 0 78.5 -14t61 -39t39 -59.5t13.5 -74.5q0 -38 -12 -70t-34.5 -56t-54 -39.5t-70.5 -18.5l194 -329h-63l-193 328h-142zM323 381q28 0 52.5 8.5t43.5 25t30 41.5t11 57t-11 57t-30 42t-43.5 25.5t-52.5 8.5h-183v-265h183zM390 854
l-128 -109h-58l100 109h86z" />
    <glyph glyph-name="Rcaron" unicode="&#x158;" horiz-adv-x="572" 
d="M140 328v-328h-55v700h238q43 0 78.5 -14t61 -39t39 -59.5t13.5 -74.5q0 -38 -12 -70t-34.5 -56t-54 -39.5t-70.5 -18.5l194 -329h-63l-193 328h-142zM323 381q28 0 52.5 8.5t43.5 25t30 41.5t11 57t-11 57t-30 42t-43.5 25.5t-52.5 8.5h-183v-265h183zM307 745h-52
l-125 109h72l79 -63l79 63h72z" />
    <glyph glyph-name="Rcommaaccent" unicode="&#x156;" horiz-adv-x="572" 
d="M140 328v-328h-55v700h238q43 0 78.5 -14t61 -39t39 -59.5t13.5 -74.5q0 -38 -12 -70t-34.5 -56t-54 -39.5t-70.5 -18.5l194 -329h-63l-193 328h-142zM323 381q28 0 52.5 8.5t43.5 25t30 41.5t11 57t-11 57t-30 42t-43.5 25.5t-52.5 8.5h-183v-265h183zM260 -50h74v-74
l-21 -74h-49l21 74h-25v74z" />
    <glyph glyph-name="Sacute" unicode="&#x15a;" horiz-adv-x="515" 
d="M250 656q-35 0 -62 -10.5t-45 -28.5t-27 -42t-9 -51q0 -50 25.5 -84t73.5 -47l125 -34q28 -8 53 -23t43.5 -37.5t29.5 -53t11 -67.5q0 -38 -12 -72.5t-37 -60t-63.5 -40.5t-91.5 -15q-94 0 -154.5 55.5t-68.5 154.5h55q3 -39 18 -68.5t37.5 -49t51.5 -29t61 -9.5
q71 0 110 34t39 100q0 42 -24 77.5t-80 50.5l-121 33q-67 18 -101.5 68t-34.5 117q0 39 13 72.5t38 59t62 40t85 14.5q85 0 138.5 -47.5t68.5 -132.5h-55q-14 64 -53 95t-99 31zM378 854l-128 -109h-58l100 109h86z" />
    <glyph glyph-name="Scaron" unicode="&#x160;" horiz-adv-x="515" 
d="M250 656q-35 0 -62 -10.5t-45 -28.5t-27 -42t-9 -51q0 -50 25.5 -84t73.5 -47l125 -34q28 -8 53 -23t43.5 -37.5t29.5 -53t11 -67.5q0 -38 -12 -72.5t-37 -60t-63.5 -40.5t-91.5 -15q-94 0 -154.5 55.5t-68.5 154.5h55q3 -39 18 -68.5t37.5 -49t51.5 -29t61 -9.5
q71 0 110 34t39 100q0 42 -24 77.5t-80 50.5l-121 33q-67 18 -101.5 68t-34.5 117q0 39 13 72.5t38 59t62 40t85 14.5q85 0 138.5 -47.5t68.5 -132.5h-55q-14 64 -53 95t-99 31zM280 745h-52l-125 109h72l79 -63l79 63h72z" />
    <glyph glyph-name="Scedilla" unicode="&#x15e;" horiz-adv-x="515" 
d="M250 656q-35 0 -62 -10.5t-45 -28.5t-27 -42t-9 -51q0 -50 25.5 -84t73.5 -47l125 -34q28 -8 53 -23t43.5 -37.5t29.5 -53t11 -67.5q0 -38 -12 -72.5t-37 -60t-63.5 -40.5t-91.5 -15q-94 0 -154.5 55.5t-68.5 154.5h55q3 -39 18 -68.5t37.5 -49t51.5 -29t61 -9.5
q71 0 110 34t39 100q0 42 -24 77.5t-80 50.5l-121 33q-67 18 -101.5 68t-34.5 117q0 39 13 72.5t38 59t62 40t85 14.5q85 0 138.5 -47.5t68.5 -132.5h-55q-14 64 -53 95t-99 31zM254 0h56l-38 -158h-71z" />
    <glyph glyph-name="Scircumflex" unicode="&#x15c;" horiz-adv-x="515" 
d="M250 656q-35 0 -62 -10.5t-45 -28.5t-27 -42t-9 -51q0 -50 25.5 -84t73.5 -47l125 -34q28 -8 53 -23t43.5 -37.5t29.5 -53t11 -67.5q0 -38 -12 -72.5t-37 -60t-63.5 -40.5t-91.5 -15q-94 0 -154.5 55.5t-68.5 154.5h55q3 -39 18 -68.5t37.5 -49t51.5 -29t61 -9.5
q71 0 110 34t39 100q0 42 -24 77.5t-80 50.5l-121 33q-67 18 -101.5 68t-34.5 117q0 39 13 72.5t38 59t62 40t85 14.5q85 0 138.5 -47.5t68.5 -132.5h-55q-14 64 -53 95t-99 31zM405 745h-72l-79 63l-79 -63h-72l125 109h52z" />
    <glyph glyph-name="Scommaaccent" unicode="&#x218;" horiz-adv-x="515" 
d="M250 656q-35 0 -62 -10.5t-45 -28.5t-27 -42t-9 -51q0 -50 25.5 -84t73.5 -47l125 -34q28 -8 53 -23t43.5 -37.5t29.5 -53t11 -67.5q0 -38 -12 -72.5t-37 -60t-63.5 -40.5t-91.5 -15q-94 0 -154.5 55.5t-68.5 154.5h55q3 -39 18 -68.5t37.5 -49t51.5 -29t61 -9.5
q71 0 110 34t39 100q0 42 -24 77.5t-80 50.5l-121 33q-67 18 -101.5 68t-34.5 117q0 39 13 72.5t38 59t62 40t85 14.5q85 0 138.5 -47.5t68.5 -132.5h-55q-14 64 -53 95t-99 31zM217 -50h74v-74l-21 -74h-49l21 74h-25v74z" />
    <glyph glyph-name="Tbar" unicode="&#x166;" horiz-adv-x="481" 
d="M268 373h124v-45h-124v-328h-55v328h-124v45h124v273h-194v54h443v-54h-194v-273z" />
    <glyph glyph-name="Tcaron" unicode="&#x164;" horiz-adv-x="481" 
d="M268 0h-55v646h-194v54h443v-54h-194v-646zM266 745h-52l-125 109h72l79 -63l79 63h72z" />
    <glyph glyph-name="uni0162" unicode="&#x162;" horiz-adv-x="481" 
d="M268 0h-55v646h-194v54h443v-54h-194v-646zM203 -50h74v-74l-21 -74h-49l21 74h-25v74z" />
    <glyph glyph-name="Tcommaaccent" unicode="&#x21a;" horiz-adv-x="481" 
d="M268 0h-55v646h-194v54h443v-54h-194v-646zM203 -50h74v-74l-21 -74h-49l21 74h-25v74z" />
    <glyph glyph-name="Ubreve" unicode="&#x16c;" horiz-adv-x="594" 
d="M76 700h55v-473q0 -47 13 -81t35.5 -57t53 -34t64.5 -11t64.5 11t53 34t35.5 57t13 81v473h55v-473q0 -55 -16.5 -99t-46 -74.5t-70 -47t-88.5 -16.5t-88.5 16.5t-70 47t-46 74.5t-16.5 99v473zM329 796q25 0 41.5 16.5t16.5 41.5h51q0 -23 -8.5 -42.5t-23.5 -34.5
t-35 -23.5t-42 -8.5h-64q-23 0 -42.5 8.5t-34.5 23.5t-23.5 34.5t-8.5 42.5h51q0 -25 16.5 -41.5t41.5 -16.5h64v0z" />
    <glyph glyph-name="Uhungarumlaut" unicode="&#x170;" horiz-adv-x="594" 
d="M76 700h55v-473q0 -47 13 -81t35.5 -57t53 -34t64.5 -11t64.5 11t53 34t35.5 57t13 81v473h55v-473q0 -55 -16.5 -99t-46 -74.5t-70 -47t-88.5 -16.5t-88.5 16.5t-70 47t-46 74.5t-16.5 99v473zM341 854l-118 -109h-53l90 109h81zM505 854l-118 -109h-53l90 109h81z" />
    <glyph glyph-name="Umacron" unicode="&#x16a;" horiz-adv-x="594" 
d="M76 700h55v-473q0 -47 13 -81t35.5 -57t53 -34t64.5 -11t64.5 11t53 34t35.5 57t13 81v473h55v-473q0 -55 -16.5 -99t-46 -74.5t-70 -47t-88.5 -16.5t-88.5 16.5t-70 47t-46 74.5t-16.5 99v473zM153 774v47h289v-47h-289z" />
    <glyph glyph-name="Uogonek" unicode="&#x172;" horiz-adv-x="594" 
d="M76 700h55v-473q0 -47 13 -81t35.5 -57t53 -34t64.5 -11t64.5 11t53 34t35.5 57t13 81v473h55v-473q0 -65 -22.5 -115.5t-72.5 -85.5q-17 -12 -36.5 -26t-36 -30t-28 -33t-11.5 -34q0 -23 11.5 -32t28.5 -9q10 0 20.5 3.5t21.5 8.5v-50q-11 -7 -23 -10t-24 -3
q-42 0 -66 23.5t-24 62.5q0 32 18.5 55t46.5 39q-6 0 -12 -0.5t-12 -0.5q-48 0 -88.5 16.5t-70 47t-46 74.5t-16.5 99v473z" />
    <glyph glyph-name="Uring" unicode="&#x16e;" horiz-adv-x="594" 
d="M76 700h55v-473q0 -47 13 -81t35.5 -57t53 -34t64.5 -11t64.5 11t53 34t35.5 57t13 81v473h55v-473q0 -55 -16.5 -99t-46 -74.5t-70 -47t-88.5 -16.5t-88.5 16.5t-70 47t-46 74.5t-16.5 99v473zM223 799q0 31 21.5 53t52.5 22t53 -22t22 -53t-22 -52.5t-53 -21.5
t-52.5 21.5t-21.5 52.5zM268 799q0 -12 8.5 -20.5t20.5 -8.5t21 8.5t9 20.5t-9 21t-21 9t-20.5 -9t-8.5 -21z" />
    <glyph glyph-name="Utilde" unicode="&#x168;" horiz-adv-x="594" 
d="M76 700h55v-473q0 -47 13 -81t35.5 -57t53 -34t64.5 -11t64.5 11t53 34t35.5 57t13 81v473h55v-473q0 -55 -16.5 -99t-46 -74.5t-70 -47t-88.5 -16.5t-88.5 16.5t-70 47t-46 74.5t-16.5 99v473zM245 845q11 0 22 -2.5t23 -9.5l33 -17q8 -4 15 -7t14 -3q27 0 44 37h56
q-9 -29 -21.5 -46.5t-26 -26.5t-28 -12t-26.5 -3q-11 0 -22 2.5t-23 9.5l-33 17q-8 4 -15 7t-14 3q-27 0 -44 -37h-56q9 29 21.5 46.5t26 26.5t28 12t26.5 3z" />
    <glyph glyph-name="uni1EE4" unicode="&#x1ee4;" horiz-adv-x="594" 
d="M76 700h55v-473q0 -47 13 -81t35.5 -57t53 -34t64.5 -11t64.5 11t53 34t35.5 57t13 81v473h55v-473q0 -55 -16.5 -99t-46 -74.5t-70 -47t-88.5 -16.5t-88.5 16.5t-70 47t-46 74.5t-16.5 99v473zM325 -136h-55v87h55v-87z" />
    <glyph glyph-name="Wacute" unicode="&#x1e82;" horiz-adv-x="716" 
d="M358 509l-144 -509h-53l-129 700h54l108 -591l139 491h50l139 -491l108 591h54l-129 -700h-53zM482 854l-128 -109h-58l100 109h86z" />
    <glyph glyph-name="Wcircumflex" unicode="&#x174;" horiz-adv-x="716" 
d="M358 509l-144 -509h-53l-129 700h54l108 -591l139 491h50l139 -491l108 591h54l-129 -700h-53zM509 745h-72l-79 63l-79 -63h-72l125 109h52z" />
    <glyph glyph-name="Wdieresis" unicode="&#x1e84;" horiz-adv-x="716" 
d="M358 509l-144 -509h-53l-129 700h54l108 -591l139 491h50l139 -491l108 591h54l-129 -700h-53zM280 756h-55v87h55v-87zM491 756h-55v87h55v-87z" />
    <glyph glyph-name="Wgrave" unicode="&#x1e80;" horiz-adv-x="716" 
d="M358 509l-144 -509h-53l-129 700h54l108 -591l139 491h50l139 -491l108 591h54l-129 -700h-53zM320 854l100 -109h-58l-128 109h86z" />
    <glyph glyph-name="Ycircumflex" unicode="&#x176;" horiz-adv-x="543" 
d="M299 291v-291h-55v291l-236 409h61l203 -352l202 352h61zM422 745h-72l-79 63l-79 -63h-72l125 109h52z" />
    <glyph glyph-name="Ydieresis" unicode="&#x178;" horiz-adv-x="543" 
d="M299 291v-291h-55v291l-236 409h61l203 -352l202 352h61zM193 756h-55v87h55v-87zM404 756h-55v87h55v-87z" />
    <glyph glyph-name="Ygrave" unicode="&#x1ef2;" horiz-adv-x="543" 
d="M299 291v-291h-55v291l-236 409h61l203 -352l202 352h61zM233 854l100 -109h-58l-128 109h86z" />
    <glyph glyph-name="uni0232" unicode="&#x232;" horiz-adv-x="543" 
d="M299 291v-291h-55v291l-236 409h61l203 -352l202 352h61zM127 774v47h289v-47h-289z" />
    <glyph glyph-name="Zacute" unicode="&#x179;" horiz-adv-x="537" 
d="M44 0v54l380 592h-375v54h437v-54l-380 -592h385v-54h-447zM391 854l-128 -109h-58l100 109h86z" />
    <glyph glyph-name="Zcaron" unicode="&#x17d;" horiz-adv-x="537" 
d="M44 0v54l380 592h-375v54h437v-54l-380 -592h385v-54h-447zM293 745h-52l-125 109h72l79 -63l79 63h72z" />
    <glyph glyph-name="Zdotaccent" unicode="&#x17b;" horiz-adv-x="537" 
d="M44 0v54l380 592h-375v54h437v-54l-380 -592h385v-54h-447zM295 756h-55v87h55v-87z" />
    <glyph glyph-name="abreve" unicode="&#x103;" horiz-adv-x="527" 
d="M401 328q0 35 -11 63t-30 47.5t-46 30t-58 10.5q-56 0 -94.5 -31.5t-47.5 -87.5h-54q5 47 24.5 79.5t46.5 52.5t60 29t65 9q35 0 70 -10.5t63.5 -34.5t46.5 -62.5t18 -94.5v-328h-53v63q-25 -36 -69 -54.5t-103 -18.5q-42 0 -74 12t-54 33t-33 48.5t-11 58.5
q0 51 26 90.5t86 57.5q45 14 105.5 19.5t126.5 9.5v9zM401 272q-86 -5 -141.5 -11.5t-84.5 -20.5q-37 -17 -51 -40t-14 -54q0 -21 7 -40t22.5 -33.5t40.5 -23t61 -8.5q34 0 63.5 11t51 30.5t33.5 47.5t12 62v80zM272 620q33 0 56.5 23.5t23.5 56.5h49q0 -27 -10 -50.5
t-27.5 -41t-41 -27.5t-50.5 -10h-24q-27 0 -50.5 10t-41 27.5t-27.5 41t-10 50.5h49q0 -33 23.5 -56.5t56.5 -23.5h24z" />
    <glyph glyph-name="amacron" unicode="&#x101;" horiz-adv-x="527" 
d="M401 328q0 35 -11 63t-30 47.5t-46 30t-58 10.5q-56 0 -94.5 -31.5t-47.5 -87.5h-54q5 47 24.5 79.5t46.5 52.5t60 29t65 9q35 0 70 -10.5t63.5 -34.5t46.5 -62.5t18 -94.5v-328h-53v63q-25 -36 -69 -54.5t-103 -18.5q-42 0 -74 12t-54 33t-33 48.5t-11 58.5
q0 51 26 90.5t86 57.5q45 14 105.5 19.5t126.5 9.5v9zM401 272q-86 -5 -141.5 -11.5t-84.5 -20.5q-37 -17 -51 -40t-14 -54q0 -21 7 -40t22.5 -33.5t40.5 -23t61 -8.5q34 0 63.5 11t51 30.5t33.5 47.5t12 62v80zM116 613v45h289v-45h-289z" />
    <glyph glyph-name="aogonek" unicode="&#x105;" horiz-adv-x="527" 
d="M401 328q0 35 -11 63t-30 47.5t-46 30t-58 10.5q-56 0 -94.5 -31.5t-47.5 -87.5h-54q5 47 24.5 79.5t46.5 52.5t60 29t65 9q35 0 70 -10.5t63.5 -34.5t46.5 -62.5t18 -94.5v-328h-53v63q-25 -36 -69 -54.5t-103 -18.5q-42 0 -74 12t-54 33t-33 48.5t-11 58.5
q0 51 26 90.5t86 57.5q45 14 105.5 19.5t126.5 9.5v9zM401 272q-86 -5 -141.5 -11.5t-84.5 -20.5q-37 -17 -51 -40t-14 -54q0 -21 7 -40t22.5 -33.5t40.5 -23t61 -8.5q34 0 63.5 11t51 30.5t33.5 47.5t12 62v80zM454 0q-31 -23 -56.5 -46.5t-25.5 -50.5q0 -23 11.5 -33
t28.5 -10q10 0 20.5 3.5t21.5 8.5v-48q-11 -7 -23 -10t-24 -3q-42 0 -65 23.5t-23 62.5q0 36 24 61t58 42h53z" />
    <glyph glyph-name="cacute" unicode="&#x107;" horiz-adv-x="516" 
d="M264 -10q-35 0 -70 10.5t-63.5 34.5t-46.5 62.5t-18 94.5v136q0 56 18 94.5t46.5 62.5t63.5 34.5t70 10.5q32 0 65 -9t60 -29t46.5 -52.5t24.5 -79.5h-54q-9 56 -47.5 87.5t-94.5 31.5q-32 0 -58.5 -10.5t-45.5 -30t-30 -47.5t-11 -63v-136q0 -35 11 -63t30 -47.5
t45.5 -30t58.5 -10.5q56 0 94.5 31.5t47.5 87.5h54q-5 -47 -24.5 -79.5t-46.5 -52.5t-60 -29t-65 -9zM376 700l-118 -129h-51l85 129h84z" />
    <glyph glyph-name="ccaron" unicode="&#x10d;" horiz-adv-x="516" 
d="M264 -10q-35 0 -70 10.5t-63.5 34.5t-46.5 62.5t-18 94.5v136q0 56 18 94.5t46.5 62.5t63.5 34.5t70 10.5q32 0 65 -9t60 -29t46.5 -52.5t24.5 -79.5h-54q-9 56 -47.5 87.5t-94.5 31.5q-32 0 -58.5 -10.5t-45.5 -30t-30 -47.5t-11 -63v-136q0 -35 11 -63t30 -47.5
t45.5 -30t58.5 -10.5q56 0 94.5 31.5t47.5 87.5h54q-5 -47 -24.5 -79.5t-46.5 -52.5t-60 -29t-65 -9zM350 700h64l-125 -129h-52l-125 129h64l87 -83z" />
    <glyph glyph-name="ccircumflex" unicode="&#x109;" horiz-adv-x="516" 
d="M264 -10q-35 0 -70 10.5t-63.5 34.5t-46.5 62.5t-18 94.5v136q0 56 18 94.5t46.5 62.5t63.5 34.5t70 10.5q32 0 65 -9t60 -29t46.5 -52.5t24.5 -79.5h-54q-9 56 -47.5 87.5t-94.5 31.5q-32 0 -58.5 -10.5t-45.5 -30t-30 -47.5t-11 -63v-136q0 -35 11 -63t30 -47.5
t45.5 -30t58.5 -10.5q56 0 94.5 31.5t47.5 87.5h54q-5 -47 -24.5 -79.5t-46.5 -52.5t-60 -29t-65 -9zM263 654l-87 -83h-64l125 129h52l125 -129h-64z" />
    <glyph glyph-name="cdotaccent" unicode="&#x10b;" horiz-adv-x="516" 
d="M264 -10q-35 0 -70 10.5t-63.5 34.5t-46.5 62.5t-18 94.5v136q0 56 18 94.5t46.5 62.5t63.5 34.5t70 10.5q32 0 65 -9t60 -29t46.5 -52.5t24.5 -79.5h-54q-9 56 -47.5 87.5t-94.5 31.5q-32 0 -58.5 -10.5t-45.5 -30t-30 -47.5t-11 -63v-136q0 -35 11 -63t30 -47.5
t45.5 -30t58.5 -10.5q56 0 94.5 31.5t47.5 87.5h54q-5 -47 -24.5 -79.5t-46.5 -52.5t-60 -29t-65 -9zM290 592h-53v87h53v-87z" />
    <glyph glyph-name="dcaron" unicode="&#x10f;" horiz-adv-x="542" 
d="M533 542h-41l28 158h74zM462 0h-53v63q-23 -36 -62.5 -54.5t-82.5 -18.5q-35 0 -70 10.5t-63.5 34.5t-46.5 62.5t-18 94.5v136q0 56 18 94.5t46.5 62.5t63.5 34.5t70 10.5q43 0 82.5 -18.5t62.5 -54.5v243h53v-700zM409 328q0 35 -11 63t-30 47.5t-46 30t-58 10.5
q-32 0 -58.5 -10.5t-45.5 -30t-30 -47.5t-11 -63v-136q0 -35 11 -63t30 -47.5t45.5 -30t58.5 -10.5q31 0 58 10.5t46 30t30 47.5t11 63v136z" />
    <glyph glyph-name="dcroat" unicode="&#x111;" horiz-adv-x="542" 
d="M462 634h70v-43h-70v-591h-53v63q-23 -36 -62.5 -54.5t-82.5 -18.5q-35 0 -70 10.5t-63.5 34.5t-46.5 62.5t-18 94.5v136q0 56 18 94.5t46.5 62.5t63.5 34.5t70 10.5q43 0 82.5 -18.5t62.5 -54.5v134h-145v43h145v66h53v-66zM409 328q0 35 -11 63t-30 47.5t-46 30
t-58 10.5q-32 0 -58.5 -10.5t-45.5 -30t-30 -47.5t-11 -63v-136q0 -35 11 -63t30 -47.5t45.5 -30t58.5 -10.5q31 0 58 10.5t46 30t30 47.5t11 63v136z" />
    <glyph glyph-name="ebreve" unicode="&#x115;" horiz-adv-x="523" 
d="M119 192q0 -35 11 -63t30 -47.5t45.5 -30t58.5 -10.5q56 0 94.5 31.5t47.5 87.5h54q-5 -47 -24.5 -79.5t-46.5 -52.5t-60 -29t-65 -9q-35 0 -70 10.5t-63.5 34.5t-46.5 62.5t-18 94.5v136q0 56 18 94.5t46.5 62.5t63.5 34.5t70 10.5t70 -10.5t63.5 -34.5t46.5 -62.5
t18 -94.5v-75h-343v-61zM119 304h290v24q0 35 -11 63t-30 47.5t-46 30t-58 10.5q-32 0 -58.5 -10.5t-45.5 -30t-30 -47.5t-11 -63v-24zM276 620q33 0 56.5 23.5t23.5 56.5h49q0 -27 -10 -50.5t-27.5 -41t-41 -27.5t-50.5 -10h-24q-27 0 -50.5 10t-41 27.5t-27.5 41t-10 50.5
h49q0 -33 23.5 -56.5t56.5 -23.5h24z" />
    <glyph glyph-name="ecaron" unicode="&#x11b;" horiz-adv-x="523" 
d="M119 192q0 -35 11 -63t30 -47.5t45.5 -30t58.5 -10.5q56 0 94.5 31.5t47.5 87.5h54q-5 -47 -24.5 -79.5t-46.5 -52.5t-60 -29t-65 -9q-35 0 -70 10.5t-63.5 34.5t-46.5 62.5t-18 94.5v136q0 56 18 94.5t46.5 62.5t63.5 34.5t70 10.5t70 -10.5t63.5 -34.5t46.5 -62.5
t18 -94.5v-75h-343v-61zM119 304h290v24q0 35 -11 63t-30 47.5t-46 30t-58 10.5q-32 0 -58.5 -10.5t-45.5 -30t-30 -47.5t-11 -63v-24zM351 700h64l-125 -129h-52l-125 129h64l87 -83z" />
    <glyph glyph-name="emacron" unicode="&#x113;" horiz-adv-x="523" 
d="M119 192q0 -35 11 -63t30 -47.5t45.5 -30t58.5 -10.5q56 0 94.5 31.5t47.5 87.5h54q-5 -47 -24.5 -79.5t-46.5 -52.5t-60 -29t-65 -9q-35 0 -70 10.5t-63.5 34.5t-46.5 62.5t-18 94.5v136q0 56 18 94.5t46.5 62.5t63.5 34.5t70 10.5t70 -10.5t63.5 -34.5t46.5 -62.5
t18 -94.5v-75h-343v-61zM119 304h290v24q0 35 -11 63t-30 47.5t-46 30t-58 10.5q-32 0 -58.5 -10.5t-45.5 -30t-30 -47.5t-11 -63v-24zM120 613v45h289v-45h-289z" />
    <glyph glyph-name="eogonek" unicode="&#x119;" horiz-adv-x="523" 
d="M119 192q0 -35 11 -63t30 -47.5t45.5 -30t58.5 -10.5q56 0 94.5 31.5t47.5 87.5h54q-5 -44 -21.5 -74.5t-42.5 -51.5q-15 -12 -35.5 -27.5t-38.5 -32.5t-31 -35t-13 -36q0 -23 11.5 -33t28.5 -10q10 0 20.5 3.5t21.5 8.5v-48q-11 -7 -23 -10t-24 -3q-42 0 -65 23.5
t-23 62.5q0 32 18.5 55t47.5 40q-7 -1 -13.5 -1.5t-13.5 -0.5q-35 0 -70 10.5t-63.5 34.5t-46.5 62.5t-18 94.5v136q0 56 18 94.5t46.5 62.5t63.5 34.5t70 10.5t70 -10.5t63.5 -34.5t46.5 -62.5t18 -94.5v-75h-343v-61zM119 304h290v24q0 35 -11 63t-30 47.5t-46 30
t-58 10.5q-32 0 -58.5 -10.5t-45.5 -30t-30 -47.5t-11 -63v-24z" />
    <glyph glyph-name="edotaccent" unicode="&#x117;" horiz-adv-x="523" 
d="M119 192q0 -35 11 -63t30 -47.5t45.5 -30t58.5 -10.5q56 0 94.5 31.5t47.5 87.5h54q-5 -47 -24.5 -79.5t-46.5 -52.5t-60 -29t-65 -9q-35 0 -70 10.5t-63.5 34.5t-46.5 62.5t-18 94.5v136q0 56 18 94.5t46.5 62.5t63.5 34.5t70 10.5t70 -10.5t63.5 -34.5t46.5 -62.5
t18 -94.5v-75h-343v-61zM119 304h290v24q0 35 -11 63t-30 47.5t-46 30t-58 10.5q-32 0 -58.5 -10.5t-45.5 -30t-30 -47.5t-11 -63v-24zM291 592h-53v87h53v-87z" />
    <glyph glyph-name="gbreve" unicode="&#x11f;" horiz-adv-x="541" 
d="M408 77q-23 -36 -62.5 -54.5t-82.5 -18.5q-35 0 -70 10.5t-63.5 34.5t-46.5 62.5t-18 94.5v122q0 56 18 94.5t46.5 62.5t63.5 34.5t70 10.5q43 0 82.5 -18.5t62.5 -54.5v59h53v-508q0 -56 -18 -94.5t-46.5 -62.5t-63.5 -34.5t-70 -10.5q-32 0 -65 9t-60 29t-46.5 52.5
t-24.5 79.5h54q9 -56 47.5 -87.5t94.5 -31.5q31 0 58 10.5t46 30t30 47.5t11 63v69zM408 328q0 35 -11 63t-30 47.5t-46 30t-58 10.5q-32 0 -58.5 -10.5t-45.5 -30t-30 -47.5t-11 -63v-122q0 -35 11 -63t30 -47.5t45.5 -30t58.5 -10.5q31 0 58 10.5t46 30t30 47.5t11 63v122
zM275 620q33 0 56.5 23.5t23.5 56.5h49q0 -27 -10 -50.5t-27.5 -41t-41 -27.5t-50.5 -10h-24q-27 0 -50.5 10t-41 27.5t-27.5 41t-10 50.5h49q0 -33 23.5 -56.5t56.5 -23.5h24z" />
    <glyph glyph-name="gcircumflex" unicode="&#x11d;" horiz-adv-x="541" 
d="M408 77q-23 -36 -62.5 -54.5t-82.5 -18.5q-35 0 -70 10.5t-63.5 34.5t-46.5 62.5t-18 94.5v122q0 56 18 94.5t46.5 62.5t63.5 34.5t70 10.5q43 0 82.5 -18.5t62.5 -54.5v59h53v-508q0 -56 -18 -94.5t-46.5 -62.5t-63.5 -34.5t-70 -10.5q-32 0 -65 9t-60 29t-46.5 52.5
t-24.5 79.5h54q9 -56 47.5 -87.5t94.5 -31.5q31 0 58 10.5t46 30t30 47.5t11 63v69zM408 328q0 35 -11 63t-30 47.5t-46 30t-58 10.5q-32 0 -58.5 -10.5t-45.5 -30t-30 -47.5t-11 -63v-122q0 -35 11 -63t30 -47.5t45.5 -30t58.5 -10.5q31 0 58 10.5t46 30t30 47.5t11 63v122
zM263 654l-87 -83h-64l125 129h52l125 -129h-64z" />
    <glyph glyph-name="gcommaaccent" unicode="&#x123;" horiz-adv-x="541" 
d="M408 77q-23 -36 -62.5 -54.5t-82.5 -18.5q-35 0 -70 10.5t-63.5 34.5t-46.5 62.5t-18 94.5v122q0 56 18 94.5t46.5 62.5t63.5 34.5t70 10.5q43 0 82.5 -18.5t62.5 -54.5v59h53v-508q0 -56 -18 -94.5t-46.5 -62.5t-63.5 -34.5t-70 -10.5q-32 0 -65 9t-60 29t-46.5 52.5
t-24.5 79.5h54q9 -56 47.5 -87.5t94.5 -31.5q31 0 58 10.5t46 30t30 47.5t11 63v69zM408 328q0 35 -11 63t-30 47.5t-46 30t-58 10.5q-32 0 -58.5 -10.5t-45.5 -30t-30 -47.5t-11 -63v-122q0 -35 11 -63t30 -47.5t45.5 -30t58.5 -10.5q31 0 58 10.5t46 30t30 47.5t11 63v122
zM299.981 570.965h-73.9951v73.9961l20.999 73.9951h48.9971l-20.999 -73.9951h24.998v-73.9961z" />
    <glyph glyph-name="gdotaccent" unicode="&#x121;" horiz-adv-x="541" 
d="M408 77q-23 -36 -62.5 -54.5t-82.5 -18.5q-35 0 -70 10.5t-63.5 34.5t-46.5 62.5t-18 94.5v122q0 56 18 94.5t46.5 62.5t63.5 34.5t70 10.5q43 0 82.5 -18.5t62.5 -54.5v59h53v-508q0 -56 -18 -94.5t-46.5 -62.5t-63.5 -34.5t-70 -10.5q-32 0 -65 9t-60 29t-46.5 52.5
t-24.5 79.5h54q9 -56 47.5 -87.5t94.5 -31.5q31 0 58 10.5t46 30t30 47.5t11 63v69zM408 328q0 35 -11 63t-30 47.5t-46 30t-58 10.5q-32 0 -58.5 -10.5t-45.5 -30t-30 -47.5t-11 -63v-122q0 -35 11 -63t30 -47.5t45.5 -30t58.5 -10.5q31 0 58 10.5t46 30t30 47.5t11 63v122
zM290 592h-53v87h53v-87z" />
    <glyph glyph-name="hbar" unicode="&#x127;" horiz-adv-x="549" 
d="M133 0h-53v591h-70v43h70v66h53v-66h145v-43h-145v-134q23 36 62.5 54.5t82.5 18.5q35 0 70 -10.5t63.5 -34.5t46.5 -62.5t18 -94.5v-328h-53v328q0 35 -11 63t-30 47.5t-46 30t-58 10.5q-32 0 -58.5 -10.5t-45.5 -30t-30 -47.5t-11 -63v-328z" />
    <glyph glyph-name="hcircumflex" unicode="&#x125;" horiz-adv-x="549" 
d="M133 0h-53v700h53v-243q23 36 62.5 54.5t82.5 18.5q35 0 70 -10.5t63.5 -34.5t46.5 -62.5t18 -94.5v-328h-53v328q0 35 -11 63t-30 47.5t-46 30t-58 10.5q-32 0 -58.5 -10.5t-45.5 -30t-30 -47.5t-11 -63v-328zM278 828l-87 -83h-64l125 129h52l125 -129h-64z" />
    <glyph glyph-name="dotlessi" unicode="&#x131;" horiz-adv-x="213" 
d="M133 516v-516h-53v516h53z" />
    <glyph glyph-name="ibreve" unicode="&#x12d;" horiz-adv-x="213" 
d="M133 516v-516h-53v516h53zM119 620q33 0 56.5 23.5t23.5 56.5h49q0 -27 -10 -50.5t-27.5 -41t-41 -27.5t-50.5 -10h-24q-27 0 -50.5 10t-41 27.5t-27.5 41t-10 50.5h49q0 -33 23.5 -56.5t56.5 -23.5h24z" />
    <glyph glyph-name="imacron" unicode="&#x12b;" horiz-adv-x="213" 
d="M133 516v-516h-53v516h53zM-37 613v45h289v-45h-289z" />
    <glyph glyph-name="iogonek" unicode="&#x12f;" horiz-adv-x="213" 
d="M133 516v-516h-53v516h53zM133 613h-53v87h53v-87zM134 0q-31 -23 -56.5 -46.5t-25.5 -50.5q0 -23 11.5 -33t28.5 -10q10 0 20.5 3.5t21.5 8.5v-48q-11 -7 -23 -10t-24 -3q-42 0 -65 23.5t-23 62.5q0 36 24 61t58 42h53z" />
    <glyph glyph-name="itilde" unicode="&#x129;" horiz-adv-x="213" 
d="M133 516v-516h-53v516h53zM262 679q-9 -29 -21.5 -46.5t-26 -26.5t-28 -12t-26.5 -3q-11 0 -22 2.5t-23 9.5l-33 19q-5 3 -13.5 6.5t-19.5 3.5t-23.5 -8t-23.5 -31h-49q9 29 21.5 46.5t26 26.5t28 12t26.5 3q11 0 22 -2.5t23 -9.5l33 -19q5 -3 13.5 -6.5t19.5 -3.5
t23.5 8t23.5 31h49z" />
    <glyph glyph-name="uni1ECB" unicode="&#x1ecb;" horiz-adv-x="213" 
d="M133 516v-516h-53v516h53zM133 613h-53v87h53v-87zM133 -136h-53v87h53v-87z" />
    <glyph glyph-name="dotlessj" unicode="&#x237;" horiz-adv-x="213" 
d="M80 516h53v-597q0 -25 -4.5 -44t-16.5 -32t-33 -20t-53 -7h-10v51h10q34 0 44 12t10 40v597z" />
    <glyph glyph-name="jcircumflex" unicode="&#x135;" horiz-adv-x="213" 
d="M80 516h53v-597q0 -25 -4.5 -44t-16.5 -32t-33 -20t-53 -7h-10v51h10q34 0 44 12t10 40v597zM106 654l-87 -83h-64l125 129h52l125 -129h-64z" />
    <glyph glyph-name="kcommaaccent" unicode="&#x137;" horiz-adv-x="489" 
d="M133 247l248 269h68l-187 -203l212 -313h-63l-186 274l-92 -100v-174h-53v700h53v-453zM226 -50h74v-74l-21 -74h-49l21 74h-25v74z" />
    <glyph glyph-name="lacute" unicode="&#x13a;" horiz-adv-x="242" 
d="M131 103q0 -28 10 -40t44 -12h10v-51h-10q-32 0 -53 7t-33 20t-16.5 32t-4.5 44v597h53v-597zM218 874l-118 -129h-51l85 129h84z" />
    <glyph glyph-name="lcaron" unicode="&#x13e;" horiz-adv-x="242" 
d="M202 542h-41l28 158h74zM131 103q0 -28 10 -40t44 -12h10v-51h-10q-32 0 -53 7t-33 20t-16.5 32t-4.5 44v597h53v-597z" />
    <glyph glyph-name="lcommaaccent" unicode="&#x13c;" horiz-adv-x="242" 
d="M131 103q0 -28 10 -40t44 -12h10v-51h-10q-32 0 -53 7t-33 20t-16.5 32t-4.5 44v597h53v-597zM99 -50h74v-74l-21 -74h-49l21 74h-25v74z" />
    <glyph glyph-name="ldot" unicode="&#x140;" horiz-adv-x="264" 
d="M131 103q0 -28 10 -40t44 -12h10v-51h-10q-32 0 -53 7t-33 20t-16.5 32t-4.5 44v597h53v-597zM264 333h-53v87h53v-87z" />
    <glyph glyph-name="lslash" unicode="&#x142;" horiz-adv-x="262" 
d="M141 408l64 36v-49l-64 -36v-256q0 -28 10 -40t44 -12h10v-51h-10q-32 0 -53 7t-33 20t-16.5 32t-4.5 44v227l-64 -35v49l64 35v321h53v-292z" />
    <glyph glyph-name="eng" unicode="&#x14b;" horiz-adv-x="549" 
d="M423 328q0 35 -11 63t-30 47.5t-46 30t-58 10.5q-32 0 -58.5 -10.5t-45.5 -30t-30 -47.5t-11 -63v-328h-53v516h53v-59q23 36 62.5 54.5t82.5 18.5q35 0 70 -10.5t63.5 -34.5t46.5 -62.5t18 -94.5v-409q0 -25 -4.5 -44t-16.5 -32t-33 -20t-53 -7h-10v51h10q34 0 44 12
t10 40v409z" />
    <glyph glyph-name="nacute" unicode="&#x144;" horiz-adv-x="549" 
d="M133 0h-53v516h53v-59q23 36 62.5 54.5t82.5 18.5q35 0 70 -10.5t63.5 -34.5t46.5 -62.5t18 -94.5v-328h-53v328q0 35 -11 63t-30 47.5t-46 30t-58 10.5q-32 0 -58.5 -10.5t-45.5 -30t-30 -47.5t-11 -63v-328zM391 700l-118 -129h-51l85 129h84z" />
    <glyph glyph-name="ncaron" unicode="&#x148;" horiz-adv-x="549" 
d="M133 0h-53v516h53v-59q23 36 62.5 54.5t82.5 18.5q35 0 70 -10.5t63.5 -34.5t46.5 -62.5t18 -94.5v-328h-53v328q0 35 -11 63t-30 47.5t-46 30t-58 10.5q-32 0 -58.5 -10.5t-45.5 -30t-30 -47.5t-11 -63v-328zM365 700h64l-125 -129h-52l-125 129h64l87 -83z" />
    <glyph glyph-name="ncommaaccent" unicode="&#x146;" horiz-adv-x="549" 
d="M133 0h-53v516h53v-59q23 36 62.5 54.5t82.5 18.5q35 0 70 -10.5t63.5 -34.5t46.5 -62.5t18 -94.5v-328h-53v328q0 35 -11 63t-30 47.5t-46 30t-58 10.5q-32 0 -58.5 -10.5t-45.5 -30t-30 -47.5t-11 -63v-328zM241 -50h74v-74l-21 -74h-49l21 74h-25v74z" />
    <glyph glyph-name="oe" unicode="&#x153;" horiz-adv-x="866" 
d="M409 328q0 35 -11 63t-30 47.5t-46 30t-58 10.5q-32 0 -58.5 -10.5t-45.5 -30t-30 -47.5t-11 -63v-136q0 -35 11 -63t30 -47.5t45.5 -30t58.5 -10.5q31 0 58 10.5t46 30t30 47.5t11 63v136zM462 304h290v24q0 35 -11 63t-30 47.5t-46 30t-58 10.5q-32 0 -58.5 -10.5
t-45.5 -30t-30 -47.5t-11 -63v-24zM264 -10q-35 0 -70 10.5t-63.5 34.5t-46.5 62.5t-18 94.5v136q0 56 18 94.5t46.5 62.5t63.5 34.5t70 10.5q56 0 102 -26.5t69 -73.5q23 47 69 73.5t103 26.5q35 0 70 -10.5t63.5 -34.5t46.5 -62.5t18 -94.5v-75h-343v-61q0 -35 11 -63
t30 -47.5t45.5 -30t58.5 -10.5q56 0 94.5 31.5t47.5 87.5h54q-5 -47 -24.5 -79.5t-46.5 -52.5t-60 -29t-65 -9q-57 0 -103 26.5t-69 73.5q-23 -47 -69 -73.5t-102 -26.5z" />
    <glyph glyph-name="obreve" unicode="&#x14f;" horiz-adv-x="528" 
d="M462 192q0 -56 -18 -94.5t-46.5 -62.5t-63.5 -34.5t-70 -10.5t-70 10.5t-63.5 34.5t-46.5 62.5t-18 94.5v136q0 56 18 94.5t46.5 62.5t63.5 34.5t70 10.5t70 -10.5t63.5 -34.5t46.5 -62.5t18 -94.5v-136zM409 328q0 35 -11 63t-30 47.5t-46 30t-58 10.5
q-32 0 -58.5 -10.5t-45.5 -30t-30 -47.5t-11 -63v-136q0 -35 11 -63t30 -47.5t45.5 -30t58.5 -10.5q31 0 58 10.5t46 30t30 47.5t11 63v136zM276 620q33 0 56.5 23.5t23.5 56.5h49q0 -27 -10 -50.5t-27.5 -41t-41 -27.5t-50.5 -10h-24q-27 0 -50.5 10t-41 27.5t-27.5 41
t-10 50.5h49q0 -33 23.5 -56.5t56.5 -23.5h24z" />
    <glyph glyph-name="ohungarumlaut" unicode="&#x151;" horiz-adv-x="528" 
d="M462 192q0 -56 -18 -94.5t-46.5 -62.5t-63.5 -34.5t-70 -10.5t-70 10.5t-63.5 34.5t-46.5 62.5t-18 94.5v136q0 56 18 94.5t46.5 62.5t63.5 34.5t70 10.5t70 -10.5t63.5 -34.5t46.5 -62.5t18 -94.5v-136zM409 328q0 35 -11 63t-30 47.5t-46 30t-58 10.5
q-32 0 -58.5 -10.5t-45.5 -30t-30 -47.5t-11 -63v-136q0 -35 11 -63t30 -47.5t45.5 -30t58.5 -10.5q31 0 58 10.5t46 30t30 47.5t11 63v136zM298 700l-108 -129h-46l75 129h79zM462 700l-108 -129h-46l75 129h79z" />
    <glyph glyph-name="omacron" unicode="&#x14d;" horiz-adv-x="528" 
d="M462 192q0 -56 -18 -94.5t-46.5 -62.5t-63.5 -34.5t-70 -10.5t-70 10.5t-63.5 34.5t-46.5 62.5t-18 94.5v136q0 56 18 94.5t46.5 62.5t63.5 34.5t70 10.5t70 -10.5t63.5 -34.5t46.5 -62.5t18 -94.5v-136zM409 328q0 35 -11 63t-30 47.5t-46 30t-58 10.5
q-32 0 -58.5 -10.5t-45.5 -30t-30 -47.5t-11 -63v-136q0 -35 11 -63t30 -47.5t45.5 -30t58.5 -10.5q31 0 58 10.5t46 30t30 47.5t11 63v136zM120 613v45h289v-45h-289z" />
    <glyph glyph-name="uni1ECD" unicode="&#x1ecd;" horiz-adv-x="528" 
d="M462 192q0 -56 -18 -94.5t-46.5 -62.5t-63.5 -34.5t-70 -10.5t-70 10.5t-63.5 34.5t-46.5 62.5t-18 94.5v136q0 56 18 94.5t46.5 62.5t63.5 34.5t70 10.5t70 -10.5t63.5 -34.5t46.5 -62.5t18 -94.5v-136zM409 328q0 35 -11 63t-30 47.5t-46 30t-58 10.5
q-32 0 -58.5 -10.5t-45.5 -30t-30 -47.5t-11 -63v-136q0 -35 11 -63t30 -47.5t45.5 -30t58.5 -10.5q31 0 58 10.5t46 30t30 47.5t11 63v136zM291 -136h-53v87h53v-87z" />
    <glyph glyph-name="racute" unicode="&#x155;" horiz-adv-x="315" 
d="M278 474q-32 0 -58.5 -10.5t-45.5 -30t-30 -47.5t-11 -63v-323h-53v516h53v-64q23 36 62.5 54.5t82.5 18.5h15v-51h-15zM299 700l-118 -129h-51l85 129h84z" />
    <glyph glyph-name="rcaron" unicode="&#x159;" horiz-adv-x="315" 
d="M278 474q-32 0 -58.5 -10.5t-45.5 -30t-30 -47.5t-11 -63v-323h-53v516h53v-64q23 36 62.5 54.5t82.5 18.5h15v-51h-15zM274 700h64l-125 -129h-52l-125 129h64l87 -83z" />
    <glyph glyph-name="rcommaaccent" unicode="&#x157;" horiz-adv-x="315" 
d="M278 474q-32 0 -58.5 -10.5t-45.5 -30t-30 -47.5t-11 -63v-323h-53v516h53v-64q23 36 62.5 54.5t82.5 18.5h15v-51h-15zM70 -50h74v-74l-21 -74h-49l21 74h-25v74z" />
    <glyph glyph-name="sacute" unicode="&#x15b;" horiz-adv-x="484" 
d="M369 368q-5 53 -43 82t-92 29q-24 0 -46.5 -5t-40 -16t-28.5 -28t-11 -41q0 -35 20.5 -55.5t68.5 -31.5l99 -22q73 -16 106.5 -51.5t33.5 -101.5q0 -67 -51 -102t-133 -35q-39 0 -75 9.5t-64.5 30t-47 53t-21.5 78.5h54q4 -33 18.5 -56t36.5 -37t48 -20.5t52 -6.5
t49.5 5.5t41.5 16t28.5 27t10.5 38.5q0 36 -20.5 61.5t-67.5 35.5l-116 26q-54 12 -89 44.5t-35 93.5q0 35 15 61.5t40.5 44t57.5 26.5t67 9q36 0 68.5 -10t58 -30t42 -50.5t19.5 -71.5h-54zM353 700l-118 -129h-51l85 129h84z" />
    <glyph glyph-name="scaron" unicode="&#x161;" horiz-adv-x="484" 
d="M369 368q-5 53 -43 82t-92 29q-24 0 -46.5 -5t-40 -16t-28.5 -28t-11 -41q0 -35 20.5 -55.5t68.5 -31.5l99 -22q73 -16 106.5 -51.5t33.5 -101.5q0 -67 -51 -102t-133 -35q-39 0 -75 9.5t-64.5 30t-47 53t-21.5 78.5h54q4 -33 18.5 -56t36.5 -37t48 -20.5t52 -6.5
t49.5 5.5t41.5 16t28.5 27t10.5 38.5q0 36 -20.5 61.5t-67.5 35.5l-116 26q-54 12 -89 44.5t-35 93.5q0 35 15 61.5t40.5 44t57.5 26.5t67 9q36 0 68.5 -10t58 -30t42 -50.5t19.5 -71.5h-54zM327 700h64l-125 -129h-52l-125 129h64l87 -83z" />
    <glyph glyph-name="scedilla" unicode="&#x15f;" horiz-adv-x="484" 
d="M369 368q-5 53 -43 82t-92 29q-24 0 -46.5 -5t-40 -16t-28.5 -28t-11 -41q0 -35 20.5 -55.5t68.5 -31.5l99 -22q73 -16 106.5 -51.5t33.5 -101.5q0 -67 -51 -102t-133 -35q-39 0 -75 9.5t-64.5 30t-47 53t-21.5 78.5h54q4 -33 18.5 -56t36.5 -37t48 -20.5t52 -6.5
t49.5 5.5t41.5 16t28.5 27t10.5 38.5q0 36 -20.5 61.5t-67.5 35.5l-116 26q-54 12 -89 44.5t-35 93.5q0 35 15 61.5t40.5 44t57.5 26.5t67 9q36 0 68.5 -10t58 -30t42 -50.5t19.5 -71.5h-54zM246 0h49l-38 -158h-69z" />
    <glyph glyph-name="scircumflex" unicode="&#x15d;" horiz-adv-x="484" 
d="M369 368q-5 53 -43 82t-92 29q-24 0 -46.5 -5t-40 -16t-28.5 -28t-11 -41q0 -35 20.5 -55.5t68.5 -31.5l99 -22q73 -16 106.5 -51.5t33.5 -101.5q0 -67 -51 -102t-133 -35q-39 0 -75 9.5t-64.5 30t-47 53t-21.5 78.5h54q4 -33 18.5 -56t36.5 -37t48 -20.5t52 -6.5
t49.5 5.5t41.5 16t28.5 27t10.5 38.5q0 36 -20.5 61.5t-67.5 35.5l-116 26q-54 12 -89 44.5t-35 93.5q0 35 15 61.5t40.5 44t57.5 26.5t67 9q36 0 68.5 -10t58 -30t42 -50.5t19.5 -71.5h-54zM240 654l-87 -83h-64l125 129h52l125 -129h-64z" />
    <glyph glyph-name="scommaaccent" unicode="&#x219;" horiz-adv-x="484" 
d="M369 368q-5 53 -43 82t-92 29q-24 0 -46.5 -5t-40 -16t-28.5 -28t-11 -41q0 -35 20.5 -55.5t68.5 -31.5l99 -22q73 -16 106.5 -51.5t33.5 -101.5q0 -67 -51 -102t-133 -35q-39 0 -75 9.5t-64.5 30t-47 53t-21.5 78.5h54q4 -33 18.5 -56t36.5 -37t48 -20.5t52 -6.5
t49.5 5.5t41.5 16t28.5 27t10.5 38.5q0 36 -20.5 61.5t-67.5 35.5l-116 26q-54 12 -89 44.5t-35 93.5q0 35 15 61.5t40.5 44t57.5 26.5t67 9q36 0 68.5 -10t58 -30t42 -50.5t19.5 -71.5h-54zM203 -50h74v-74l-21 -74h-49l21 74h-25v74z" />
    <glyph glyph-name="tbar" unicode="&#x167;" horiz-adv-x="329" 
d="M157 317h127v-43h-127v-171q0 -28 10 -40t44 -12h73v-51h-73q-32 0 -53 7t-33 20t-16.5 32t-4.5 44v171h-73v43h73v148h-73v51h73v117h53v-117h127v-51h-127v-148z" />
    <glyph glyph-name="tcaron" unicode="&#x165;" horiz-adv-x="329" 
d="M257 571h-41l19 129h74zM157 103q0 -28 10 -40t44 -12h73v-51h-73q-32 0 -53 7t-33 20t-16.5 32t-4.5 44v362h-73v51h73v117h53v-117h127v-51h-127v-362z" />
    <glyph glyph-name="uni0163" unicode="&#x163;" horiz-adv-x="329" 
d="M157 103q0 -28 10 -40t44 -12h73v-51h-73q-32 0 -53 7t-33 20t-16.5 32t-4.5 44v362h-73v51h73v117h53v-117h127v-51h-127v-362zM157 -50h74v-74l-21 -74h-49l21 74h-25v74z" />
    <glyph glyph-name="tcommaaccent" unicode="&#x21b;" horiz-adv-x="329" 
d="M157 103q0 -28 10 -40t44 -12h73v-51h-73q-32 0 -53 7t-33 20t-16.5 32t-4.5 44v362h-73v51h73v117h53v-117h127v-51h-127v-362zM157 -50h74v-74l-21 -74h-49l21 74h-25v74z" />
    <glyph glyph-name="ubreve" unicode="&#x16d;" horiz-adv-x="542" 
d="M409 516h53v-516h-53v63q-23 -36 -63 -54.5t-78 -18.5q-33 0 -68 10.5t-63 34.5t-46 62.5t-18 94.5v324h53v-324q0 -35 11 -63t30 -47.5t45 -30t56 -10.5q29 0 55 10.5t45 30t30 47.5t11 63v324zM279 620q33 0 56.5 23.5t23.5 56.5h49q0 -27 -10 -50.5t-27.5 -41
t-41 -27.5t-50.5 -10h-24q-27 0 -50.5 10t-41 27.5t-27.5 41t-10 50.5h49q0 -33 23.5 -56.5t56.5 -23.5h24z" />
    <glyph glyph-name="uhungarumlaut" unicode="&#x171;" horiz-adv-x="542" 
d="M409 516h53v-516h-53v63q-23 -36 -63 -54.5t-78 -18.5q-33 0 -68 10.5t-63 34.5t-46 62.5t-18 94.5v324h53v-324q0 -35 11 -63t30 -47.5t45 -30t56 -10.5q29 0 55 10.5t45 30t30 47.5t11 63v324zM298 700l-108 -129h-46l75 129h79zM462 700l-108 -129h-46l75 129h79z" />
    <glyph glyph-name="umacron" unicode="&#x16b;" horiz-adv-x="542" 
d="M409 516h53v-516h-53v63q-23 -36 -63 -54.5t-78 -18.5q-33 0 -68 10.5t-63 34.5t-46 62.5t-18 94.5v324h53v-324q0 -35 11 -63t30 -47.5t45 -30t56 -10.5q29 0 55 10.5t45 30t30 47.5t11 63v324zM123 613v45h289v-45h-289z" />
    <glyph glyph-name="uogonek" unicode="&#x173;" horiz-adv-x="542" 
d="M409 516h53v-516h-53v63q-23 -36 -63 -54.5t-78 -18.5q-33 0 -68 10.5t-63 34.5t-46 62.5t-18 94.5v324h53v-324q0 -35 11 -63t30 -47.5t45 -30t56 -10.5q29 0 55 10.5t45 30t30 47.5t11 63v324zM462 0q-31 -23 -56.5 -46.5t-25.5 -50.5q0 -23 11.5 -33t28.5 -10
q10 0 20.5 3.5t21.5 8.5v-48q-11 -7 -23 -10t-24 -3q-42 0 -65 23.5t-23 62.5q0 36 24 61t58 42h53z" />
    <glyph glyph-name="uring" unicode="&#x16f;" horiz-adv-x="542" 
d="M409 516h53v-516h-53v63q-23 -36 -63 -54.5t-78 -18.5q-33 0 -68 10.5t-63 34.5t-46 62.5t-18 94.5v324h53v-324q0 -35 11 -63t30 -47.5t45 -30t56 -10.5q29 0 55 10.5t45 30t30 47.5t11 63v324zM193 635q0 31 21.5 53t52.5 22t53 -22t22 -53t-22 -52.5t-53 -21.5
t-52.5 21.5t-21.5 52.5zM236 635q0 -13 9 -22t22 -9t22.5 9t9.5 22t-9.5 22.5t-22.5 9.5t-22 -9.5t-9 -22.5z" />
    <glyph glyph-name="utilde" unicode="&#x169;" horiz-adv-x="542" 
d="M409 516h53v-516h-53v63q-23 -36 -63 -54.5t-78 -18.5q-33 0 -68 10.5t-63 34.5t-46 62.5t-18 94.5v324h53v-324q0 -35 11 -63t30 -47.5t45 -30t56 -10.5q29 0 55 10.5t45 30t30 47.5t11 63v324zM422 679q-9 -29 -21.5 -46.5t-26 -26.5t-28 -12t-26.5 -3q-11 0 -22 2.5
t-23 9.5l-33 19q-5 3 -13.5 6.5t-19.5 3.5t-23.5 -8t-23.5 -31h-49q9 29 21.5 46.5t26 26.5t28 12t26.5 3q11 0 22 -2.5t23 -9.5l33 -19q5 -3 13.5 -6.5t19.5 -3.5t23.5 8t23.5 31h49z" />
    <glyph glyph-name="uni1EE5" unicode="&#x1ee5;" horiz-adv-x="542" 
d="M409 516h53v-516h-53v63q-23 -36 -63 -54.5t-78 -18.5q-33 0 -68 10.5t-63 34.5t-46 62.5t-18 94.5v324h53v-324q0 -35 11 -63t30 -47.5t45 -30t56 -10.5q29 0 55 10.5t45 30t30 47.5t11 63v324zM294 -136h-53v87h53v-87z" />
    <glyph glyph-name="wacute" unicode="&#x1e83;" horiz-adv-x="676" 
d="M371 516l119 -443l113 443h55l-136 -516h-63l-121 453l-121 -453h-63l-136 516h55l113 -443l119 443h66zM451 700l-118 -129h-51l85 129h84z" />
    <glyph glyph-name="wcircumflex" unicode="&#x175;" horiz-adv-x="676" 
d="M371 516l119 -443l113 443h55l-136 -516h-63l-121 453l-121 -453h-63l-136 516h55l113 -443l119 443h66zM338 654l-87 -83h-64l125 129h52l125 -129h-64z" />
    <glyph glyph-name="wdieresis" unicode="&#x1e85;" horiz-adv-x="676" 
d="M371 516l119 -443l113 443h55l-136 -516h-63l-121 453l-121 -453h-63l-136 516h55l113 -443l119 443h66zM258 592h-53v87h53v-87zM471 592h-53v87h53v-87z" />
    <glyph glyph-name="wgrave" unicode="&#x1e81;" horiz-adv-x="676" 
d="M371 516l119 -443l113 443h55l-136 -516h-63l-121 453l-121 -453h-63l-136 516h55l113 -443l119 443h66zM309 700l85 -129h-51l-118 129h84z" />
    <glyph glyph-name="ycircumflex" unicode="&#x177;" horiz-adv-x="452" 
d="M226 -81q-8 -22 -15.5 -40.5t-19 -32.5t-29.5 -22t-46 -8h-26v51h27q28 0 38.5 15.5t19.5 40.5l25 70l-189 523h57l158 -447l158 447h57zM226 654l-87 -83h-64l125 129h52l125 -129h-64z" />
    <glyph glyph-name="ygrave" unicode="&#x1ef3;" horiz-adv-x="452" 
d="M226 -81q-8 -22 -15.5 -40.5t-19 -32.5t-29.5 -22t-46 -8h-26v51h27q28 0 38.5 15.5t19.5 40.5l25 70l-189 523h57l158 -447l158 447h57zM197 700l85 -129h-51l-118 129h84z" />
    <glyph glyph-name="uni0233" unicode="&#x233;" horiz-adv-x="452" 
d="M226 -81q-8 -22 -15.5 -40.5t-19 -32.5t-29.5 -22t-46 -8h-26v51h27q28 0 38.5 15.5t19.5 40.5l25 70l-189 523h57l158 -447l158 447h57zM82 613v45h289v-45h-289z" />
    <glyph glyph-name="zacute" unicode="&#x17a;" horiz-adv-x="477" 
d="M108 51h326v-51h-390v51l320 414h-313v51h376v-51zM352 700l-118 -129h-51l85 129h84z" />
    <glyph glyph-name="zcaron" unicode="&#x17e;" horiz-adv-x="477" 
d="M108 51h326v-51h-390v51l320 414h-313v51h376v-51zM326 700h64l-125 -129h-52l-125 129h64l87 -83z" />
    <glyph glyph-name="zdotaccent" unicode="&#x17c;" horiz-adv-x="477" 
d="M108 51h326v-51h-390v51l320 414h-313v51h376v-51zM266 592h-53v87h53v-87z" />
    <glyph glyph-name="ellipsis" unicode="&#x2026;" horiz-adv-x="750" 
d="M84 84h84v-84h-84v84zM333 84h84v-84h-84v84zM583 84h84v-84h-84v84z" />
    <glyph glyph-name="endash" unicode="&#x2013;" horiz-adv-x="516" 
d="M60 258v45h396v-45h-396z" />
    <glyph glyph-name="emdash" unicode="&#x2014;" horiz-adv-x="819" 
d="M60 258v45h699v-45h-699z" />
    <glyph glyph-name="guilsinglleft" unicode="&#x2039;" horiz-adv-x="294" 
d="M62 246v54l162 143v-59l-126 -111l126 -111v-59z" />
    <glyph glyph-name="guilsinglright" unicode="&#x203a;" horiz-adv-x="294" 
d="M70 103v59l126 111l-126 111v59l162 -143v-54z" />
    <glyph glyph-name="quoteleft" unicode="&#x2018;" horiz-adv-x="230" 
d="M157 532h-84v84l31 84h49l-31 -84h35v-84z" />
    <glyph glyph-name="quoteright" unicode="&#x2019;" horiz-adv-x="230" 
d="M73 700h84v-84l-31 -84h-49l31 84h-35v84z" />
    <glyph glyph-name="quotedblleft" unicode="&#x201c;" horiz-adv-x="377" 
d="M304 532h-84v84l31 84h49l-31 -84h35v-84zM157 532h-84v84l31 84h49l-31 -84h35v-84z" />
    <glyph glyph-name="quotedblright" unicode="&#x201d;" horiz-adv-x="377" 
d="M220 700h84v-84l-31 -84h-49l31 84h-35v84zM73 700h84v-84l-31 -84h-49l31 84h-35v84z" />
    <glyph glyph-name="quotesinglbase" unicode="&#x201a;" horiz-adv-x="230" 
d="M73 84h84v-84l-31 -84h-49l31 84h-35v84z" />
    <glyph glyph-name="quotedblbase" unicode="&#x201e;" horiz-adv-x="377" 
d="M220 84h84v-84l-31 -84h-49l31 84h-35v84zM73 84h84v-84l-31 -84h-49l31 84h-35v84z" />
    <glyph glyph-name="bullet" unicode="&#x2022;" horiz-adv-x="800" 
d="M232 298q0 35 13 65.5t36 53.5t53.5 36t65.5 13t65.5 -13t53.5 -36t36 -53.5t13 -65.5t-13 -65.5t-36 -53.5t-53.5 -36t-65.5 -13t-65.5 13t-53.5 36t-36 53.5t-13 65.5z" />
    <glyph glyph-name="dagger" unicode="&#x2020;" horiz-adv-x="585" 
d="M314 471v-558h-43v558h-176v45h176v184h43v-184h176v-45h-176z" />
    <glyph glyph-name="daggerdbl" unicode="&#x2021;" horiz-adv-x="585" 
d="M314 97v-184h-43v184h-176v45h176v329h-176v45h176v184h43v-184h176v-45h-176v-329h176v-45h-176z" />
    <glyph glyph-name="perthousand" unicode="&#x2030;" horiz-adv-x="1100" 
d="M911 36q30 0 52 18.5t22 56.5v184q0 38 -22 56.5t-52 18.5q-29 0 -51.5 -18.5t-22.5 -56.5v-184q0 -38 22.5 -56.5t51.5 -18.5zM911 -6q-21 0 -41.5 6t-37.5 19.5t-27.5 36t-10.5 55.5v184q0 33 10.5 55.5t27.5 36t37.5 19.5t41.5 6t42 -6t37.5 -19.5t27 -36t10.5 -55.5
v-184q0 -33 -10.5 -55.5t-27 -36t-37.5 -19.5t-42 -6zM668 700l-481 -700h-48l481 700h48zM189 330q30 0 52 18.5t22 56.5v184q0 38 -22 56.5t-52 18.5q-29 0 -51.5 -18.5t-22.5 -56.5v-184q0 -38 22.5 -56.5t51.5 -18.5zM189 288q-21 0 -41.5 6t-37.5 19.5t-27.5 36
t-10.5 55.5v184q0 33 10.5 55.5t27.5 36t37.5 19.5t41.5 6t42 -6t37.5 -19.5t27 -36t10.5 -55.5v-184q0 -33 -10.5 -55.5t-27 -36t-37.5 -19.5t-42 -6zM617 36q30 0 52 18.5t22 56.5v184q0 38 -22 56.5t-52 18.5q-29 0 -51.5 -18.5t-22.5 -56.5v-184q0 -38 22.5 -56.5
t51.5 -18.5zM617 -6q-21 0 -41.5 6t-37.5 19.5t-27.5 36t-10.5 55.5v184q0 33 10.5 55.5t27.5 36t37.5 19.5t41.5 6t42 -6t37.5 -19.5t27 -36t10.5 -55.5v-184q0 -33 -10.5 -55.5t-27 -36t-37.5 -19.5t-42 -6z" />
    <glyph glyph-name="uni2117" unicode="&#x2117;" horiz-adv-x="820" 
d="M50 350q0 75 28.5 140.5t77 114t114 77t140.5 28.5t140.5 -28.5t114 -77t77 -114t28.5 -140.5t-28.5 -140.5t-77 -114t-114 -77t-140.5 -28.5t-140.5 28.5t-114 77t-77 114t-28.5 140.5zM93 350q0 -66 25 -123.5t67.5 -101t100.5 -68.5t124 -25t124 25t100.5 68.5
t67.5 101t25 123.5t-25 123.5t-67.5 101t-100.5 68.5t-124 25t-124 -25t-100.5 -68.5t-67.5 -101t-25 -123.5zM294 568h141q68 0 102 -35.5t34 -95.5t-34 -95.5t-102 -35.5h-98v-175h-43v437zM435 348q46 0 69 24.5t23 64.5q0 39 -23 63.5t-69 24.5h-98v-177h98z" />
    <glyph glyph-name="trademark" unicode="&#x2122;" horiz-adv-x="706" 
d="M120 658h-109v42h261v-42h-109v-364h-43v364zM334 700h43l118 -248l118 248h43v-406h-43v315l-98 -206h-41l-98 206v-315h-42v406z" />
    <glyph glyph-name="lozenge" unicode="&#x25ca;" horiz-adv-x="548" 
d="M274 50l174 300l-174 300l-174 -300zM50 350l203 350h42l203 -350l-203 -350h-42z" />
    <glyph glyph-name="afii61289" unicode="&#x2113;" horiz-adv-x="317" 
d="M81 215l-48 -39l-22 28l70 56v307q0 76 25.5 109.5t70.5 33.5q25 0 43.5 -11t31 -31t18.5 -47.5t6 -60.5q0 -36 -10 -77t-28.5 -81.5t-45 -78t-58.5 -65.5v-146q0 -42 17 -60.5t45 -18.5q16 0 33.5 3.5t37.5 11.5l9 -31q-29 -17 -55 -22t-47 -5q-49 0 -71 33.5t-22 94.5
v97zM134 307q22 24 41.5 54t34.5 63t23.5 67t8.5 66q0 21 -2.5 40.5t-9 34.5t-17.5 24.5t-27 9.5q-23 0 -37.5 -18.5t-14.5 -69.5v-271z" />
    <glyph glyph-name="afii61352" unicode="&#x2116;" horiz-adv-x="860" 
d="M527 0h-55l-332 591v-591h-55v700h55l332 -591v591h55v-700zM587 320v45h235v-45h-235zM705 437q29 0 51.5 18.5t22.5 56.5v80q0 38 -22.5 56.5t-51.5 18.5q-30 0 -52 -18.5t-22 -56.5v-80q0 -38 22 -56.5t52 -18.5zM705 395q-21 0 -42 6t-38 19.5t-27.5 36t-10.5 55.5
v79q0 33 10.5 55.5t27.5 36t38 19.5t42 6t41.5 -6t37.5 -19.5t27.5 -36t10.5 -55.5v-79q0 -33 -10.5 -55.5t-27.5 -36t-37.5 -19.5t-41.5 -6z" />
    <glyph glyph-name="apple" horiz-adv-x="639" 
d="M170 26q-28 6 -38.5 24.5t-10.5 53.5v256q-27 0 -37 24q-24 10 -24 37q0 17 11 28q-17 8 -26.5 23.5t-9.5 35.5q0 19 9.5 35t26.5 24q-11 11 -11 28q0 15 9 26.5t23 13.5q6 20 23 34t40 14q24 0 44 -17q7 19 23.5 31.5t37.5 12.5q17 0 31.5 -8.5t23.5 -22.5q14 7 29 7
q19 0 35 -10t24 -27q12 12 28 12q13 0 22.5 -6.5t14.5 -17.5q22 -5 36.5 -23t14.5 -41q0 -19 -9.5 -34t-24.5 -23v-38h4q47 0 63.5 -18.5t16.5 -61.5v-215q0 -43 -16.5 -61.5t-63.5 -18.5h-4q0 -35 -10.5 -53t-38.5 -24v-26h-266v26zM436 510q-17 4 -29 17h-83
q-19 -19 -46 -19q-34 0 -53 27q-8 -3 -16 -3q-18 0 -29 11q-2 -4 -4.5 -7.5t-5.5 -7.5v-424q0 -19 7 -26.5t25 -7.5h202q18 0 25 7.5t7 26.5v406zM100 443q-10 0 -15.5 -7t-5.5 -15q0 -9 6 -15t15 -6q0 -9 6 -15t15 -6v147q19 0 32 12t15 30v4h19q0 -10 6.5 -15.5t15.5 -5.5
t15 6t6 15h19q0 -8 -2.5 -14.5t-6.5 -11.5q13 -19 38 -19q20 0 33.5 13t13.5 33h82q0 -20 13 -33t33 -13t33.5 13t13.5 33t-13.5 33.5t-33.5 13.5q0 9 -6.5 15.5t-15.5 6.5q-8 0 -14.5 -5.5t-6.5 -16.5h-19q0 20 -13.5 33.5t-33.5 13.5q-15 0 -26.5 -8.5t-16.5 -21.5
q12 -4 20 -14t8 -24h-19q0 9 -6.5 15t-15.5 6t-15 -6t-6 -15h-19q0 15 9.5 26t23.5 13q6 19 19 30q-6 11 -17 17t-23 6q-19 0 -32 -13t-14 -32q7 -16 7 -29h-19q0 20 -13.5 33.5t-33.5 13.5q-15 0 -26.5 -8t-16.5 -22q13 -4 21 -14.5t8 -24.5h-19q0 9 -6.5 15.5t-15.5 6.5
t-15 -6.5t-6 -15.5q0 -19 17 -21h4v-19h-4q-18 -2 -30 -15t-12 -32t12 -32t30 -14h4v-19zM520 398q0 19 -7 26.5t-24 7.5h-4v-283h4q17 0 24 7.5t7 26.5v215zM211 478h15v-375h-15v375zM379 478h15v-375h-15v375zM323 478h15v-375h-15v375zM267 478h15v-375h-15v375z" />
    <glyph glyph-name="estimated" unicode="&#x212e;" horiz-adv-x="824" 
d="M182 117q0 -15 12 -25q35 -29 78 -46q32 -12 67 -17t73 -5t73 5t67 17q57 23 98 64h50q-54 -65 -131 -95q-36 -14 -75.5 -19.5t-81.5 -5.5t-81.5 5.5t-75.5 19.5q-44 18 -81.5 47t-65 67.5t-43 86t-15.5 101.5t15.5 101.5t43 86t65 67.5t81.5 47q36 14 75.5 19.5
t81.5 5.5t81.5 -5.5t75.5 -19.5q44 -18 81.5 -47t65 -67.5t43 -86t15.5 -101.5v-17h-582q-10 0 -10 -10v-173zM642 517q0 15 -12 25q-35 29 -78 46q-32 12 -67 17t-73 5t-73 -5t-67 -17q-43 -17 -78 -46q-12 -10 -12 -25v-173q0 -10 10 -10h440q10 0 10 10v173z" />
    <glyph glyph-name="minus" unicode="&#x2212;" 
d="M81 258v45h396v-45h-396z" />
    <glyph glyph-name="lessequal" unicode="&#x2264;" 
d="M81 299v44l396 180v-48l-338 -154l338 -154v-48zM81 0v45h396v-45h-396z" />
    <glyph glyph-name="greaterequal" unicode="&#x2265;" 
d="M81 119v48l338 154l-338 154v48l396 -180v-44zM81 0v45h396v-45h-396z" />
    <glyph glyph-name="notequal" unicode="&#x2260;" 
d="M81 155v45h92l150 150h-242v45h287l79 79l30 -31l-48 -48h48v-45h-93l-150 -150h243v-45h-288l-78 -78l-30 31l47 47h-47z" />
    <glyph glyph-name="approxequal" unicode="&#x2248;" 
d="M81 360q23 26 56 42t62 16q23 0 44.5 -7t41.5 -16t38.5 -16t35.5 -7q14 0 37.5 10t50.5 36l30 -33q-23 -26 -56 -42t-62 -16q-23 0 -44.5 7t-41.5 16t-38.5 16t-35.5 7q-14 0 -37.5 -10t-50.5 -36zM81 166q23 26 56 42t62 16q23 0 44.5 -7t41.5 -16t38.5 -16t35.5 -7
q14 0 37.5 10t50.5 36l30 -33q-23 -26 -56 -42t-62 -16q-23 0 -44.5 7t-41.5 16t-38.5 16t-35.5 7q-14 0 -37.5 -10t-50.5 -36z" />
    <glyph glyph-name="partialdiff" unicode="&#x2202;" horiz-adv-x="578" 
d="M472 552q0 50 -30 81.5t-98 31.5q-33 0 -63 -11t-54.5 -31t-42 -49.5t-23.5 -65.5l-1 -8h-45l1 8q10 56 34.5 94.5t57.5 62.5t71 34.5t75 10.5q30 0 59 -8t52 -25.5t37.5 -46t14.5 -69.5q0 -12 -1 -25.5t-4 -27.5l-61 -316q-10 -56 -34.5 -94.5t-57.5 -62.5t-71 -34.5
t-75 -10.5q-30 0 -59 8t-52 25.5t-37.5 46t-14.5 69.5q0 21 4 43.5t8 45.5q10 56 34.5 94.5t57 62.5t70.5 34.5t75 10.5q50 0 87.5 -21.5t51.5 -53.5q0 1 1.5 8.5t3.5 18.5t4.5 24.5t5.5 27.5l14 74q2 13 3.5 23t1.5 21zM223 35q33 0 63 11t54.5 31t42 49.5t23.5 65.5
q4 21 8 40.5t4 39.5q0 50 -30.5 81.5t-98.5 31.5q-33 0 -63 -11t-54.5 -31t-41.5 -49.5t-23 -65.5q-4 -21 -8 -40.5t-4 -39.5q0 -50 30 -81.5t98 -31.5z" />
    <glyph glyph-name="product" unicode="&#x220f;" horiz-adv-x="612" 
d="M85 700h442v-700h-55v647h-333v-647h-54v700z" />
    <glyph glyph-name="radical" unicode="&#x221a;" horiz-adv-x="516" 
d="M420 700h46l-207 -700h-64l-77 258h-68v42h102l75 -253z" />
    <glyph glyph-name="summation" unicode="&#x2211;" horiz-adv-x="702" 
d="M411 258l-321 400v42h512v-42h-454l321 -400l-321 -400h454v-42h-512v42z" />
    <glyph glyph-name="integral" unicode="&#x222b;" horiz-adv-x="301" 
d="M172 -81q0 -25 -4.5 -44t-16.5 -32t-33 -20t-53 -7v42q40 0 52 15t12 46v678q0 25 4.5 44t16.5 32t33 20t53 7v-42q-40 0 -52 -15t-12 -46v-678z" />
    <glyph glyph-name="infinity" unicode="&#x221e;" 
d="M49 336q0 26 9.5 49t26.5 40t40 27t49 10q32 0 59.5 -15t44.5 -40q17 25 44 40t60 15q26 0 49 -10t40 -27t27 -40t10 -49t-10 -49t-27 -40t-40 -26.5t-49 -9.5q-33 0 -60 14.5t-44 39.5q-17 -25 -44.5 -39.5t-59.5 -14.5q-26 0 -49 9.5t-40 26.5t-26.5 40t-9.5 49z
M300 336q0 -35 23.5 -59t58.5 -24t59 24t24 59q0 17 -6.5 32.5t-17.5 27t-26 18t-33 6.5q-35 0 -58 -23.5t-24 -57.5v-3zM92 336q0 -35 23.5 -59t58.5 -24t59 24t24 59v3q-2 34 -25 57.5t-58 23.5t-58.5 -24.5t-23.5 -59.5z" />
    <glyph glyph-name="Delta" unicode="&#x394;" horiz-adv-x="564" 
d="M19 0l238 700h50l238 -700h-526zM282 609l-189 -555h377z" />
    <glyph glyph-name="Delta" unicode="&#x2206;" horiz-adv-x="564" 
d="M19 0l238 700h50l238 -700h-526zM282 609l-189 -555h377z" />
    <glyph glyph-name="Omega" unicode="&#x3a9;" horiz-adv-x="562" 
d="M80 54h96v60q-54 27 -85 81t-31 132v146q0 55 16.5 99t46 74.5t70 47t88.5 16.5t88.5 -16.5t70 -47t46 -74.5t16.5 -99v-146q0 -77 -31.5 -131.5t-84.5 -81.5v-60h96v-54h-151v150q51 14 83.5 58t32.5 119v146q0 46 -13 80.5t-35.5 57.5t-53 34t-64.5 11t-64.5 -11
t-53 -34t-35.5 -57.5t-13 -80.5v-146q0 -75 32.5 -119t83.5 -58v-150h-151v54z" />
    <glyph glyph-name="Omega" unicode="&#x2126;" horiz-adv-x="562" 
d="M80 54h96v60q-54 27 -85 81t-31 132v146q0 55 16.5 99t46 74.5t70 47t88.5 16.5t88.5 -16.5t70 -47t46 -74.5t16.5 -99v-146q0 -77 -31.5 -131.5t-84.5 -81.5v-60h96v-54h-151v150q51 14 83.5 58t32.5 119v146q0 46 -13 80.5t-35.5 57.5t-53 34t-64.5 11t-64.5 -11
t-53 -34t-35.5 -57.5t-13 -80.5v-146q0 -75 32.5 -119t83.5 -58v-150h-151v54z" />
    <glyph glyph-name="pi" unicode="&#x3c0;" horiz-adv-x="608" 
d="M33 465v51h542v-51h-73v-465h-53v465h-290v-465h-53v465h-73z" />
    <glyph glyph-name="Euro" unicode="&#x20ac;" horiz-adv-x="577" 
d="M348 -10q-48 0 -88.5 16.5t-70 47t-46 74.5t-16.5 99v48h-78l14 43h64v65h-77l13 43h64v47q0 55 16.5 99t46 74.5t70 47t88.5 16.5q106 0 168 -74l-40 -33q-23 29 -56.5 42.5t-71.5 13.5q-35 0 -65.5 -11.5t-53 -34.5t-36 -58t-13.5 -82v-47h302l-13 -43h-289v-65h270
l-14 -43h-256v-48q0 -47 13.5 -82t36 -58t53 -34.5t65.5 -11.5q38 0 71.5 13.5t56.5 42.5l40 -33q-30 -36 -73 -55t-95 -19z" />
    <glyph glyph-name="fi" unicode="&#xfb01;" horiz-adv-x="518" 
d="M33 516h73v81q0 25 4.5 44t16.5 32t33 20t53 7h73v-51h-73q-34 0 -44 -12t-10 -40v-81h127v-51h-127v-465h-53v465h-73v51zM438 516v-516h-53v516h53zM438 613h-53v87h53v-87z" />
    <glyph glyph-name="fl" unicode="&#xfb02;" horiz-adv-x="547" 
d="M33 516h73v81q0 25 4.5 44t16.5 32t33 20t53 7h73v-51h-73q-34 0 -44 -12t-10 -40v-81h127v-51h-127v-465h-53v465h-73v51zM436 103q0 -28 10 -40t44 -12h10v-51h-10q-32 0 -53 7t-33 20t-16.5 32t-4.5 44v597h53v-597z" />
    <glyph glyph-name="uniFB00" unicode="&#xfb00;" horiz-adv-x="610" 
d="M33 516h73v81q0 25 4.5 44t16.5 32t33 20t53 7h73v-51h-73q-34 0 -44 -12t-10 -40v-81h127v-51h-127v-465h-53v465h-73v51zM338 516h73v81q0 25 4.5 44t16.5 32t33 20t53 7h73v-51h-73q-34 0 -44 -12t-10 -40v-81h127v-51h-127v-465h-53v465h-73v51z" />
    <glyph glyph-name="uniFB03" unicode="&#xfb03;" horiz-adv-x="823" 
d="M33 516h73v81q0 25 4.5 44t16.5 32t33 20t53 7h73v-51h-73q-34 0 -44 -12t-10 -40v-81h127v-51h-127v-465h-53v465h-73v51zM338 516h73v81q0 25 4.5 44t16.5 32t33 20t53 7h73v-51h-73q-34 0 -44 -12t-10 -40v-81h127v-51h-127v-465h-53v465h-73v51zM743 516v-516h-53
v516h53zM743 613h-53v87h53v-87z" />
    <glyph glyph-name="uniFB04" unicode="&#xfb04;" horiz-adv-x="852" 
d="M33 516h73v81q0 25 4.5 44t16.5 32t33 20t53 7h73v-51h-73q-34 0 -44 -12t-10 -40v-81h127v-51h-127v-465h-53v465h-73v51zM338 516h73v81q0 25 4.5 44t16.5 32t33 20t53 7h73v-51h-73q-34 0 -44 -12t-10 -40v-81h127v-51h-127v-465h-53v465h-73v51zM741 103
q0 -28 10 -40t44 -12h10v-51h-10q-32 0 -53 7t-33 20t-16.5 32t-4.5 44v597h53v-597z" />
    <glyph glyph-name="breve" unicode="&#x2d8;" horiz-adv-x="390" 
d="M207 620q33 0 56.5 23.5t23.5 56.5h49q0 -27 -10 -50.5t-27.5 -41t-41 -27.5t-50.5 -10h-24q-27 0 -50.5 10t-41 27.5t-27.5 41t-10 50.5h49q0 -33 23.5 -56.5t56.5 -23.5h24z" />
    <glyph glyph-name="caron" unicode="&#x2c7;" horiz-adv-x="428" 
d="M301 700h64l-125 -129h-52l-125 129h64l87 -83z" />
    <glyph glyph-name="circumflex" unicode="&#x2c6;" horiz-adv-x="428" 
d="M214 654l-87 -83h-64l125 129h52l125 -129h-64z" />
    <glyph glyph-name="dotaccent" unicode="&#x2d9;" horiz-adv-x="171" 
d="M112 592h-53v87h53v-87z" />
    <glyph glyph-name="hungarumlaut" unicode="&#x2dd;" horiz-adv-x="447" 
d="M225 700l-108 -129h-46l75 129h79zM389 700l-108 -129h-46l75 129h79z" />
    <glyph glyph-name="commaaccent" horiz-adv-x="254" 
d="M90 -50h74v-74l-21 -74h-49l21 74h-25v74z" />
    <glyph glyph-name="ogonek" unicode="&#x2db;" horiz-adv-x="230" 
d="M185 0q-31 -23 -56.5 -46.5t-25.5 -50.5q0 -23 11.5 -33t28.5 -10q10 0 20.5 3.5t21.5 8.5v-48q-11 -7 -23 -10t-24 -3q-42 0 -65 23.5t-23 62.5q0 36 24 61t58 42h53z" />
    <glyph glyph-name="ring" unicode="&#x2da;" horiz-adv-x="255" 
d="M53 635q0 31 21.5 53t52.5 22t53 -22t22 -53t-22 -52.5t-53 -21.5t-52.5 21.5t-21.5 52.5zM96 635q0 -13 9 -22t22 -9t22.5 9t9.5 22t-9.5 22.5t-22.5 9.5t-22 -9.5t-9 -22.5z" />
    <glyph glyph-name="tilde" unicode="&#x2dc;" horiz-adv-x="441" 
d="M375 679q-9 -29 -21.5 -46.5t-26 -26.5t-28 -12t-26.5 -3q-11 0 -22 2.5t-23 9.5l-33 19q-5 3 -13.5 6.5t-19.5 3.5t-23.5 -8t-23.5 -31h-49q9 29 21.5 46.5t26 26.5t28 12t26.5 3q11 0 22 -2.5t23 -9.5l33 -19q5 -3 13.5 -6.5t19.5 -3.5t23.5 8t23.5 31h49z" />
    <glyph glyph-name="uni032C" unicode="&#x32c;" horiz-adv-x="428" 
d="M301 0h64l-125 -129h-52l-125 129h64l87 -83z" />
    <glyph glyph-name="zero.slashed" unicode="0" horiz-adv-x="534" 
d="M465 192q0 -56 -18 -94.5t-46.5 -62.5t-63.5 -34.5t-70 -10.5t-70 10.5t-63.5 34.5t-46.5 62.5t-18 94.5v316q0 56 18 94.5t46.5 62.5t63.5 34.5t70 10.5t70 -10.5t63.5 -34.5t46.5 -62.5t18 -94.5v-316zM412 465l-290 -290q5 -63 45 -98.5t100 -35.5q31 0 58 10.5t46 30
t30 47.5t11 63v273zM122 236l289 289q-5 63 -44.5 98.5t-99.5 35.5q-32 0 -58.5 -10.5t-45.5 -30t-30 -47.5t-11 -63v-272z" />
    <glyph glyph-name="one.tlf" 
d="M275 632l-134 -115v68l134 115h53v-649h171v-51h-396v51h172v581z" />
    <glyph glyph-name="two.tlf" 
d="M132 495h-53v13q0 56 18 94.5t46.5 62.5t63.5 34.5t70 10.5t70.5 -11t64 -34.5t46 -60.5t17.5 -90q0 -47 -20.5 -91t-65.5 -96l-243 -276h329v-51h-396v51l272 310q39 45 55 82.5t16 70.5q0 64 -39.5 104t-105.5 41q-32 0 -58.5 -10.5t-45.5 -30t-30 -47.5t-11 -63v-13z
" />
    <glyph glyph-name="three.tlf" 
d="M278 -10q-37 0 -73 10.5t-65 34t-47 62t-18 95.5v8h53v-8q0 -71 41.5 -111t108.5 -40q66 0 103 37.5t37 109.5q0 27 -9 52.5t-26 45t-43 31t-59 11.5h-49v51h51q66 0 100.5 39t34.5 98q0 30 -11 56.5t-30 45.5t-46 30t-58 11q-32 0 -58.5 -10.5t-45.5 -30t-30 -47.5
t-11 -63v-8h-53v8q0 56 18 94.5t46.5 62.5t63.5 34.5t70 10.5q36 0 71 -11t63.5 -35t46 -60.5t17.5 -87.5q0 -60 -26 -100.5t-71 -62.5q43 -21 70 -63.5t27 -101.5q0 -50 -14.5 -87.5t-40.5 -62t-61 -36.5t-77 -12z" />
    <glyph glyph-name="four.tlf" 
d="M422 700v-451h73v-49h-73v-200h-53v200h-329v49l329 451h53zM369 249v365l-267 -365h267z" />
    <glyph glyph-name="five.tlf" 
d="M157 380q24 28 61 42.5t75 14.5q35 0 70 -10.5t63.5 -34.5t46.5 -62.5t18 -94.5v-43q0 -56 -18 -94.5t-46.5 -62.5t-63.5 -34.5t-70 -10.5t-70 10.5t-63.5 34.5t-46.5 62.5t-18 94.5v8h53v-8q0 -35 11 -63t30 -47.5t45.5 -30t58.5 -10.5q31 0 58 10.5t46 30t30 47.5
t11 63v43q0 35 -11 63t-30 47.5t-46 30t-58 10.5q-42 0 -75.5 -18.5t-51.5 -52.5h-62v385h360v-51h-307v-269z" />
    <glyph glyph-name="six.tlf" 
d="M137 362q18 27 56.5 47.5t88.5 20.5q35 0 70 -10.5t63.5 -34.5t46.5 -62.5t18 -94.5v-36q0 -56 -18 -94.5t-46.5 -62.5t-63.5 -34.5t-70 -10.5t-70 10.5t-63.5 34.5t-46.5 62.5t-18 94.5v316q0 56 18 94.5t46.5 62.5t63.5 34.5t70 10.5t70 -10.5t63.5 -34.5t46.5 -62.5
t18 -94.5v-8h-53v8q0 35 -11 63t-30 47.5t-46 30t-58 10.5q-32 0 -58.5 -10.5t-45.5 -30t-30 -47.5t-11 -63v-146zM137 192q0 -35 11 -63t30 -47.5t45.5 -30t58.5 -10.5q31 0 58 10.5t46 30t30 47.5t11 63v36q0 35 -11 63t-30 47.5t-46 30t-58 10.5q-32 0 -58.5 -10.5
t-45.5 -30t-30 -47.5t-11 -63v-36z" />
    <glyph glyph-name="seven.tlf" 
d="M466 700v-51l-237 -649h-53l237 649h-337v51h390z" />
    <glyph glyph-name="eight.tlf" 
d="M470 519q0 -53 -22.5 -96.5t-67.5 -69.5q43 -21 70 -65.5t27 -103.5q0 -53 -18.5 -90t-47.5 -60t-64 -33.5t-68 -10.5t-68 10.5t-64 33.5t-47.5 60t-18.5 90q0 59 27 103.5t70 65.5q-45 26 -67.5 69.5t-22.5 96.5q0 51 17 87t44 59t61 34t69 11t69 -11t61 -34t44 -59
t17 -87zM424 184q0 31 -11.5 57.5t-31.5 46t-46 30t-56 10.5t-56 -10.5t-46 -30t-31.5 -46t-11.5 -57.5q0 -32 11.5 -58t31.5 -45t46 -29.5t56 -10.5t56 10.5t46 29.5t31.5 45t11.5 58zM141 519q0 -30 9 -55.5t26 -44t43 -29.5t60 -11t60 11t43 29.5t26 44t9 55.5t-9 55.5
t-26.5 44t-43.5 29.5t-59 11t-59 -11t-43.5 -29.5t-26.5 -44t-9 -55.5z" />
    <glyph glyph-name="nine.tlf" 
d="M421 338q-18 -27 -56.5 -47.5t-88.5 -20.5q-35 0 -70 10.5t-63.5 34.5t-46.5 62.5t-18 94.5v36q0 56 18 94.5t46.5 62.5t63.5 34.5t70 10.5t70 -10.5t63.5 -34.5t46.5 -62.5t18 -94.5v-316q0 -56 -18 -94.5t-46.5 -62.5t-63.5 -34.5t-70 -10.5t-70 10.5t-63.5 34.5
t-46.5 62.5t-18 94.5v8h53v-8q0 -35 11 -63t30 -47.5t45.5 -30t58.5 -10.5q31 0 58 10.5t46 30t30 47.5t11 63v146zM421 508q0 35 -11 63t-30 47.5t-46 30t-58 10.5q-32 0 -58.5 -10.5t-45.5 -30t-30 -47.5t-11 -63v-36q0 -35 11 -63t30 -47.5t45.5 -30t58.5 -10.5
q31 0 58 10.5t46 30t30 47.5t11 63v36z" />
    <glyph glyph-name="zero.tlf" 
d="M477 192q0 -56 -18 -94.5t-46.5 -62.5t-63.5 -34.5t-70 -10.5t-70 10.5t-63.5 34.5t-46.5 62.5t-18 94.5v316q0 56 18 94.5t46.5 62.5t63.5 34.5t70 10.5t70 -10.5t63.5 -34.5t46.5 -62.5t18 -94.5v-316zM424 508q0 35 -11 63t-30 47.5t-46 30t-58 10.5
q-32 0 -58.5 -10.5t-45.5 -30t-30 -47.5t-11 -63v-316q0 -35 11 -63t30 -47.5t45.5 -30t58.5 -10.5q31 0 58 10.5t46 30t30 47.5t11 63v316z" />
    <glyph glyph-name="zero.slashed.tlf" 
d="M477 192q0 -56 -18 -94.5t-46.5 -62.5t-63.5 -34.5t-70 -10.5t-70 10.5t-63.5 34.5t-46.5 62.5t-18 94.5v316q0 56 18 94.5t46.5 62.5t63.5 34.5t70 10.5t70 -10.5t63.5 -34.5t46.5 -62.5t18 -94.5v-316zM424 465l-290 -290q5 -63 45 -98.5t100 -35.5q31 0 58 10.5t46 30
t30 47.5t11 63v273zM134 236l289 289q-5 63 -44.5 98.5t-99.5 35.5q-32 0 -58.5 -10.5t-45.5 -30t-30 -47.5t-11 -63v-272z" />
    <glyph glyph-name="one.case" horiz-adv-x="341" 
d="M191 625l-134 -115v75l134 115h55v-700h-55v625z" />
    <glyph glyph-name="two.case" horiz-adv-x="517" 
d="M58 54l271 308q38 43 54 80t16 72q0 31 -10.5 57t-29 45t-45 29.5t-58.5 10.5q-31 0 -57.5 -10t-45.5 -29.5t-29.5 -47t-10.5 -61.5v-14h-55v14q0 56 18 94.5t46.5 62.5t63.5 34.5t70 10.5t70.5 -10.5t64 -34t46 -61t17.5 -90.5q0 -48 -20 -92.5t-65 -95.5l-242 -272h327
v-54h-396v54z" />
    <glyph glyph-name="three.case" horiz-adv-x="523" 
d="M260 -10q-37 0 -73 10.5t-65 34t-47 62t-18 95.5v8h55v-8q0 -70 41 -109t107 -39q65 0 101.5 37t36.5 107q0 27 -9 52t-26 44t-42 30.5t-58 11.5h-49v54h50q65 0 99.5 38t34.5 98q0 30 -10.5 55.5t-29.5 44.5t-45.5 29.5t-57.5 10.5t-57.5 -10t-45.5 -29.5t-29.5 -47
t-10.5 -61.5v-8h-55v8q0 56 18 94.5t46.5 62.5t63.5 34.5t70 10.5q36 0 71 -11t63.5 -35t46 -60.5t17.5 -87.5q0 -60 -25.5 -101t-70.5 -62q42 -21 69 -63.5t27 -101.5q0 -51 -14.5 -88t-40.5 -61.5t-61.5 -36.5t-76.5 -12z" />
    <glyph glyph-name="four.case" horiz-adv-x="519" 
d="M353 198h-328v54l328 448h55v-448h73v-54h-73v-198h-55v198zM353 252v354l-261 -354h261z" />
    <glyph glyph-name="five.case" horiz-adv-x="524" 
d="M272 -10q-35 0 -70 10.5t-63.5 34.5t-46.5 62.5t-18 94.5v8h55v-8q0 -35 10.5 -62t29.5 -46.5t45.5 -29.5t57.5 -10t57 10t45 29.5t30 46.5t11 62v44q0 34 -11 61.5t-30 47t-45 29.5t-57 10q-42 0 -75.5 -18.5t-50.5 -53.5h-63v388h360v-54h-305v-263q23 27 59.5 41
t74.5 14q35 0 70 -10.5t63.5 -34.5t46.5 -62.5t18 -94.5v-44q0 -56 -18 -94.5t-46.5 -62.5t-63.5 -34.5t-70 -10.5z" />
    <glyph glyph-name="six.case" horiz-adv-x="538" 
d="M272 -10q-35 0 -70 10.5t-63.5 34.5t-46.5 62.5t-18 94.5v316q0 56 18 94.5t46.5 62.5t63.5 34.5t70 10.5t70 -10.5t63.5 -34.5t46.5 -62.5t18 -94.5v-8h-55v8q0 34 -11 61.5t-30 47t-45 29.5t-57 10t-57.5 -10t-45.5 -29.5t-29.5 -47t-10.5 -61.5v-142q18 26 56.5 45.5
t86.5 19.5q35 0 70 -10.5t63.5 -34.5t46.5 -62.5t18 -94.5v-37q0 -56 -18 -94.5t-46.5 -62.5t-63.5 -34.5t-70 -10.5zM272 44q31 0 57 10t45 29.5t30 46.5t11 62v37q0 34 -11 61.5t-30 47t-45 29.5t-57 10t-57.5 -10t-45.5 -29.5t-29.5 -47t-10.5 -61.5v-37q0 -35 10.5 -62
t29.5 -46.5t45.5 -29.5t57.5 -10z" />
    <glyph glyph-name="seven.case" horiz-adv-x="452" 
d="M363 646h-335v54h390v-54l-235 -646h-55z" />
    <glyph glyph-name="eight.case" horiz-adv-x="536" 
d="M268 -10q-33 0 -68.5 10.5t-64 34t-47 60.5t-18.5 90q0 58 26 102t69 66q-44 26 -66 68.5t-22 96.5q0 51 16.5 87.5t43.5 59.5t61.5 34t69.5 11t69 -11t61 -34t44 -59.5t17 -87.5q0 -54 -22 -96.5t-66 -68.5q42 -22 68.5 -66t26.5 -102q0 -53 -18.5 -90t-47 -60.5
t-64 -34t-68.5 -10.5zM268 44q29 0 55 10.5t45.5 29t31 44.5t11.5 57t-11.5 57t-31 44.5t-45.5 29t-55 10.5t-55 -10.5t-45.5 -29t-31 -44.5t-11.5 -57t11.5 -57t31 -44.5t45.5 -29t55 -10.5zM268 380q67 0 101.5 39t34.5 99q0 29 -9 54.5t-26 44t-42.5 29t-58.5 10.5
t-58.5 -10.5t-42.5 -29t-26 -44t-9 -54.5q0 -60 34.5 -99t101.5 -39z" />
    <glyph glyph-name="nine.case" horiz-adv-x="538" 
d="M266 -10q-35 0 -70 10.5t-63.5 34.5t-46.5 62.5t-18 94.5v8h55v-8q0 -35 10.5 -62t29.5 -46.5t45.5 -29.5t57.5 -10t57 10t45 29.5t30 46.5t11 62v142q-18 -26 -56.5 -45.5t-86.5 -19.5q-35 0 -70 10.5t-63.5 34.5t-46.5 62.5t-18 94.5v37q0 56 18 94.5t46.5 62.5
t63.5 34.5t70 10.5t70 -10.5t63.5 -34.5t46.5 -62.5t18 -94.5v-316q0 -56 -18 -94.5t-46.5 -62.5t-63.5 -34.5t-70 -10.5zM266 323q31 0 57 10t45 29.5t30 46.5t11 62v37q0 34 -11 61.5t-30 47t-45 29.5t-57 10t-57.5 -10t-45.5 -29.5t-29.5 -47t-10.5 -61.5v-37
q0 -35 10.5 -62t29.5 -46.5t45.5 -29.5t57.5 -10z" />
    <glyph glyph-name="zero.case" horiz-adv-x="544" 
d="M272 44q31 0 57 10t45 29.5t30 46.5t11 62v316q0 34 -11 61.5t-30 47t-45 29.5t-57 10t-57.5 -10t-45.5 -29.5t-29.5 -47t-10.5 -61.5v-316q0 -35 10.5 -62t29.5 -46.5t45.5 -29.5t57.5 -10zM272 -10q-35 0 -70 10.5t-63.5 34.5t-46.5 62.5t-18 94.5v316q0 56 18 94.5
t46.5 62.5t63.5 34.5t70 10.5t70 -10.5t63.5 -34.5t46.5 -62.5t18 -94.5v-316q0 -56 -18 -94.5t-46.5 -62.5t-63.5 -34.5t-70 -10.5z" />
    <glyph glyph-name="zero.slashed.case" horiz-adv-x="544" 
d="M272 -10q-35 0 -70 10.5t-63.5 34.5t-46.5 62.5t-18 94.5v316q0 56 18 94.5t46.5 62.5t63.5 34.5t70 10.5t70 -10.5t63.5 -34.5t46.5 -62.5t18 -94.5v-316q0 -56 -18 -94.5t-46.5 -62.5t-63.5 -34.5t-70 -10.5zM272 44q31 0 57 10t45 29.5t30 46.5t11 62v271l-286 -286
q5 -63 44 -98t99 -35zM129 238l285 285q-5 63 -44.5 98t-97.5 35q-31 0 -57.5 -10t-45.5 -29.5t-29.5 -47t-10.5 -61.5v-270z" />
    <glyph glyph-name="uni21B2" unicode="&#x21b2;" horiz-adv-x="800" 
d="M361 20l-30 -30l-286 285l286 285l30 -30l-234 -233h584v403h44v-447h-628z" />
    <glyph glyph-name="uni21B3" unicode="&#x21b3;" horiz-adv-x="800" 
d="M673 253h-628v447h44v-403h584l-234 233l30 30l286 -285l-286 -285l-30 30z" />
    <glyph glyph-name="uni21B0" unicode="&#x21b0;" horiz-adv-x="800" 
d="M361 20l-30 -30l-286 285l286 285l30 -30l-234 -233h628v-481h-44v437h-584z" />
    <glyph glyph-name="uni21B1" unicode="&#x21b1;" horiz-adv-x="800" 
d="M89 -184h-44v481h628l-234 233l30 30l286 -285l-286 -285l-30 30l234 233h-584v-437z" />
    <glyph glyph-name="uni2190" unicode="&#x2190;" horiz-adv-x="800" 
d="M361 20l-30 -30l-286 285l286 285l30 -30l-234 -233h628v-44h-628z" />
    <glyph glyph-name="uni2191" unicode="&#x2191;" horiz-adv-x="800" 
d="M422 628v-628h-44v628l-233 -234l-30 30l285 286l285 -286l-30 -30z" />
    <glyph glyph-name="uni2192" unicode="&#x2192;" horiz-adv-x="800" 
d="M673 253h-628v44h628l-234 233l30 30l286 -285l-286 -285l-30 30z" />
    <glyph glyph-name="uni2193" unicode="&#x2193;" horiz-adv-x="800" 
d="M655 306l30 -30l-285 -286l-285 286l30 30l233 -234v628h44v-628z" />
    <glyph glyph-name="uni2196" unicode="&#x2196;" horiz-adv-x="800" 
d="M206 529l503 -503l-31 -31l-504 503v-330h-43v404h405v-43h-330z" />
    <glyph glyph-name="uni2197" unicode="&#x2197;" horiz-adv-x="800" 
d="M264 529v43h405v-404h-43v330l-504 -503l-31 31l503 503h-330z" />
    <glyph glyph-name="uni2198" unicode="&#x2198;" horiz-adv-x="800" 
d="M594 43l-503 503l31 31l504 -503v330h43v-404h-405v43h330z" />
    <glyph glyph-name="uni2199" unicode="&#x2199;" horiz-adv-x="800" 
d="M536 43v-43h-405v404h43v-330l504 503l31 -31l-503 -503h330z" />
    <glyph glyph-name="uni25A0" unicode="&#x25a0;" horiz-adv-x="800" 
d="M142 516h516v-516h-516v516z" />
    <glyph glyph-name="uni25A1" unicode="&#x25a1;" horiz-adv-x="800" 
d="M142 516h516v-516h-516v516zM186 44h428v428h-428v-428z" />
    <glyph glyph-name="uni25CB" unicode="&#x25cb;" horiz-adv-x="800" 
d="M130 260q0 56 21 105t58 86t86 58t105 21t105 -21t86 -58t58 -86t21 -105t-21 -105t-58 -86t-86 -58t-105 -21t-105 21t-86 58t-58 86t-21 105zM173 260q0 -47 18 -88.5t48.5 -72t72 -48.5t88.5 -18t88.5 18t72 48.5t48.5 72t18 88.5t-18 88.5t-48.5 72t-72 48.5
t-88.5 18t-88.5 -18t-72 -48.5t-48.5 -72t-18 -88.5z" />
    <glyph glyph-name="uni25CF" unicode="&#x25cf;" horiz-adv-x="800" 
d="M130 260q0 56 21 105t58 86t86 58t105 21t105 -21t86 -58t58 -86t21 -105t-21 -105t-58 -86t-86 -58t-105 -21t-105 21t-86 58t-58 86t-21 105z" />
    <glyph glyph-name="onethird" unicode="&#x2153;" horiz-adv-x="715" 
d="M148 643l-78 -67v57l78 67h43v-406h-43v349zM593 700l-481 -700h-48l481 700h48zM543 -6q-21 0 -42.5 6t-39 19.5t-28 36t-10.5 55.5v5h43v-5q0 -38 23 -56.5t54 -18.5q32 0 51.5 18.5t19.5 53.5q0 29 -18.5 52.5t-52.5 23.5h-29v41h29q31 0 51 19t20 54q0 34 -21.5 53
t-52.5 19q-29 0 -51.5 -18.5t-22.5 -56.5v-5h-43v5q0 33 10.5 55.5t27.5 36t37.5 19.5t41.5 6q22 0 43.5 -6.5t38 -20t26.5 -35.5t10 -52q0 -34 -15 -58.5t-35 -35.5q20 -11 35 -36t15 -60q0 -30 -10 -52t-26.5 -35.5t-37 -20t-41.5 -6.5z" />
    <glyph glyph-name="uni2155" unicode="&#x2155;" horiz-adv-x="713" 
d="M148 643l-78 -67v57l78 67h43v-406h-43v349zM593 700l-481 -700h-48l481 700h48zM550 -6q-21 0 -41.5 6t-37.5 19.5t-27.5 36t-10.5 55.5v5h43v-5q0 -38 22.5 -56.5t51.5 -18.5q30 0 52 18.5t22 56.5v30q0 38 -22 56.5t-52 18.5q-22 0 -41 -10.5t-27 -33.5h-44v234h214
v-41h-171v-131q14 11 32.5 17t36.5 6q21 0 42 -6t37.5 -19.5t27 -36t10.5 -55.5v-29q0 -33 -10.5 -55.5t-27 -36t-37.5 -19.5t-42 -6z" />
    <glyph glyph-name="uni2159" unicode="&#x2159;" horiz-adv-x="714" 
d="M148 643l-78 -67v57l78 67h43v-406h-43v349zM593 700l-481 -700h-48l481 700h48zM545 -6q-21 0 -41.5 6t-37.5 19.5t-27.5 36t-10.5 55.5v184q0 33 10.5 55.5t27.5 36t37.5 19.5t41.5 6t42 -6t37.5 -19.5t27 -36t10.5 -55.5v-5h-43v5q0 38 -22 56.5t-52 18.5
q-29 0 -51.5 -18.5t-22.5 -56.5v-71q11 14 32.5 21.5t41.5 7.5q21 0 42 -6t37.5 -19.5t27 -36t10.5 -55.5v-25q0 -33 -10.5 -55.5t-27 -36t-37.5 -19.5t-42 -6zM545 36q30 0 52 18.5t22 56.5v26q0 38 -22 56.5t-52 18.5q-29 0 -51.5 -18.5t-22.5 -56.5v-26q0 -38 22.5 -56.5
t51.5 -18.5z" />
    <glyph glyph-name="oneeighth" unicode="&#x215b;" horiz-adv-x="693" 
d="M148 643l-78 -67v57l78 67h43v-406h-43v349zM593 700l-481 -700h-48l481 700h48zM533 -6q-22 0 -43 7t-37.5 21t-26.5 36t-10 52q0 64 48 94q-20 16 -32 38.5t-12 55.5q0 30 9.5 51.5t25.5 35.5t36.5 20.5t41.5 6.5t41.5 -6.5t36.5 -20.5t25.5 -35.5t9.5 -51.5
q0 -33 -12 -55.5t-32 -38.5q48 -30 48 -94q0 -30 -10 -52t-26.5 -36t-37.5 -21t-43 -7zM533 36q29 0 51.5 19.5t22.5 54.5q0 34 -22.5 54t-51.5 20t-51.5 -20t-22.5 -54q0 -35 22.5 -54.5t51.5 -19.5zM533 225q29 0 49.5 18.5t20.5 54.5q0 32 -18.5 52t-51.5 20t-51.5 -20
t-18.5 -52q0 -36 20.5 -54.5t49.5 -18.5z" />
    <glyph glyph-name="twothirds" unicode="&#x2154;" horiz-adv-x="776" 
d="M51 335l155 178q15 17 25.5 36t10.5 42q0 36 -22.5 54.5t-51.5 18.5t-51.5 -18.5t-22.5 -56.5v-11h-43v11q0 33 10.5 55.5t27 36t37.5 19.5t42 6t42 -6t37.5 -19.5t27 -36t10.5 -54.5t-12.5 -55.5t-35.5 -50.5l-130 -149h178v-41h-234v41zM654 700l-481 -700h-48l481 700
h48zM604 -6q-21 0 -42.5 6t-39 19.5t-28 36t-10.5 55.5v5h43v-5q0 -38 23 -56.5t54 -18.5q32 0 51.5 18.5t19.5 53.5q0 29 -18.5 52.5t-52.5 23.5h-29v41h29q31 0 51 19t20 54q0 34 -21.5 53t-52.5 19q-29 0 -51.5 -18.5t-22.5 -56.5v-5h-43v5q0 33 10.5 55.5t27.5 36
t37.5 19.5t41.5 6q22 0 43.5 -6.5t38 -20t26.5 -35.5t10 -52q0 -34 -15 -58.5t-35 -35.5q20 -11 35 -36t15 -60q0 -30 -10 -52t-26.5 -35.5t-37 -20t-41.5 -6.5z" />
    <glyph glyph-name="uni2156" unicode="&#x2156;" horiz-adv-x="774" 
d="M51 335l155 178q15 17 25.5 36t10.5 42q0 36 -22.5 54.5t-51.5 18.5t-51.5 -18.5t-22.5 -56.5v-11h-43v11q0 33 10.5 55.5t27 36t37.5 19.5t42 6t42 -6t37.5 -19.5t27 -36t10.5 -54.5t-12.5 -55.5t-35.5 -50.5l-130 -149h178v-41h-234v41zM654 700l-481 -700h-48l481 700
h48zM611 -6q-21 0 -41.5 6t-37.5 19.5t-27.5 36t-10.5 55.5v5h43v-5q0 -38 22.5 -56.5t51.5 -18.5q30 0 52 18.5t22 56.5v30q0 38 -22 56.5t-52 18.5q-22 0 -41 -10.5t-27 -33.5h-44v234h214v-41h-171v-131q14 11 32.5 17t36.5 6q21 0 42 -6t37.5 -19.5t27 -36t10.5 -55.5
v-29q0 -33 -10.5 -55.5t-27 -36t-37.5 -19.5t-42 -6z" />
    <glyph glyph-name="uni2157" unicode="&#x2157;" horiz-adv-x="771" 
d="M170 288q-21 0 -42.5 6t-39 19.5t-28 36t-10.5 55.5v5h43v-5q0 -38 23 -56.5t54 -18.5q32 0 51.5 18.5t19.5 53.5q0 29 -18.5 52.5t-52.5 23.5h-29v41h29q31 0 51 19t20 54q0 34 -21.5 53t-52.5 19q-29 0 -51.5 -18.5t-22.5 -56.5v-5h-43v5q0 33 10.5 55.5t27.5 36
t37.5 19.5t41.5 6q22 0 43.5 -6.5t38 -20t26.5 -35.5t10 -52q0 -34 -15 -58.5t-35 -35.5q20 -11 35 -36t15 -60q0 -30 -10 -52t-26.5 -35.5t-37 -20t-41.5 -6.5zM651 700l-481 -700h-48l481 700h48zM608 -6q-21 0 -41.5 6t-37.5 19.5t-27.5 36t-10.5 55.5v5h43v-5
q0 -38 22.5 -56.5t51.5 -18.5q30 0 52 18.5t22 56.5v30q0 38 -22 56.5t-52 18.5q-22 0 -41 -10.5t-27 -33.5h-44v234h214v-41h-171v-131q14 11 32.5 17t36.5 6q21 0 42 -6t37.5 -19.5t27 -36t10.5 -55.5v-29q0 -33 -10.5 -55.5t-27 -36t-37.5 -19.5t-42 -6z" />
    <glyph glyph-name="threeeighths" unicode="&#x215c;" horiz-adv-x="751" 
d="M170 288q-21 0 -42.5 6t-39 19.5t-28 36t-10.5 55.5v5h43v-5q0 -38 23 -56.5t54 -18.5q32 0 51.5 18.5t19.5 53.5q0 29 -18.5 52.5t-52.5 23.5h-29v41h29q31 0 51 19t20 54q0 34 -21.5 53t-52.5 19q-29 0 -51.5 -18.5t-22.5 -56.5v-5h-43v5q0 33 10.5 55.5t27.5 36
t37.5 19.5t41.5 6q22 0 43.5 -6.5t38 -20t26.5 -35.5t10 -52q0 -34 -15 -58.5t-35 -35.5q20 -11 35 -36t15 -60q0 -30 -10 -52t-26.5 -35.5t-37 -20t-41.5 -6.5zM651 700l-481 -700h-48l481 700h48zM591 -6q-22 0 -43 7t-37.5 21t-26.5 36t-10 52q0 64 48 94
q-20 16 -32 38.5t-12 55.5q0 30 9.5 51.5t25.5 35.5t36.5 20.5t41.5 6.5t41.5 -6.5t36.5 -20.5t25.5 -35.5t9.5 -51.5q0 -33 -12 -55.5t-32 -38.5q48 -30 48 -94q0 -30 -10 -52t-26.5 -36t-37.5 -21t-43 -7zM591 36q29 0 51.5 19.5t22.5 54.5q0 34 -22.5 54t-51.5 20
t-51.5 -20t-22.5 -54q0 -35 22.5 -54.5t51.5 -19.5zM591 225q29 0 49.5 18.5t20.5 54.5q0 32 -18.5 52t-51.5 20t-51.5 -20t-18.5 -52q0 -36 20.5 -54.5t49.5 -18.5z" />
    <glyph glyph-name="uni2158" unicode="&#x2158;" horiz-adv-x="722" 
d="M168 404h-186v41l186 255h43v-255h43v-41h-43v-110h-43v110zM168 445v185l-135 -185h135zM602 700l-481 -700h-48l481 700h48zM559 -6q-21 0 -41.5 6t-37.5 19.5t-27.5 36t-10.5 55.5v5h43v-5q0 -38 22.5 -56.5t51.5 -18.5q30 0 52 18.5t22 56.5v30q0 38 -22 56.5
t-52 18.5q-22 0 -41 -10.5t-27 -33.5h-44v234h214v-41h-171v-131q14 11 32.5 17t36.5 6q21 0 42 -6t37.5 -19.5t27 -36t10.5 -55.5v-29q0 -33 -10.5 -55.5t-27 -36t-37.5 -19.5t-42 -6z" />
    <glyph glyph-name="uni215A" unicode="&#x215a;" horiz-adv-x="770" 
d="M177 288q-21 0 -41.5 6t-37.5 19.5t-27.5 36t-10.5 55.5v5h43v-5q0 -38 22.5 -56.5t51.5 -18.5q30 0 52 18.5t22 56.5v30q0 38 -22 56.5t-52 18.5q-22 0 -41 -10.5t-27 -33.5h-44v234h214v-41h-171v-131q14 11 32.5 17t36.5 6q21 0 42 -6t37.5 -19.5t27 -36t10.5 -55.5
v-29q0 -33 -10.5 -55.5t-27 -36t-37.5 -19.5t-42 -6zM649 700l-481 -700h-48l481 700h48zM601 -6q-21 0 -41.5 6t-37.5 19.5t-27.5 36t-10.5 55.5v184q0 33 10.5 55.5t27.5 36t37.5 19.5t41.5 6t42 -6t37.5 -19.5t27 -36t10.5 -55.5v-5h-43v5q0 38 -22 56.5t-52 18.5
q-29 0 -51.5 -18.5t-22.5 -56.5v-71q11 14 32.5 21.5t41.5 7.5q21 0 42 -6t37.5 -19.5t27 -36t10.5 -55.5v-25q0 -33 -10.5 -55.5t-27 -36t-37.5 -19.5t-42 -6zM601 36q30 0 52 18.5t22 56.5v26q0 38 -22 56.5t-52 18.5q-29 0 -51.5 -18.5t-22.5 -56.5v-26q0 -38 22.5 -56.5
t51.5 -18.5z" />
    <glyph glyph-name="fiveeighths" unicode="&#x215d;" horiz-adv-x="749" 
d="M177 288q-21 0 -41.5 6t-37.5 19.5t-27.5 36t-10.5 55.5v5h43v-5q0 -38 22.5 -56.5t51.5 -18.5q30 0 52 18.5t22 56.5v30q0 38 -22 56.5t-52 18.5q-22 0 -41 -10.5t-27 -33.5h-44v234h214v-41h-171v-131q14 11 32.5 17t36.5 6q21 0 42 -6t37.5 -19.5t27 -36t10.5 -55.5
v-29q0 -33 -10.5 -55.5t-27 -36t-37.5 -19.5t-42 -6zM649 700l-481 -700h-48l481 700h48zM589 -6q-22 0 -43 7t-37.5 21t-26.5 36t-10 52q0 64 48 94q-20 16 -32 38.5t-12 55.5q0 30 9.5 51.5t25.5 35.5t36.5 20.5t41.5 6.5t41.5 -6.5t36.5 -20.5t25.5 -35.5t9.5 -51.5
q0 -33 -12 -55.5t-32 -38.5q48 -30 48 -94q0 -30 -10 -52t-26.5 -36t-37.5 -21t-43 -7zM589 36q29 0 51.5 19.5t22.5 54.5q0 34 -22.5 54t-51.5 20t-51.5 -20t-22.5 -54q0 -35 22.5 -54.5t51.5 -19.5zM589 225q29 0 49.5 18.5t20.5 54.5q0 32 -18.5 52t-51.5 20t-51.5 -20
t-18.5 -52q0 -36 20.5 -54.5t49.5 -18.5z" />
    <glyph glyph-name="seveneighths" unicode="&#x215e;" horiz-adv-x="665" 
d="M220 659h-186v41h230v-41l-128 -365h-44zM565 700l-481 -700h-48l481 700h48zM505 -6q-22 0 -43 7t-37.5 21t-26.5 36t-10 52q0 64 48 94q-20 16 -32 38.5t-12 55.5q0 30 9.5 51.5t25.5 35.5t36.5 20.5t41.5 6.5t41.5 -6.5t36.5 -20.5t25.5 -35.5t9.5 -51.5
q0 -33 -12 -55.5t-32 -38.5q48 -30 48 -94q0 -30 -10 -52t-26.5 -36t-37.5 -21t-43 -7zM505 36q29 0 51.5 19.5t22.5 54.5q0 34 -22.5 54t-51.5 20t-51.5 -20t-22.5 -54q0 -35 22.5 -54.5t51.5 -19.5zM505 225q29 0 49.5 18.5t20.5 54.5q0 32 -18.5 52t-51.5 20t-51.5 -20
t-18.5 -52q0 -36 20.5 -54.5t49.5 -18.5z" />
    <glyph glyph-name="uni215F" unicode="&#x215f;" horiz-adv-x="373" 
d="M148 643l-78 -67v57l78 67h43v-406h-43v349zM593 700l-481 -700h-48l481 700h48z" />
    <glyph glyph-name="fraction" unicode="&#x2044;" horiz-adv-x="89" 
d="M309 700l-481 -700h-48l481 700h48z" />
    <glyph glyph-name="a.superior" horiz-adv-x="312" 
d="M132 395q-19 0 -37 5.5t-31.5 16.5t-22 27.5t-8.5 39.5q0 11 3 24t10 25t19.5 21.5t32.5 15.5q26 8 58 11.5t70 5.5v5q0 38 -22.5 56.5t-51.5 18.5q-26 0 -46.5 -14.5t-25.5 -43.5h-44q3 28 14 47t27 30.5t35.5 16.5t39.5 5q21 0 42 -6t37.5 -19.5t27 -36t10.5 -55.5
v-190h-43v31q-14 -19 -38.5 -28t-55.5 -9zM142 437q35 0 59.5 18.5t24.5 53.5v39q-49 -3 -78.5 -7.5t-44.5 -12.5q-17 -9 -22 -19t-5 -24q0 -20 16 -34t50 -14z" />
    <glyph glyph-name="b.superior" horiz-adv-x="319" 
d="M164 395q-21 0 -42 9t-32 28v-31h-43v406h43v-135q11 18 32 27t42 9t41.5 -6t37.5 -19.5t27.5 -36t10.5 -55.5v-79q0 -33 -10.5 -55.5t-27.5 -36t-37.5 -19.5t-41.5 -6zM164 437q29 0 51.5 18.5t22.5 56.5v80q0 38 -22.5 56.5t-51.5 18.5q-30 0 -52 -18.5t-22 -56.5v-80
q0 -38 22 -56.5t52 -18.5z" />
    <glyph glyph-name="c.superior" horiz-adv-x="305" 
d="M156 395q-21 0 -42 6t-38 19.5t-27.5 36t-10.5 55.5v79q0 33 10.5 55.5t27.5 36t38 19.5t42 6q19 0 39 -5t36.5 -17t27.5 -31.5t13 -48.5h-44q-4 31 -25 46t-47 15q-30 0 -52 -18.5t-22 -56.5v-80q0 -38 22 -56.5t52 -18.5q26 0 47 15t25 46h44q-2 -29 -13 -48.5
t-27.5 -31.5t-36.5 -17.5t-39 -5.5z" />
    <glyph glyph-name="d.superior" horiz-adv-x="319" 
d="M156 395q-21 0 -42 6t-38 19.5t-27.5 36t-10.5 55.5v79q0 33 10.5 55.5t27.5 36t38 19.5t42 6q20 0 41 -9t33 -27v135h43v-406h-43v31q-12 -19 -33 -28t-41 -9zM156 437q29 0 51.5 18.5t22.5 56.5v80q0 38 -22.5 56.5t-51.5 18.5q-30 0 -52 -18.5t-22 -56.5v-80
q0 -38 22 -56.5t52 -18.5z" />
    <glyph glyph-name="e.superior" horiz-adv-x="308" 
d="M156 395q-21 0 -42 6t-38 19.5t-27.5 36t-10.5 55.5v79q0 33 10.5 55.5t27.5 36t38 19.5t42 6t41.5 -6t37.5 -19.5t27.5 -36t10.5 -55.5v-50h-191v-29q0 -38 22 -56.5t52 -18.5q26 0 46.5 14.5t25.5 43.5h44q-3 -28 -14 -47t-27.5 -31t-36 -17t-38.5 -5zM230 581v11
q0 38 -22.5 56.5t-51.5 18.5q-30 0 -52 -18.5t-22 -56.5v-11h148z" />
    <glyph glyph-name="f.superior" horiz-adv-x="190" 
d="M62 659h-43v41h43v36q0 38 14.5 54.5t56.5 16.5h45v-41h-45q-16 0 -22 -6t-6 -21v-39h73v-41h-73v-258h-43v258z" />
    <glyph glyph-name="g.superior" horiz-adv-x="319" 
d="M155 288q-20 0 -39.5 5.5t-36 17.5t-27.5 31.5t-13 48.5h43q5 -31 26 -46t47 -15q29 0 51.5 18.5t22.5 56.5v38q-11 -18 -32.5 -27t-41.5 -9q-21 0 -42 6t-37.5 19.5t-27 36t-10.5 55.5v67q0 33 10.5 55.5t27 36t37.5 19.5t42 6q20 0 41.5 -9t32.5 -27v28h43v-294
q0 -33 -10.5 -56t-27 -36.5t-37.5 -19.5t-42 -6zM155 448q29 0 51.5 18.5t22.5 56.5v69q0 38 -22.5 56.5t-51.5 18.5t-51.5 -18.5t-22.5 -56.5v-69q0 -38 22.5 -56.5t51.5 -18.5z" />
    <glyph glyph-name="h.superior" horiz-adv-x="323" 
d="M47 807h43v-135q11 18 32 27t42 9t41.5 -6t37.5 -19.5t27.5 -36t10.5 -55.5v-190h-43v191q0 38 -22.5 56.5t-51.5 18.5q-30 0 -52 -18.5t-22 -56.5v-191h-43v406z" />
    <glyph glyph-name="i.superior" horiz-adv-x="136" 
d="M47 700h43v-299h-43v299zM47 807h43v-56h-43v56z" />
    <glyph glyph-name="j.superior" horiz-adv-x="136" 
d="M9 336h10q16 0 22 6t6 20v338h43v-335q0 -38 -14.5 -54.5t-56.5 -16.5h-10v42zM47 807h43v-56h-43v56z" />
    <glyph glyph-name="k.superior" horiz-adv-x="299" 
d="M90 558l131 142h53l-108 -117l124 -182h-51l-102 151l-47 -52v-99h-43v406h43v-249z" />
    <glyph glyph-name="l.superior" horiz-adv-x="153" 
d="M116 401q-42 0 -56.5 16.5t-14.5 54.5v335h43v-338q0 -15 6 -21t22 -6h10v-41h-10z" />
    <glyph glyph-name="m.superior" horiz-adv-x="497" 
d="M47 700h43v-28q11 18 32 27t38 9q25 0 50 -11t40 -36q15 25 40.5 36t50.5 11q20 0 40.5 -6.5t36.5 -20.5t26 -36t10 -54v-190h-43v194q0 34 -21.5 53t-47.5 19q-27 0 -48.5 -19.5t-21.5 -55.5v-191h-43v194q0 34 -21.5 53t-47.5 19q-27 0 -48.5 -19.5t-21.5 -55.5v-191
h-43v299z" />
    <glyph glyph-name="n.superior" unicode="&#x207f;" horiz-adv-x="323" 
d="M47 700h43v-28q11 18 32 27t42 9t41.5 -6t37.5 -19.5t27.5 -36t10.5 -55.5v-190h-43v191q0 38 -22.5 56.5t-51.5 18.5q-30 0 -52 -18.5t-22 -56.5v-191h-43v299z" />
    <glyph glyph-name="o.superior" horiz-adv-x="311" 
d="M156 437q29 0 51.5 18.5t22.5 56.5v80q0 38 -22.5 56.5t-51.5 18.5q-30 0 -52 -18.5t-22 -56.5v-80q0 -38 22 -56.5t52 -18.5zM156 395q-21 0 -42 6t-38 19.5t-27.5 36t-10.5 55.5v79q0 33 10.5 55.5t27.5 36t38 19.5t42 6t41.5 -6t37.5 -19.5t27.5 -36t10.5 -55.5v-79
q0 -33 -10.5 -55.5t-27.5 -36t-37.5 -19.5t-41.5 -6z" />
    <glyph glyph-name="p.superior" horiz-adv-x="319" 
d="M47 700h43v-28q11 18 32 27t42 9t41.5 -6t37.5 -19.5t27.5 -36t10.5 -55.5v-79q0 -33 -10.5 -55.5t-27.5 -36t-37.5 -19.5t-41.5 -6t-42 9t-32 28v-138h-43v406zM164 437q29 0 51.5 18.5t22.5 56.5v80q0 38 -22.5 56.5t-51.5 18.5q-30 0 -52 -18.5t-22 -56.5v-80
q0 -38 22 -56.5t52 -18.5z" />
    <glyph glyph-name="q.superior" horiz-adv-x="319" 
d="M230 432q-12 -19 -33 -28t-41 -9q-21 0 -42 6t-38 19.5t-27.5 36t-10.5 55.5v79q0 33 10.5 55.5t27.5 36t38 19.5t42 6q20 0 41 -9t33 -27v28h43v-406h-43v138zM156 437q29 0 51.5 18.5t22.5 56.5v80q0 38 -22.5 56.5t-51.5 18.5q-30 0 -52 -18.5t-22 -56.5v-80
q0 -38 22 -56.5t52 -18.5z" />
    <glyph glyph-name="r.superior" horiz-adv-x="195" 
d="M47 700h43v-31q11 18 32 27.5t42 9.5h18v-42h-18q-30 0 -52 -18.5t-22 -56.5v-188h-43v299z" />
    <glyph glyph-name="s.superior" horiz-adv-x="279" 
d="M146 395q-24 0 -45 5.5t-37 18t-26.5 32t-11.5 46.5h44q3 -32 24.5 -46t51.5 -14q32 0 46.5 11.5t15.5 31.5q0 14 -8.5 26t-33.5 18l-59 15q-12 3 -25.5 8.5t-24 15.5t-17.5 24.5t-7 34.5q0 42 29.5 64t71.5 22q45 0 75.5 -22.5t34.5 -72.5h-44q-8 54 -66 54
q-25 0 -41 -11.5t-16 -32.5q0 -19 11.5 -28t29.5 -14l57 -14q34 -8 55 -27.5t21 -60.5q0 -45 -29.5 -64.5t-75.5 -19.5z" />
    <glyph glyph-name="t.superior" horiz-adv-x="204" 
d="M132 401q-42 0 -56.5 16.5t-14.5 54.5v187h-43v41h43v68h43v-68h73v-41h-73v-190q0 -15 5.5 -21t22.5 -6h45v-41h-45z" />
    <glyph glyph-name="u.superior" horiz-adv-x="320" 
d="M158 395q-19 0 -39 5.5t-37 19t-28 36t-11 55.5v189h43v-187q0 -40 22.5 -58t49.5 -18q28 0 50 18.5t22 56.5v188h43v-299h-43v31q-11 -18 -31.5 -27.5t-40.5 -9.5z" />
    <glyph glyph-name="v.superior" horiz-adv-x="277" 
d="M7 700h44l88 -245l87 245h45l-108 -299h-49z" />
    <glyph glyph-name="w.superior" horiz-adv-x="403" 
d="M11 700h43l60 -235l66 235h42l67 -235l60 235h43l-79 -299h-45l-67 236l-67 -236h-44z" />
    <glyph glyph-name="x.superior" horiz-adv-x="281" 
d="M113 555l-97 145h50l74 -112l74 112h50l-97 -145l102 -154h-49l-80 123l-79 -123h-49z" />
    <glyph glyph-name="y.superior" horiz-adv-x="277" 
d="M52 336h22q14 0 19 5t8 13l15 42l-109 304h44l88 -245l87 245h45l-136 -374q-6 -17 -21.5 -24t-44.5 -8h-17v42z" />
    <glyph glyph-name="z.superior" horiz-adv-x="277" 
d="M77 442h174v-41h-225v41l170 217h-166v41h217v-41z" />
    <glyph glyph-name="four.superior" unicode="&#x2074;" horiz-adv-x="303" 
d="M198 511h-186v41l186 255h43v-255h43v-41h-43v-110h-43v110zM198 552v185l-135 -185h135z" />
    <glyph glyph-name="five.superior" unicode="&#x2075;" horiz-adv-x="303" 
d="M157 395q-21 0 -41.5 6t-37.5 19.5t-27.5 36t-10.5 55.5v5h43v-5q0 -38 22.5 -56.5t51.5 -18.5q30 0 52 18.5t22 56.5v30q0 38 -22 56.5t-52 18.5q-22 0 -41 -10.5t-27 -33.5h-44v234h214v-41h-171v-131q14 11 32.5 17t36.5 6q21 0 42 -6t37.5 -19.5t27 -36t10.5 -55.5
v-29q0 -33 -10.5 -55.5t-27 -36t-37.5 -19.5t-42 -6z" />
    <glyph glyph-name="six.superior" unicode="&#x2076;" horiz-adv-x="311" 
d="M157 395q-21 0 -41.5 6t-37.5 19.5t-27.5 36t-10.5 55.5v184q0 33 10.5 55.5t27.5 36t37.5 19.5t41.5 6t42 -6t37.5 -19.5t27 -36t10.5 -55.5v-5h-43v5q0 38 -22 56.5t-52 18.5q-29 0 -51.5 -18.5t-22.5 -56.5v-71q11 14 32.5 21.5t41.5 7.5q21 0 42 -6t37.5 -19.5
t27 -36t10.5 -55.5v-25q0 -33 -10.5 -55.5t-27 -36t-37.5 -19.5t-42 -6zM157 437q30 0 52 18.5t22 56.5v26q0 38 -22 56.5t-52 18.5q-29 0 -51.5 -18.5t-22.5 -56.5v-26q0 -38 22.5 -56.5t51.5 -18.5z" />
    <glyph glyph-name="seven.superior" unicode="&#x2077;" horiz-adv-x="261" 
d="M200 766h-186v41h230v-41l-128 -365h-44z" />
    <glyph glyph-name="eight.superior" unicode="&#x2078;" horiz-adv-x="310" 
d="M155 395q-22 0 -43 7t-37.5 21t-26.5 36t-10 52q0 64 48 94q-20 16 -32 38.5t-12 55.5q0 30 9.5 51.5t25.5 35.5t36.5 20.5t41.5 6.5t41.5 -6.5t36.5 -20.5t25.5 -35.5t9.5 -51.5q0 -33 -12 -55.5t-32 -38.5q48 -30 48 -94q0 -30 -10 -52t-26.5 -36t-37.5 -21t-43 -7z
M155 437q29 0 51.5 19.5t22.5 54.5q0 34 -22.5 54t-51.5 20t-51.5 -20t-22.5 -54q0 -35 22.5 -54.5t51.5 -19.5zM155 626q29 0 49.5 18.5t20.5 54.5q0 32 -18.5 52t-51.5 20t-51.5 -20t-18.5 -52q0 -36 20.5 -54.5t49.5 -18.5z" />
    <glyph glyph-name="nine.superior" unicode="&#x2079;" horiz-adv-x="311" 
d="M154 395q-21 0 -42 6t-37.5 19.5t-27 36t-10.5 55.5v5h43v-5q0 -38 22.5 -56.5t51.5 -18.5t51.5 18.5t22.5 56.5v71q-11 -14 -32.5 -21.5t-41.5 -7.5q-21 0 -42 6t-37.5 19.5t-27 36t-10.5 55.5v25q0 33 10.5 55.5t27 36t37.5 19.5t42 6t41.5 -6t37.5 -19.5t27.5 -36
t10.5 -55.5v-184q0 -33 -10.5 -55.5t-27.5 -36t-37.5 -19.5t-41.5 -6zM154 595q29 0 51.5 18.5t22.5 56.5v26q0 38 -22.5 56.5t-51.5 18.5t-51.5 -18.5t-22.5 -56.5v-26q0 -38 22.5 -56.5t51.5 -18.5z" />
    <glyph glyph-name="zero.superior" horiz-adv-x="315" 
d="M157 437q30 0 52 18.5t22 56.5v184q0 38 -22 56.5t-52 18.5q-29 0 -51.5 -18.5t-22.5 -56.5v-184q0 -38 22.5 -56.5t51.5 -18.5zM157 395q-21 0 -41.5 6t-37.5 19.5t-27.5 36t-10.5 55.5v184q0 33 10.5 55.5t27.5 36t37.5 19.5t41.5 6t42 -6t37.5 -19.5t27 -36
t10.5 -55.5v-184q0 -33 -10.5 -55.5t-27 -36t-37.5 -19.5t-42 -6z" />
    <glyph glyph-name="zero.slashed.superior" unicode="&#x2070;" horiz-adv-x="315" 
d="M157 395q-21 0 -41.5 6t-37.5 19.5t-27.5 36t-10.5 55.5v184q0 33 10.5 55.5t27.5 36t37.5 19.5t41.5 6t42 -6t37.5 -19.5t27 -36t10.5 -55.5v-184q0 -33 -10.5 -55.5t-27 -36t-37.5 -19.5t-42 -6zM83 552l148 147q-2 36 -23.5 54t-50.5 18t-51.5 -18.5t-22.5 -56.5v-144
zM157 437q30 0 52 18.5t22 56.5v145l-148 -149q2 -35 23.5 -53t50.5 -18z" />
    <glyph glyph-name="period.superior" horiz-adv-x="165" 
d="M52 461h61v-60h-61v60z" />
    <glyph glyph-name="hyphen.superior" horiz-adv-x="238" 
d="M35 582h168v-37h-168v37z" />
    <glyph glyph-name="comma.superior" horiz-adv-x="165" 
d="M52 461h61v-60l-20 -54h-37l20 54h-24v60z" />
    <glyph glyph-name="equal.superior" unicode="&#x207c;" horiz-adv-x="330" 
d="M48 520h234v-37h-234v37zM48 638h234v-37h-234v37z" />
    <glyph glyph-name="plus.superior" unicode="&#x207a;" horiz-adv-x="330" 
d="M48 582h100v98h37v-98h97v-37h-97v-99h-37v99h-100v37z" />
    <glyph glyph-name="minus.superior" unicode="&#x207b;" horiz-adv-x="330" 
d="M48 582h234v-37h-234v37z" />
    <glyph glyph-name="parenleft.superior" unicode="&#x207d;" horiz-adv-x="165" 
d="M130 335q-42 0 -56.5 16.5t-14.5 54.5v330q0 38 14.5 54.5t56.5 16.5h9v-37h-13q-18 0 -24 -7t-6 -22v-339q0 -16 6 -23t24 -7h13v-37h-9z" />
    <glyph glyph-name="parenright.superior" unicode="&#x207e;" horiz-adv-x="165" 
d="M26 372h12q18 0 24.5 7t6.5 23v339q0 15 -6.5 22t-24.5 7h-12v37h9q42 0 56.5 -16.5t14.5 -54.5v-330q0 -38 -14.5 -54.5t-56.5 -16.5h-9v37z" />
    <glyph glyph-name="a.inferior" horiz-adv-x="312" 
d="M132 -102q-19 0 -37 5.5t-31.5 16.5t-22 27.5t-8.5 39.5q0 11 3 24t10 25t19.5 21.5t32.5 15.5q26 8 58 11.5t70 5.5v5q0 38 -22.5 56.5t-51.5 18.5q-26 0 -46.5 -14.5t-25.5 -43.5h-44q3 28 14 47t27 30.5t35.5 16.5t39.5 5q21 0 42 -6t37.5 -19.5t27 -36t10.5 -55.5
v-190h-43v31q-14 -19 -38.5 -28t-55.5 -9zM142 -60q35 0 59.5 18.5t24.5 53.5v39q-49 -3 -78.5 -7.5t-44.5 -12.5q-17 -9 -22 -19t-5 -24q0 -20 16 -34t50 -14z" />
    <glyph glyph-name="b.inferior" horiz-adv-x="319" 
d="M164 -102q-21 0 -42 9t-32 28v-31h-43v406h43v-135q11 18 32 27t42 9t41.5 -6t37.5 -19.5t27.5 -36t10.5 -55.5v-79q0 -33 -10.5 -55.5t-27.5 -36t-37.5 -19.5t-41.5 -6zM164 -60q29 0 51.5 18.5t22.5 56.5v80q0 38 -22.5 56.5t-51.5 18.5q-30 0 -52 -18.5t-22 -56.5v-80
q0 -38 22 -56.5t52 -18.5z" />
    <glyph glyph-name="c.inferior" horiz-adv-x="305" 
d="M156 -102q-21 0 -42 6t-38 19.5t-27.5 36t-10.5 55.5v79q0 33 10.5 55.5t27.5 36t38 19.5t42 6q19 0 39 -5t36.5 -17t27.5 -31.5t13 -48.5h-44q-4 31 -25 46t-47 15q-30 0 -52 -18.5t-22 -56.5v-80q0 -38 22 -56.5t52 -18.5q26 0 47 15t25 46h44q-2 -29 -13 -48.5
t-27.5 -31.5t-36.5 -17.5t-39 -5.5z" />
    <glyph glyph-name="d.inferior" horiz-adv-x="319" 
d="M156 -102q-21 0 -42 6t-38 19.5t-27.5 36t-10.5 55.5v79q0 33 10.5 55.5t27.5 36t38 19.5t42 6q20 0 41 -9t33 -27v135h43v-406h-43v31q-12 -19 -33 -28t-41 -9zM156 -60q29 0 51.5 18.5t22.5 56.5v80q0 38 -22.5 56.5t-51.5 18.5q-30 0 -52 -18.5t-22 -56.5v-80
q0 -38 22 -56.5t52 -18.5z" />
    <glyph glyph-name="e.inferior" horiz-adv-x="308" 
d="M156 -102q-21 0 -42 6t-38 19.5t-27.5 36t-10.5 55.5v79q0 33 10.5 55.5t27.5 36t38 19.5t42 6t41.5 -6t37.5 -19.5t27.5 -36t10.5 -55.5v-50h-191v-29q0 -38 22 -56.5t52 -18.5q26 0 46.5 14.5t25.5 43.5h44q-3 -28 -14 -47t-27.5 -31t-36 -17t-38.5 -5zM230 84v11
q0 38 -22.5 56.5t-51.5 18.5q-30 0 -52 -18.5t-22 -56.5v-11h148z" />
    <glyph glyph-name="f.inferior" horiz-adv-x="190" 
d="M62 162h-43v41h43v36q0 38 14.5 54.5t56.5 16.5h45v-41h-45q-16 0 -22 -6t-6 -21v-39h73v-41h-73v-258h-43v258z" />
    <glyph glyph-name="g.inferior" horiz-adv-x="319" 
d="M155 -209q-20 0 -39.5 5.5t-36 17.5t-27.5 31.5t-13 48.5h43q5 -31 26 -46t47 -15q29 0 51.5 18.5t22.5 56.5v38q-11 -18 -32.5 -27t-41.5 -9q-21 0 -42 6t-37.5 19.5t-27 36t-10.5 55.5v67q0 33 10.5 55.5t27 36t37.5 19.5t42 6q20 0 41.5 -9t32.5 -27v28h43v-294
q0 -33 -10.5 -56t-27 -36.5t-37.5 -19.5t-42 -6zM155 -49q29 0 51.5 18.5t22.5 56.5v69q0 38 -22.5 56.5t-51.5 18.5t-51.5 -18.5t-22.5 -56.5v-69q0 -38 22.5 -56.5t51.5 -18.5z" />
    <glyph glyph-name="h.inferior" horiz-adv-x="323" 
d="M47 310h43v-135q11 18 32 27t42 9t41.5 -6t37.5 -19.5t27.5 -36t10.5 -55.5v-190h-43v191q0 38 -22.5 56.5t-51.5 18.5q-30 0 -52 -18.5t-22 -56.5v-191h-43v406z" />
    <glyph glyph-name="i.inferior" horiz-adv-x="136" 
d="M47 203h43v-299h-43v299zM47 310h43v-56h-43v56z" />
    <glyph glyph-name="j.inferior" horiz-adv-x="136" 
d="M9 -161h10q16 0 22 6t6 20v338h43v-335q0 -38 -14.5 -54.5t-56.5 -16.5h-10v42zM47 310h43v-56h-43v56z" />
    <glyph glyph-name="k.inferior" horiz-adv-x="299" 
d="M90 61l131 142h53l-108 -117l124 -182h-51l-102 151l-47 -52v-99h-43v406h43v-249z" />
    <glyph glyph-name="l.inferior" horiz-adv-x="153" 
d="M116 -96q-42 0 -56.5 16.5t-14.5 54.5v335h43v-338q0 -15 6 -21t22 -6h10v-41h-10z" />
    <glyph glyph-name="m.inferior" horiz-adv-x="497" 
d="M47 203h43v-28q11 18 32 27t38 9q25 0 50 -11t40 -36q15 25 40.5 36t50.5 11q20 0 40.5 -6.5t36.5 -20.5t26 -36t10 -54v-190h-43v194q0 34 -21.5 53t-47.5 19q-27 0 -48.5 -19.5t-21.5 -55.5v-191h-43v194q0 34 -21.5 53t-47.5 19q-27 0 -48.5 -19.5t-21.5 -55.5v-191
h-43v299z" />
    <glyph glyph-name="n.inferior" horiz-adv-x="323" 
d="M47 203h43v-28q11 18 32 27t42 9t41.5 -6t37.5 -19.5t27.5 -36t10.5 -55.5v-190h-43v191q0 38 -22.5 56.5t-51.5 18.5q-30 0 -52 -18.5t-22 -56.5v-191h-43v299z" />
    <glyph glyph-name="o.inferior" horiz-adv-x="311" 
d="M156 -60q29 0 51.5 18.5t22.5 56.5v80q0 38 -22.5 56.5t-51.5 18.5q-30 0 -52 -18.5t-22 -56.5v-80q0 -38 22 -56.5t52 -18.5zM156 -102q-21 0 -42 6t-38 19.5t-27.5 36t-10.5 55.5v79q0 33 10.5 55.5t27.5 36t38 19.5t42 6t41.5 -6t37.5 -19.5t27.5 -36t10.5 -55.5v-79
q0 -33 -10.5 -55.5t-27.5 -36t-37.5 -19.5t-41.5 -6z" />
    <glyph glyph-name="p.inferior" horiz-adv-x="319" 
d="M47 203h43v-28q11 18 32 27t42 9t41.5 -6t37.5 -19.5t27.5 -36t10.5 -55.5v-79q0 -33 -10.5 -55.5t-27.5 -36t-37.5 -19.5t-41.5 -6t-42 9t-32 28v-138h-43v406zM164 -60q29 0 51.5 18.5t22.5 56.5v80q0 38 -22.5 56.5t-51.5 18.5q-30 0 -52 -18.5t-22 -56.5v-80
q0 -38 22 -56.5t52 -18.5z" />
    <glyph glyph-name="q.inferior" horiz-adv-x="319" 
d="M230 -65q-12 -19 -33 -28t-41 -9q-21 0 -42 6t-38 19.5t-27.5 36t-10.5 55.5v79q0 33 10.5 55.5t27.5 36t38 19.5t42 6q20 0 41 -9t33 -27v28h43v-406h-43v138zM156 -60q29 0 51.5 18.5t22.5 56.5v80q0 38 -22.5 56.5t-51.5 18.5q-30 0 -52 -18.5t-22 -56.5v-80
q0 -38 22 -56.5t52 -18.5z" />
    <glyph glyph-name="r.inferior" horiz-adv-x="195" 
d="M47 203h43v-31q11 18 32 27.5t42 9.5h18v-42h-18q-30 0 -52 -18.5t-22 -56.5v-188h-43v299z" />
    <glyph glyph-name="s.inferior" horiz-adv-x="279" 
d="M146 -102q-24 0 -45 5.5t-37 18t-26.5 32t-11.5 46.5h44q3 -32 24.5 -46t51.5 -14q32 0 46.5 11.5t15.5 31.5q0 14 -8.5 26t-33.5 18l-59 15q-12 3 -25.5 8.5t-24 15.5t-17.5 24.5t-7 34.5q0 42 29.5 64t71.5 22q45 0 75.5 -22.5t34.5 -72.5h-44q-8 54 -66 54
q-25 0 -41 -11.5t-16 -32.5q0 -19 11.5 -28t29.5 -14l57 -14q34 -8 55 -27.5t21 -60.5q0 -45 -29.5 -64.5t-75.5 -19.5z" />
    <glyph glyph-name="t.inferior" horiz-adv-x="204" 
d="M132 -96q-42 0 -56.5 16.5t-14.5 54.5v187h-43v41h43v68h43v-68h73v-41h-73v-190q0 -15 5.5 -21t22.5 -6h45v-41h-45z" />
    <glyph glyph-name="u.inferior" horiz-adv-x="320" 
d="M158 -102q-19 0 -39 5.5t-37 19t-28 36t-11 55.5v189h43v-187q0 -40 22.5 -58t49.5 -18q28 0 50 18.5t22 56.5v188h43v-299h-43v31q-11 -18 -31.5 -27.5t-40.5 -9.5z" />
    <glyph glyph-name="v.inferior" horiz-adv-x="277" 
d="M7 203h44l88 -245l87 245h45l-108 -299h-49z" />
    <glyph glyph-name="w.inferior" horiz-adv-x="403" 
d="M11 203h43l60 -235l66 235h42l67 -235l60 235h43l-79 -299h-45l-67 236l-67 -236h-44z" />
    <glyph glyph-name="x.inferior" horiz-adv-x="281" 
d="M113 58l-97 145h50l74 -112l74 112h50l-97 -145l102 -154h-49l-80 123l-79 -123h-49z" />
    <glyph glyph-name="y.inferior" horiz-adv-x="277" 
d="M52 -161h22q14 0 19 5t8 13l15 42l-109 304h44l88 -245l87 245h45l-136 -374q-6 -17 -21.5 -24t-44.5 -8h-17v42z" />
    <glyph glyph-name="z.inferior" horiz-adv-x="277" 
d="M77 -55h174v-41h-225v41l170 217h-166v41h217v-41z" />
    <glyph glyph-name="one.inferior" unicode="&#x2081;" horiz-adv-x="204" 
d="M108 253l-78 -67v57l78 67h43v-406h-43v349z" />
    <glyph glyph-name="two.inferior" unicode="&#x2082;" horiz-adv-x="299" 
d="M31 -55l155 178q15 17 25.5 36t10.5 42q0 36 -22.5 54.5t-51.5 18.5t-51.5 -18.5t-22.5 -56.5v-11h-43v11q0 33 10.5 55.5t27 36t37.5 19.5t42 6t42 -6t37.5 -19.5t27 -36t10.5 -54.5t-12.5 -55.5t-35.5 -50.5l-130 -149h178v-41h-234v41z" />
    <glyph glyph-name="three.inferior" unicode="&#x2083;" horiz-adv-x="302" 
d="M150 -102q-21 0 -42.5 6t-39 19.5t-28 36t-10.5 55.5v5h43v-5q0 -38 23 -56.5t54 -18.5q32 0 51.5 18.5t19.5 53.5q0 29 -18.5 52.5t-52.5 23.5h-29v41h29q31 0 51 19t20 54q0 34 -21.5 53t-52.5 19q-29 0 -51.5 -18.5t-22.5 -56.5v-5h-43v5q0 33 10.5 55.5t27.5 36
t37.5 19.5t41.5 6q22 0 43.5 -6.5t38 -20t26.5 -35.5t10 -52q0 -34 -15 -58.5t-35 -35.5q20 -11 35 -36t15 -60q0 -30 -10 -52t-26.5 -35.5t-37 -20t-41.5 -6.5z" />
    <glyph glyph-name="four.inferior" unicode="&#x2084;" horiz-adv-x="303" 
d="M198 14h-186v41l186 255h43v-255h43v-41h-43v-110h-43v110zM198 55v185l-135 -185h135z" />
    <glyph glyph-name="five.inferior" unicode="&#x2085;" horiz-adv-x="303" 
d="M157 -102q-21 0 -41.5 6t-37.5 19.5t-27.5 36t-10.5 55.5v5h43v-5q0 -38 22.5 -56.5t51.5 -18.5q30 0 52 18.5t22 56.5v30q0 38 -22 56.5t-52 18.5q-22 0 -41 -10.5t-27 -33.5h-44v234h214v-41h-171v-131q14 11 32.5 17t36.5 6q21 0 42 -6t37.5 -19.5t27 -36t10.5 -55.5
v-29q0 -33 -10.5 -55.5t-27 -36t-37.5 -19.5t-42 -6z" />
    <glyph glyph-name="six.inferior" unicode="&#x2086;" horiz-adv-x="311" 
d="M157 -102q-21 0 -41.5 6t-37.5 19.5t-27.5 36t-10.5 55.5v184q0 33 10.5 55.5t27.5 36t37.5 19.5t41.5 6t42 -6t37.5 -19.5t27 -36t10.5 -55.5v-5h-43v5q0 38 -22 56.5t-52 18.5q-29 0 -51.5 -18.5t-22.5 -56.5v-71q11 14 32.5 21.5t41.5 7.5q21 0 42 -6t37.5 -19.5
t27 -36t10.5 -55.5v-25q0 -33 -10.5 -55.5t-27 -36t-37.5 -19.5t-42 -6zM157 -60q30 0 52 18.5t22 56.5v26q0 38 -22 56.5t-52 18.5q-29 0 -51.5 -18.5t-22.5 -56.5v-26q0 -38 22.5 -56.5t51.5 -18.5z" />
    <glyph glyph-name="seven.inferior" unicode="&#x2087;" horiz-adv-x="261" 
d="M200 269h-186v41h230v-41l-128 -365h-44z" />
    <glyph glyph-name="eight.inferior" unicode="&#x2088;" horiz-adv-x="310" 
d="M155 -102q-22 0 -43 7t-37.5 21t-26.5 36t-10 52q0 64 48 94q-20 16 -32 38.5t-12 55.5q0 30 9.5 51.5t25.5 35.5t36.5 20.5t41.5 6.5t41.5 -6.5t36.5 -20.5t25.5 -35.5t9.5 -51.5q0 -33 -12 -55.5t-32 -38.5q48 -30 48 -94q0 -30 -10 -52t-26.5 -36t-37.5 -21t-43 -7z
M155 -60q29 0 51.5 19.5t22.5 54.5q0 34 -22.5 54t-51.5 20t-51.5 -20t-22.5 -54q0 -35 22.5 -54.5t51.5 -19.5zM155 129q29 0 49.5 18.5t20.5 54.5q0 32 -18.5 52t-51.5 20t-51.5 -20t-18.5 -52q0 -36 20.5 -54.5t49.5 -18.5z" />
    <glyph glyph-name="nine.inferior" unicode="&#x2089;" horiz-adv-x="311" 
d="M154 -102q-21 0 -42 6t-37.5 19.5t-27 36t-10.5 55.5v5h43v-5q0 -38 22.5 -56.5t51.5 -18.5t51.5 18.5t22.5 56.5v71q-11 -14 -32.5 -21.5t-41.5 -7.5q-21 0 -42 6t-37.5 19.5t-27 36t-10.5 55.5v25q0 33 10.5 55.5t27 36t37.5 19.5t42 6t41.5 -6t37.5 -19.5t27.5 -36
t10.5 -55.5v-184q0 -33 -10.5 -55.5t-27.5 -36t-37.5 -19.5t-41.5 -6zM154 98q29 0 51.5 18.5t22.5 56.5v26q0 38 -22.5 56.5t-51.5 18.5t-51.5 -18.5t-22.5 -56.5v-26q0 -38 22.5 -56.5t51.5 -18.5z" />
    <glyph glyph-name="zero.inferior" horiz-adv-x="315" 
d="M157 -60q30 0 52 18.5t22 56.5v184q0 38 -22 56.5t-52 18.5q-29 0 -51.5 -18.5t-22.5 -56.5v-184q0 -38 22.5 -56.5t51.5 -18.5zM157 -102q-21 0 -41.5 6t-37.5 19.5t-27.5 36t-10.5 55.5v184q0 33 10.5 55.5t27.5 36t37.5 19.5t41.5 6t42 -6t37.5 -19.5t27 -36
t10.5 -55.5v-184q0 -33 -10.5 -55.5t-27 -36t-37.5 -19.5t-42 -6z" />
    <glyph glyph-name="zero.slashed.inferior" unicode="&#x2080;" horiz-adv-x="315" 
d="M157 -103q-21 0 -41.5 6t-37.5 19.5t-27.5 36t-10.5 55.5v184q0 33 10.5 55.5t27.5 36t37.5 19.5t41.5 6t42 -6t37.5 -19.5t27 -36t10.5 -55.5v-184q0 -33 -10.5 -55.5t-27 -36t-37.5 -19.5t-42 -6zM83 54l148 147q-2 36 -23.5 54t-50.5 18t-51.5 -18.5t-22.5 -56.5v-144
zM157 -61q30 0 52 18.5t22 56.5v145l-148 -149q2 -35 23.5 -53t50.5 -18z" />
    <glyph glyph-name="period.inferior" horiz-adv-x="165" 
d="M52 -36h61v-60h-61v60z" />
    <glyph glyph-name="hyphen.inferior" horiz-adv-x="238" 
d="M35 85h168v-37h-168v37z" />
    <glyph glyph-name="comma.inferior" horiz-adv-x="165" 
d="M52 -36h61v-60l-20 -54h-37l20 54h-24v60z" />
    <glyph glyph-name="equal.inferior" horiz-adv-x="330" 
d="M48 23h234v-37h-234v37zM48 141h234v-37h-234v37z" />
    <glyph glyph-name="plus.inferior" horiz-adv-x="330" 
d="M48 85h100v98h37v-98h97v-37h-97v-99h-37v99h-100v37z" />
    <glyph glyph-name="minus.inferior" horiz-adv-x="330" 
d="M48 85h234v-37h-234v37z" />
    <glyph glyph-name="parenleft.inferior" unicode="&#x208d;" horiz-adv-x="165" 
d="M130 -162q-42 0 -56.5 16.5t-14.5 54.5v330q0 38 14.5 54.5t56.5 16.5h9v-37h-13q-18 0 -24 -7t-6 -22v-339q0 -16 6 -23t24 -7h13v-37h-9z" />
    <glyph glyph-name="parenright.inferior" unicode="&#x208e;" horiz-adv-x="165" 
d="M26 -125h12q18 0 24.5 7t6.5 23v339q0 15 -6.5 22t-24.5 7h-12v37h9q42 0 56.5 -16.5t14.5 -54.5v-330q0 -38 -14.5 -54.5t-56.5 -16.5h-9v37z" />
    <glyph glyph-name="one.numerator" horiz-adv-x="284" 
d="M148 643l-78 -67v57l78 67h43v-406h-43v349z" />
    <glyph glyph-name="two.numerator" horiz-adv-x="345" 
d="M51 335l155 178q15 17 25.5 36t10.5 42q0 36 -22.5 54.5t-51.5 18.5t-51.5 -18.5t-22.5 -56.5v-11h-43v11q0 33 10.5 55.5t27 36t37.5 19.5t42 6t42 -6t37.5 -19.5t27 -36t10.5 -54.5t-12.5 -55.5t-35.5 -50.5l-130 -149h178v-41h-234v41z" />
    <glyph glyph-name="three.numerator" horiz-adv-x="342" 
d="M170 288q-21 0 -42.5 6t-39 19.5t-28 36t-10.5 55.5v5h43v-5q0 -38 23 -56.5t54 -18.5q32 0 51.5 18.5t19.5 53.5q0 29 -18.5 52.5t-52.5 23.5h-29v41h29q31 0 51 19t20 54q0 34 -21.5 53t-52.5 19q-29 0 -51.5 -18.5t-22.5 -56.5v-5h-43v5q0 33 10.5 55.5t27.5 36
t37.5 19.5t41.5 6q22 0 43.5 -6.5t38 -20t26.5 -35.5t10 -52q0 -34 -15 -58.5t-35 -35.5q20 -11 35 -36t15 -60q0 -30 -10 -52t-26.5 -35.5t-37 -20t-41.5 -6.5z" />
    <glyph glyph-name="four.numerator" horiz-adv-x="293" 
d="M168 404h-186v41l186 255h43v-255h43v-41h-43v-110h-43v110zM168 445v185l-135 -185h135z" />
    <glyph glyph-name="five.numerator" horiz-adv-x="340" 
d="M177 288q-21 0 -41.5 6t-37.5 19.5t-27.5 36t-10.5 55.5v5h43v-5q0 -38 22.5 -56.5t51.5 -18.5q30 0 52 18.5t22 56.5v30q0 38 -22 56.5t-52 18.5q-22 0 -41 -10.5t-27 -33.5h-44v234h214v-41h-171v-131q14 11 32.5 17t36.5 6q21 0 42 -6t37.5 -19.5t27 -36t10.5 -55.5
v-29q0 -33 -10.5 -55.5t-27 -36t-37.5 -19.5t-42 -6z" />
    <glyph glyph-name="six.numerator" horiz-adv-x="341" 
d="M172 288q-21 0 -41.5 6t-37.5 19.5t-27.5 36t-10.5 55.5v184q0 33 10.5 55.5t27.5 36t37.5 19.5t41.5 6t42 -6t37.5 -19.5t27 -36t10.5 -55.5v-5h-43v5q0 38 -22 56.5t-52 18.5q-29 0 -51.5 -18.5t-22.5 -56.5v-71q11 14 32.5 21.5t41.5 7.5q21 0 42 -6t37.5 -19.5
t27 -36t10.5 -55.5v-25q0 -33 -10.5 -55.5t-27 -36t-37.5 -19.5t-42 -6zM172 330q30 0 52 18.5t22 56.5v26q0 38 -22 56.5t-52 18.5q-29 0 -51.5 -18.5t-22.5 -56.5v-26q0 -38 22.5 -56.5t51.5 -18.5z" />
    <glyph glyph-name="seven.numerator" horiz-adv-x="256" 
d="M220 659h-186v41h230v-41l-128 -365h-44z" />
    <glyph glyph-name="eight.numerator" horiz-adv-x="320" 
d="M160 288q-22 0 -43 7t-37.5 21t-26.5 36t-10 52q0 64 48 94q-20 16 -32 38.5t-12 55.5q0 30 9.5 51.5t25.5 35.5t36.5 20.5t41.5 6.5t41.5 -6.5t36.5 -20.5t25.5 -35.5t9.5 -51.5q0 -33 -12 -55.5t-32 -38.5q48 -30 48 -94q0 -30 -10 -52t-26.5 -36t-37.5 -21t-43 -7z
M160 330q29 0 51.5 19.5t22.5 54.5q0 34 -22.5 54t-51.5 20t-51.5 -20t-22.5 -54q0 -35 22.5 -54.5t51.5 -19.5zM160 519q29 0 49.5 18.5t20.5 54.5q0 32 -18.5 52t-51.5 20t-51.5 -20t-18.5 -52q0 -36 20.5 -54.5t49.5 -18.5z" />
    <glyph glyph-name="nine.numerator" horiz-adv-x="341" 
d="M169 288q-21 0 -42 6t-37.5 19.5t-27 36t-10.5 55.5v5h43v-5q0 -38 22.5 -56.5t51.5 -18.5t51.5 18.5t22.5 56.5v71q-11 -14 -32.5 -21.5t-41.5 -7.5q-21 0 -42 6t-37.5 19.5t-27 36t-10.5 55.5v25q0 33 10.5 55.5t27 36t37.5 19.5t42 6t41.5 -6t37.5 -19.5t27.5 -36
t10.5 -55.5v-184q0 -33 -10.5 -55.5t-27.5 -36t-37.5 -19.5t-41.5 -6zM169 488q29 0 51.5 18.5t22.5 56.5v26q0 38 -22.5 56.5t-51.5 18.5t-51.5 -18.5t-22.5 -56.5v-26q0 -38 22.5 -56.5t51.5 -18.5z" />
    <glyph glyph-name="zero.numerator" horiz-adv-x="344" 
d="M172 330q30 0 52 18.5t22 56.5v184q0 38 -22 56.5t-52 18.5q-29 0 -51.5 -18.5t-22.5 -56.5v-184q0 -38 22.5 -56.5t51.5 -18.5zM172 288q-21 0 -41.5 6t-37.5 19.5t-27.5 36t-10.5 55.5v184q0 33 10.5 55.5t27.5 36t37.5 19.5t41.5 6t42 -6t37.5 -19.5t27 -36
t10.5 -55.5v-184q0 -33 -10.5 -55.5t-27 -36t-37.5 -19.5t-42 -6z" />
    <glyph glyph-name="zero.slashed.numerator" horiz-adv-x="344" 
d="M172 288q-21 0 -41.5 6t-37.5 19.5t-27.5 36t-10.5 55.5v184q0 33 10.5 55.5t27.5 36t37.5 19.5t41.5 6t42 -6t37.5 -19.5t27 -36t10.5 -55.5v-184q0 -33 -10.5 -55.5t-27 -36t-37.5 -19.5t-42 -6zM98 445l148 147q-2 36 -23.5 54t-50.5 18t-51.5 -18.5t-22.5 -56.5v-144
zM172 330q30 0 52 18.5t22 56.5v145l-148 -149q2 -35 23.5 -53t50.5 -18z" />
    <glyph glyph-name="one.denominator" horiz-adv-x="284" 
d="M148 349l-78 -67v57l78 67h43v-406h-43v349z" />
    <glyph glyph-name="two.denominator" horiz-adv-x="345" 
d="M51 41l155 178q15 17 25.5 36t10.5 42q0 36 -22.5 54.5t-51.5 18.5t-51.5 -18.5t-22.5 -56.5v-11h-43v11q0 33 10.5 55.5t27 36t37.5 19.5t42 6t42 -6t37.5 -19.5t27 -36t10.5 -54.5t-12.5 -55.5t-35.5 -50.5l-130 -149h178v-41h-234v41z" />
    <glyph glyph-name="three.denominator" horiz-adv-x="342" 
d="M170 -6q-21 0 -42.5 6t-39 19.5t-28 36t-10.5 55.5v5h43v-5q0 -38 23 -56.5t54 -18.5q32 0 51.5 18.5t19.5 53.5q0 29 -18.5 52.5t-52.5 23.5h-29v41h29q31 0 51 19t20 54q0 34 -21.5 53t-52.5 19q-29 0 -51.5 -18.5t-22.5 -56.5v-5h-43v5q0 33 10.5 55.5t27.5 36
t37.5 19.5t41.5 6q22 0 43.5 -6.5t38 -20t26.5 -35.5t10 -52q0 -34 -15 -58.5t-35 -35.5q20 -11 35 -36t15 -60q0 -30 -10 -52t-26.5 -35.5t-37 -20t-41.5 -6.5z" />
    <glyph glyph-name="four.denominator" horiz-adv-x="293" 
d="M168 110h-186v41l186 255h43v-255h43v-41h-43v-110h-43v110zM168 151v185l-135 -185h135z" />
    <glyph glyph-name="five.denominator" horiz-adv-x="340" 
d="M177 -6q-21 0 -41.5 6t-37.5 19.5t-27.5 36t-10.5 55.5v5h43v-5q0 -38 22.5 -56.5t51.5 -18.5q30 0 52 18.5t22 56.5v30q0 38 -22 56.5t-52 18.5q-22 0 -41 -10.5t-27 -33.5h-44v234h214v-41h-171v-131q14 11 32.5 17t36.5 6q21 0 42 -6t37.5 -19.5t27 -36t10.5 -55.5
v-29q0 -33 -10.5 -55.5t-27 -36t-37.5 -19.5t-42 -6z" />
    <glyph glyph-name="six.denominator" horiz-adv-x="341" 
d="M172 -6q-21 0 -41.5 6t-37.5 19.5t-27.5 36t-10.5 55.5v184q0 33 10.5 55.5t27.5 36t37.5 19.5t41.5 6t42 -6t37.5 -19.5t27 -36t10.5 -55.5v-5h-43v5q0 38 -22 56.5t-52 18.5q-29 0 -51.5 -18.5t-22.5 -56.5v-71q11 14 32.5 21.5t41.5 7.5q21 0 42 -6t37.5 -19.5t27 -36
t10.5 -55.5v-25q0 -33 -10.5 -55.5t-27 -36t-37.5 -19.5t-42 -6zM172 36q30 0 52 18.5t22 56.5v26q0 38 -22 56.5t-52 18.5q-29 0 -51.5 -18.5t-22.5 -56.5v-26q0 -38 22.5 -56.5t51.5 -18.5z" />
    <glyph glyph-name="seven.denominator" horiz-adv-x="256" 
d="M220 365h-186v41h230v-41l-128 -365h-44z" />
    <glyph glyph-name="eight.denominator" horiz-adv-x="320" 
d="M160 -6q-22 0 -43 7t-37.5 21t-26.5 36t-10 52q0 64 48 94q-20 16 -32 38.5t-12 55.5q0 30 9.5 51.5t25.5 35.5t36.5 20.5t41.5 6.5t41.5 -6.5t36.5 -20.5t25.5 -35.5t9.5 -51.5q0 -33 -12 -55.5t-32 -38.5q48 -30 48 -94q0 -30 -10 -52t-26.5 -36t-37.5 -21t-43 -7z
M160 36q29 0 51.5 19.5t22.5 54.5q0 34 -22.5 54t-51.5 20t-51.5 -20t-22.5 -54q0 -35 22.5 -54.5t51.5 -19.5zM160 225q29 0 49.5 18.5t20.5 54.5q0 32 -18.5 52t-51.5 20t-51.5 -20t-18.5 -52q0 -36 20.5 -54.5t49.5 -18.5z" />
    <glyph glyph-name="nine.denominator" horiz-adv-x="341" 
d="M169 -6q-21 0 -42 6t-37.5 19.5t-27 36t-10.5 55.5v5h43v-5q0 -38 22.5 -56.5t51.5 -18.5t51.5 18.5t22.5 56.5v71q-11 -14 -32.5 -21.5t-41.5 -7.5q-21 0 -42 6t-37.5 19.5t-27 36t-10.5 55.5v25q0 33 10.5 55.5t27 36t37.5 19.5t42 6t41.5 -6t37.5 -19.5t27.5 -36
t10.5 -55.5v-184q0 -33 -10.5 -55.5t-27.5 -36t-37.5 -19.5t-41.5 -6zM169 194q29 0 51.5 18.5t22.5 56.5v26q0 38 -22.5 56.5t-51.5 18.5t-51.5 -18.5t-22.5 -56.5v-26q0 -38 22.5 -56.5t51.5 -18.5z" />
    <glyph glyph-name="zero.denominator" horiz-adv-x="344" 
d="M172 36q30 0 52 18.5t22 56.5v184q0 38 -22 56.5t-52 18.5q-29 0 -51.5 -18.5t-22.5 -56.5v-184q0 -38 22.5 -56.5t51.5 -18.5zM172 -6q-21 0 -41.5 6t-37.5 19.5t-27.5 36t-10.5 55.5v184q0 33 10.5 55.5t27.5 36t37.5 19.5t41.5 6t42 -6t37.5 -19.5t27 -36t10.5 -55.5
v-184q0 -33 -10.5 -55.5t-27 -36t-37.5 -19.5t-42 -6z" />
    <glyph glyph-name="zero.slashed.denominator" horiz-adv-x="344" 
d="M172 -6q-21 0 -41.5 6t-37.5 19.5t-27.5 36t-10.5 55.5v184q0 33 10.5 55.5t27.5 36t37.5 19.5t41.5 6t42 -6t37.5 -19.5t27 -36t10.5 -55.5v-184q0 -33 -10.5 -55.5t-27 -36t-37.5 -19.5t-42 -6zM98 151l148 147q-2 36 -23.5 54t-50.5 18t-51.5 -18.5t-22.5 -56.5v-144z
M172 36q30 0 52 18.5t22 56.5v145l-148 -149q2 -35 23.5 -53t50.5 -18z" />
    <glyph glyph-name="ampersand.case" horiz-adv-x="605" 
d="M257 0q-90 0 -141.5 51t-51.5 139q0 59 26 100.5t68 62.5q-48 20 -71 61t-23 98q0 51 16.5 87t43 58.5t60 32.5t68.5 10h153v-54h-153q-64 0 -98.5 -37t-34.5 -97q0 -59 34.5 -95.5t98.5 -36.5h153v80h55v-80h127v-54h-127v-326h-203zM405 54v272h-148q-36 0 -62 -10.5
t-43 -29t-25 -43t-8 -52.5t8 -53t25 -43.5t43 -29.5t62 -11h148z" />
    <glyph glyph-name="hyphen.case" horiz-adv-x="420" 
d="M65 315v45h290v-45h-290z" />
    <glyph glyph-name="endash.case" horiz-adv-x="526" 
d="M65 315v45h396v-45h-396z" />
    <glyph glyph-name="emdash.case" horiz-adv-x="829" 
d="M65 315v45h699v-45h-699z" />
    <glyph glyph-name="question.case" horiz-adv-x="514" 
d="M222 232q0 30 11 53.5t42 51.5l60 55q24 23 41 52t17 64q0 34 -11 61.5t-30 47t-45 29.5t-57 10t-57.5 -10t-45.5 -29.5t-29.5 -47t-10.5 -61.5v-8h-55v8q0 56 18 94.5t46.5 62.5t63.5 34.5t70 10.5t70 -10.5t63.5 -34.5t46.5 -62.5t18 -94.5q0 -48 -23 -87.5t-52 -65.5
l-60 -55q-23 -21 -29.5 -34.5t-6.5 -33.5v-22h-55v22zM205 84h84v-84h-84v84z" />
    <glyph glyph-name="questiondown.case" horiz-adv-x="514" 
d="M292 468q0 -30 -11 -53.5t-42 -51.5l-60 -55q-24 -23 -41 -52t-17 -64t11 -62t30 -46.5t45 -29.5t57 -10t57.5 10t45.5 29.5t29.5 46.5t10.5 62v8h55v-8q0 -56 -18 -94.5t-46.5 -62.5t-63.5 -34.5t-70 -10.5t-70 10.5t-63.5 34.5t-46.5 62.5t-18 94.5q0 48 23 87.5
t52 65.5l60 55q23 21 29.5 34.5t6.5 33.5v22h55v-22zM309 616h-84v84h84v-84z" />
    <glyph glyph-name="exclam.case" horiz-adv-x="274" 
d="M164 700v-490h-55v490h55zM95 84h84v-84h-84v84z" />
    <glyph glyph-name="exclamdown.case" horiz-adv-x="274" 
d="M109 0v490h55v-490h-55zM95 700h84v-84h-84v84z" />
    <glyph glyph-name="guilsinglleft.case" horiz-adv-x="304" 
d="M67 303v54l162 143v-59l-126 -111l126 -111v-59z" />
    <glyph glyph-name="guilsinglright.case" horiz-adv-x="304" 
d="M75 160v59l126 111l-126 111v59l162 -143v-54z" />
    <glyph glyph-name="guillemotleft.case" horiz-adv-x="471" 
d="M67 303v54l162 143v-59l-126 -111l126 -111v-59zM234 303v54l162 143v-59l-126 -111l126 -111v-59z" />
    <glyph glyph-name="guillemotright.case" horiz-adv-x="471" 
d="M75 160v59l126 111l-126 111v59l162 -143v-54zM242 160v59l126 111l-126 111v59l162 -143v-54z" />
    <glyph glyph-name="parenleft.case" horiz-adv-x="272" 
d="M106 597q0 25 4.5 44t16.5 32t33 20t53 7h10v-42h-10q-40 0 -52 -15t-12 -46v-494q0 -31 12 -46t52 -15h10v-42h-10q-32 0 -53 7t-33 20t-16.5 32t-4.5 44v494z" />
    <glyph glyph-name="parenright.case" horiz-adv-x="272" 
d="M166 103q0 -25 -4.5 -44t-16.5 -32t-33 -20t-53 -7h-10v42h10q40 0 52 15t12 46v494q0 31 -12 46t-52 15h-10v42h10q32 0 53 -7t33 -20t16.5 -32t4.5 -44v-494z" />
    <glyph glyph-name="bracketleft.case" horiz-adv-x="272" 
d="M106 700h117v-42h-74v-616h74v-42h-117v700z" />
    <glyph glyph-name="bracketright.case" horiz-adv-x="272" 
d="M166 0h-117v42h74v616h-74v42h117v-700z" />
    <glyph glyph-name="braceleft.case" horiz-adv-x="304" 
d="M64 329v42h10q40 0 52 15t12 46v165q0 25 4.5 44t16.5 32t33 20t53 7h10v-42h-10q-40 0 -52 -15t-12 -46v-165q0 -28 -7.5 -49.5t-26.5 -32.5q19 -12 26.5 -33.5t7.5 -48.5v-165q0 -31 12 -46t52 -15h10v-42h-10q-32 0 -53 7t-33 20t-16.5 32t-4.5 44v165q0 31 -12 46
t-52 15h-10z" />
    <glyph glyph-name="braceright.case" horiz-adv-x="304" 
d="M230 329q-40 0 -52 -15t-12 -46v-165q0 -25 -4.5 -44t-16.5 -32t-33 -20t-53 -7h-10v42h10q40 0 52 15t12 46v165q0 27 7.5 48.5t26.5 33.5q-19 11 -26.5 32.5t-7.5 49.5v165q0 31 -12 46t-52 15h-10v42h10q32 0 53 -7t33 -20t16.5 -32t4.5 -44v-165q0 -31 12 -46t52 -15
h10v-42h-10z" />
    <glyph glyph-name="bar.case" horiz-adv-x="223" 
d="M90 700h43v-700h-43v700z" />
    <glyph glyph-name="brokenbar.case" horiz-adv-x="223" 
d="M90 289h43v-289h-43v289zM90 700h43v-289h-43v289z" />
    <glyph glyph-name="periodcentered.case" horiz-adv-x="284" 
d="M100 389h84v-84h-84v84z" />
    <glyph glyph-name="at.case" horiz-adv-x="872" 
d="M581 420q0 35 -11 63t-30 47.5t-46 30t-58 10.5q-56 0 -94.5 -31.5t-47.5 -87.5h-54q5 47 24.5 79.5t46.5 52.5t60 29t65 9q35 0 70 -10.5t63.5 -34.5t46.5 -62.5t18 -94.5v-232q0 -11 3 -22.5t10 -20.5t18 -14.5t27 -5.5q31 0 44 20t13 43v295q0 45 -17.5 94t-55.5 89.5
t-97 67t-143 26.5t-143 -26.5t-97 -67t-55.5 -89.5t-17.5 -94v-266q0 -45 17.5 -94t55.5 -89.5t97 -67t143 -26.5q65 0 114.5 16.5t86.5 42.5l25 -36q-42 -29 -98 -47t-128 -18q-96 0 -163.5 30.5t-110.5 77.5t-62.5 103.5t-19.5 107.5v266q0 51 19.5 107.5t62.5 103.5
t110.5 77.5t163.5 30.5t163.5 -30.5t110.5 -77.5t62.5 -103.5t19.5 -107.5v-287q0 -59 -27 -86.5t-75 -27.5t-74.5 23t-34.5 50q-25 -36 -69 -54.5t-103 -18.5q-42 0 -74 12t-54 33t-33 48.5t-11 58.5q0 51 26 90.5t86 57.5q45 14 105.5 19.5t126.5 9.5v9zM581 364
q-86 -5 -141.5 -11.5t-84.5 -20.5q-37 -17 -51 -40t-14 -54q0 -21 7 -40t22.5 -33.5t40.5 -23t61 -8.5q34 0 63.5 11t51 30.5t33.5 47.5t12 62v80z" />
    <glyph glyph-name="plus.case" 
d="M257 315h-176v45h176v175h45v-175h175v-45h-175v-176h-45v176z" />
    <glyph glyph-name="minus.case" 
d="M81 315v45h396v-45h-396z" />
    <glyph glyph-name="divide.case" 
d="M238 536q0 17 12.5 29.5t29.5 12.5t29.5 -12.5t12.5 -29.5t-12.5 -29.5t-29.5 -12.5t-29.5 12.5t-12.5 29.5zM238 139q0 17 12.5 29.5t29.5 12.5t29.5 -12.5t12.5 -29.5t-12.5 -29.5t-29.5 -12.5t-29.5 12.5t-12.5 29.5zM81 315v45h396v-45h-396z" />
    <glyph glyph-name="multiply.case" 
d="M311 337l171 -169l-32 -32l-171 169l-170 -169l-32 32l170 169l-170 170l32 32l170 -170l171 170l32 -32z" />
    <glyph glyph-name="equal.case" 
d="M477 452v-45h-396v45h396zM81 212v45h396v-45h-396z" />
    <glyph glyph-name="plusminus.case" 
d="M81 374v45h176v154h45v-154h175v-45h-175v-154h-45v154h-176zM81 57v45h396v-45h-396z" />
    <glyph glyph-name="less.case" 
d="M477 103v-51l-396 239v50l396 239v-51l-353 -213z" />
    <glyph glyph-name="greater.case" 
d="M434 316l-353 213v51l396 -239v-50l-396 -239v51z" />
    <glyph glyph-name="lessequal.case" 
d="M81 356v44l396 180v-48l-338 -154l338 -154v-48zM81 57v45h396v-45h-396z" />
    <glyph glyph-name="greaterequal.case" 
d="M81 176v48l338 154l-338 154v48l396 -180v-44zM81 57v45h396v-45h-396z" />
    <glyph glyph-name="notequal.case" 
d="M81 212v45h92l150 150h-242v45h287l79 79l30 -31l-48 -48h48v-45h-93l-150 -150h243v-45h-288l-78 -78l-30 31l47 47h-47z" />
    <glyph glyph-name="acute.case" horiz-adv-x="315" 
d="M257 854l-128 -109h-58l100 109h86z" />
    <glyph glyph-name="breve.case" horiz-adv-x="390" 
d="M227 796q25 0 41.5 16.5t16.5 41.5h51q0 -23 -8.5 -42.5t-23.5 -34.5t-35 -23.5t-42 -8.5h-64q-23 0 -42.5 8.5t-34.5 23.5t-23.5 34.5t-8.5 42.5h51q0 -25 16.5 -41.5t41.5 -16.5h64v0z" />
    <glyph glyph-name="caron.case" horiz-adv-x="428" 
d="M240 745h-52l-125 109h72l79 -63l79 63h72z" />
    <glyph glyph-name="cedilla.case" horiz-adv-x="251" 
d="M113 0h56l-38 -158h-71z" />
    <glyph glyph-name="circumflex.case" horiz-adv-x="428" 
d="M365 745h-72l-79 63l-79 -63h-72l125 109h52z" />
    <glyph glyph-name="dieresis.case" horiz-adv-x="410" 
d="M127 756h-55v87h55v-87zM338 756h-55v87h55v-87z" />
    <glyph glyph-name="dotaccent.case" horiz-adv-x="173" 
d="M114 756h-55v87h55v-87z" />
    <glyph glyph-name="grave.case" horiz-adv-x="315" 
d="M144 854l100 -109h-58l-128 109h86z" />
    <glyph glyph-name="hungarumlaut.case" horiz-adv-x="464" 
d="M242 854l-118 -109h-53l90 109h81zM406 854l-118 -109h-53l90 109h81z" />
    <glyph glyph-name="macron.case" horiz-adv-x="427" 
d="M69 774v47h289v-47h-289z" />
    <glyph glyph-name="ogonek.case" horiz-adv-x="232" 
d="M187 0q-31 -23 -56.5 -46.5t-25.5 -50.5q0 -23 11.5 -32t28.5 -9q10 0 20.5 3.5t21.5 8.5v-50q-11 -7 -23 -10t-24 -3q-42 0 -66 23.5t-24 62.5q0 36 24 61t58 42h55z" />
    <glyph glyph-name="ring.case" horiz-adv-x="255" 
d="M53 799q0 31 21.5 53t52.5 22t53 -22t22 -53t-22 -52.5t-53 -21.5t-52.5 21.5t-21.5 52.5zM98 799q0 -12 8.5 -20.5t20.5 -8.5t21 8.5t9 20.5t-9 21t-21 9t-20.5 -9t-8.5 -21z" />
    <glyph glyph-name="tilde.case" horiz-adv-x="441" 
d="M168 845q11 0 22 -2.5t23 -9.5l33 -17q8 -4 15 -7t14 -3q27 0 44 37h56q-9 -29 -21.5 -46.5t-26 -26.5t-28 -12t-26.5 -3q-11 0 -22 2.5t-23 9.5l-33 17q-8 4 -15 7t-14 3q-27 0 -44 -37h-56q9 29 21.5 46.5t26 26.5t28 12t26.5 3z" />
    <glyph glyph-name="at.case.ss01" horiz-adv-x="872" 
d="M628 188q0 -23 14.5 -43t46.5 -20t46 20t14 43v295q0 45 -17.5 94t-55.5 89.5t-97 67t-143 26.5t-143 -26.5t-97 -67t-55.5 -89.5t-17.5 -94v-266q0 -45 17.5 -94t55.5 -89.5t97 -67t143 -26.5q65 0 114.5 16.5t86.5 42.5l25 -36q-42 -29 -98 -47t-128 -18
q-96 0 -163.5 30.5t-110.5 77.5t-62.5 103.5t-19.5 107.5v266q0 51 19.5 107.5t62.5 103.5t110.5 77.5t163.5 30.5t163.5 -30.5t110.5 -77.5t62.5 -103.5t19.5 -107.5v-287q0 -59 -28.5 -86.5t-76.5 -27.5t-76 23t-36 50q-23 -36 -62.5 -54.5t-82.5 -18.5q-35 0 -70 10.5
t-63.5 34.5t-46.5 62.5t-18 94.5v136q0 56 18 94.5t46.5 62.5t63.5 34.5t70 10.5q43 0 82.5 -18.5t62.5 -54.5v59h53v-420zM575 420q0 35 -11 63t-30 47.5t-46 30t-58 10.5q-32 0 -58.5 -10.5t-45.5 -30t-30 -47.5t-11 -63v-136q0 -35 11 -63t30 -47.5t45.5 -30t58.5 -10.5
q31 0 58 10.5t46 30t30 47.5t11 63v136z" />
    <glyph glyph-name="a.ss01" horiz-adv-x="542" 
d="M462 0h-53v63q-23 -36 -62.5 -54.5t-82.5 -18.5q-35 0 -70 10.5t-63.5 34.5t-46.5 62.5t-18 94.5v136q0 56 18 94.5t46.5 62.5t63.5 34.5t70 10.5q43 0 82.5 -18.5t62.5 -54.5v59h53v-516zM409 328q0 35 -11 63t-30 47.5t-46 30t-58 10.5q-32 0 -58.5 -10.5t-45.5 -30
t-30 -47.5t-11 -63v-136q0 -35 11 -63t30 -47.5t45.5 -30t58.5 -10.5q31 0 58 10.5t46 30t30 47.5t11 63v136z" />
    <glyph glyph-name="aacute.ss01" horiz-adv-x="542" 
d="M462 0h-53v63q-23 -36 -62.5 -54.5t-82.5 -18.5q-35 0 -70 10.5t-63.5 34.5t-46.5 62.5t-18 94.5v136q0 56 18 94.5t46.5 62.5t63.5 34.5t70 10.5q43 0 82.5 -18.5t62.5 -54.5v59h53v-516zM409 328q0 35 -11 63t-30 47.5t-46 30t-58 10.5q-32 0 -58.5 -10.5t-45.5 -30
t-30 -47.5t-11 -63v-136q0 -35 11 -63t30 -47.5t45.5 -30t58.5 -10.5q31 0 58 10.5t46 30t30 47.5t11 63v136zM377 700l-118 -129h-51l85 129h84z" />
    <glyph glyph-name="abreve.ss01" horiz-adv-x="542" 
d="M462 0h-53v63q-23 -36 -62.5 -54.5t-82.5 -18.5q-35 0 -70 10.5t-63.5 34.5t-46.5 62.5t-18 94.5v136q0 56 18 94.5t46.5 62.5t63.5 34.5t70 10.5q43 0 82.5 -18.5t62.5 -54.5v59h53v-516zM409 328q0 35 -11 63t-30 47.5t-46 30t-58 10.5q-32 0 -58.5 -10.5t-45.5 -30
t-30 -47.5t-11 -63v-136q0 -35 11 -63t30 -47.5t45.5 -30t58.5 -10.5q31 0 58 10.5t46 30t30 47.5t11 63v136zM286 620q33 0 56.5 23.5t23.5 56.5h49q0 -27 -10 -50.5t-27.5 -41t-41 -27.5t-50.5 -10h-24q-27 0 -50.5 10t-41 27.5t-27.5 41t-10 50.5h49q0 -33 23.5 -56.5
t56.5 -23.5h24z" />
    <glyph glyph-name="acircumflex.ss01" horiz-adv-x="542" 
d="M462 0h-53v63q-23 -36 -62.5 -54.5t-82.5 -18.5q-35 0 -70 10.5t-63.5 34.5t-46.5 62.5t-18 94.5v136q0 56 18 94.5t46.5 62.5t63.5 34.5t70 10.5q43 0 82.5 -18.5t62.5 -54.5v59h53v-516zM409 328q0 35 -11 63t-30 47.5t-46 30t-58 10.5q-32 0 -58.5 -10.5t-45.5 -30
t-30 -47.5t-11 -63v-136q0 -35 11 -63t30 -47.5t45.5 -30t58.5 -10.5q31 0 58 10.5t46 30t30 47.5t11 63v136zM264 654l-87 -83h-64l125 129h52l125 -129h-64z" />
    <glyph glyph-name="adieresis.ss01" horiz-adv-x="542" 
d="M462 0h-53v63q-23 -36 -62.5 -54.5t-82.5 -18.5q-35 0 -70 10.5t-63.5 34.5t-46.5 62.5t-18 94.5v136q0 56 18 94.5t46.5 62.5t63.5 34.5t70 10.5q43 0 82.5 -18.5t62.5 -54.5v59h53v-516zM409 328q0 35 -11 63t-30 47.5t-46 30t-58 10.5q-32 0 -58.5 -10.5t-45.5 -30
t-30 -47.5t-11 -63v-136q0 -35 11 -63t30 -47.5t45.5 -30t58.5 -10.5q31 0 58 10.5t46 30t30 47.5t11 63v136zM184 592h-53v87h53v-87zM397 592h-53v87h53v-87z" />
    <glyph glyph-name="agrave.ss01" horiz-adv-x="542" 
d="M462 0h-53v63q-23 -36 -62.5 -54.5t-82.5 -18.5q-35 0 -70 10.5t-63.5 34.5t-46.5 62.5t-18 94.5v136q0 56 18 94.5t46.5 62.5t63.5 34.5t70 10.5q43 0 82.5 -18.5t62.5 -54.5v59h53v-516zM409 328q0 35 -11 63t-30 47.5t-46 30t-58 10.5q-32 0 -58.5 -10.5t-45.5 -30
t-30 -47.5t-11 -63v-136q0 -35 11 -63t30 -47.5t45.5 -30t58.5 -10.5q31 0 58 10.5t46 30t30 47.5t11 63v136zM235 700l85 -129h-51l-118 129h84z" />
    <glyph glyph-name="amacron.ss01" horiz-adv-x="542" 
d="M462 0h-53v63q-23 -36 -62.5 -54.5t-82.5 -18.5q-35 0 -70 10.5t-63.5 34.5t-46.5 62.5t-18 94.5v136q0 56 18 94.5t46.5 62.5t63.5 34.5t70 10.5q43 0 82.5 -18.5t62.5 -54.5v59h53v-516zM409 328q0 35 -11 63t-30 47.5t-46 30t-58 10.5q-32 0 -58.5 -10.5t-45.5 -30
t-30 -47.5t-11 -63v-136q0 -35 11 -63t30 -47.5t45.5 -30t58.5 -10.5q31 0 58 10.5t46 30t30 47.5t11 63v136zM130 613v45h289v-45h-289z" />
    <glyph glyph-name="aogonek.ss01" horiz-adv-x="542" 
d="M462 0h-53v63q-23 -36 -62.5 -54.5t-82.5 -18.5q-35 0 -70 10.5t-63.5 34.5t-46.5 62.5t-18 94.5v136q0 56 18 94.5t46.5 62.5t63.5 34.5t70 10.5q43 0 82.5 -18.5t62.5 -54.5v59h53v-516zM409 328q0 35 -11 63t-30 47.5t-46 30t-58 10.5q-32 0 -58.5 -10.5t-45.5 -30
t-30 -47.5t-11 -63v-136q0 -35 11 -63t30 -47.5t45.5 -30t58.5 -10.5q31 0 58 10.5t46 30t30 47.5t11 63v136zM462 0q-31 -23 -56.5 -46.5t-25.5 -50.5q0 -23 11.5 -33t28.5 -10q10 0 20.5 3.5t21.5 8.5v-48q-11 -7 -23 -10t-24 -3q-42 0 -65 23.5t-23 62.5q0 36 24 61
t58 42h53z" />
    <glyph glyph-name="aring.ss01" horiz-adv-x="542" 
d="M462 0h-53v63q-23 -36 -62.5 -54.5t-82.5 -18.5q-35 0 -70 10.5t-63.5 34.5t-46.5 62.5t-18 94.5v136q0 56 18 94.5t46.5 62.5t63.5 34.5t70 10.5q43 0 82.5 -18.5t62.5 -54.5v59h53v-516zM409 328q0 35 -11 63t-30 47.5t-46 30t-58 10.5q-32 0 -58.5 -10.5t-45.5 -30
t-30 -47.5t-11 -63v-136q0 -35 11 -63t30 -47.5t45.5 -30t58.5 -10.5q31 0 58 10.5t46 30t30 47.5t11 63v136zM190 635q0 31 21.5 53t52.5 22t53 -22t22 -53t-22 -52.5t-53 -21.5t-52.5 21.5t-21.5 52.5zM233 635q0 -13 9 -22t22 -9t22.5 9t9.5 22t-9.5 22.5t-22.5 9.5
t-22 -9.5t-9 -22.5z" />
    <glyph glyph-name="atilde.ss01" horiz-adv-x="542" 
d="M462 0h-53v63q-23 -36 -62.5 -54.5t-82.5 -18.5q-35 0 -70 10.5t-63.5 34.5t-46.5 62.5t-18 94.5v136q0 56 18 94.5t46.5 62.5t63.5 34.5t70 10.5q43 0 82.5 -18.5t62.5 -54.5v59h53v-516zM409 328q0 35 -11 63t-30 47.5t-46 30t-58 10.5q-32 0 -58.5 -10.5t-45.5 -30
t-30 -47.5t-11 -63v-136q0 -35 11 -63t30 -47.5t45.5 -30t58.5 -10.5q31 0 58 10.5t46 30t30 47.5t11 63v136zM419 679q-9 -29 -21.5 -46.5t-26 -26.5t-28 -12t-26.5 -3q-11 0 -22 2.5t-23 9.5l-33 19q-5 3 -13.5 6.5t-19.5 3.5t-23.5 -8t-23.5 -31h-49q9 29 21.5 46.5
t26 26.5t28 12t26.5 3q11 0 22 -2.5t23 -9.5l33 -19q5 -3 13.5 -6.5t19.5 -3.5t23.5 8t23.5 31h49z" />
    <glyph glyph-name="at.ss01" horiz-adv-x="862" 
d="M623 96q0 -23 14.5 -43t46.5 -20t46 20t14 43v295q0 45 -17.5 94t-55.5 89.5t-97 67t-143 26.5t-143 -26.5t-97 -67t-55.5 -89.5t-17.5 -94v-266q0 -45 17.5 -94t55.5 -89.5t97 -67t143 -26.5q65 0 114.5 16.5t86.5 42.5l25 -36q-42 -29 -98 -47t-128 -18
q-96 0 -163.5 30.5t-110.5 77.5t-62.5 103.5t-19.5 107.5v266q0 51 19.5 107.5t62.5 103.5t110.5 77.5t163.5 30.5t163.5 -30.5t110.5 -77.5t62.5 -103.5t19.5 -107.5v-287q0 -59 -28.5 -86.5t-76.5 -27.5t-76 23t-36 50q-23 -36 -62.5 -54.5t-82.5 -18.5q-35 0 -70 10.5
t-63.5 34.5t-46.5 62.5t-18 94.5v136q0 56 18 94.5t46.5 62.5t63.5 34.5t70 10.5q43 0 82.5 -18.5t62.5 -54.5v59h53v-420zM570 328q0 35 -11 63t-30 47.5t-46 30t-58 10.5q-32 0 -58.5 -10.5t-45.5 -30t-30 -47.5t-11 -63v-136q0 -35 11 -63t30 -47.5t45.5 -30t58.5 -10.5
q31 0 58 10.5t46 30t30 47.5t11 63v136z" />
    <glyph glyph-name="l.ss02" horiz-adv-x="213" 
d="M133 0h-53v700h53v-700z" />
    <glyph glyph-name="lacute.ss02" horiz-adv-x="213" 
d="M133 0h-53v700h53v-700zM220 874l-118 -129h-51l85 129h84z" />
    <glyph glyph-name="lcaron.ss02" horiz-adv-x="213" 
d="M204 542h-41l28 158h74zM133 0h-53v700h53v-700z" />
    <glyph glyph-name="lcommaaccent.ss02" horiz-adv-x="213" 
d="M133 0h-53v700h53v-700zM70 -50h74v-74l-21 -74h-49l21 74h-25v74z" />
    <glyph glyph-name="ldot.ss02" horiz-adv-x="266" 
d="M133 0h-53v700h53v-700zM266 307h-53v87h53v-87z" />
    <glyph glyph-name="lslash.ss02" horiz-adv-x="229" 
d="M141 408l64 36v-49l-64 -36v-359h-53v330l-64 -35v49l64 35v321h53v-292z" />
    <glyph glyph-name="fl.ss02" horiz-adv-x="518" 
d="M33 516h73v81q0 25 4.5 44t16.5 32t33 20t53 7h73v-51h-73q-34 0 -44 -12t-10 -40v-81h127v-51h-127v-465h-53v465h-73v51zM438 0h-53v700h53v-700z" />
    <glyph glyph-name="uniFB04.ss02" horiz-adv-x="823" 
d="M33 516h73v81q0 25 4.5 44t16.5 32t33 20t53 7h73v-51h-73q-34 0 -44 -12t-10 -40v-81h127v-51h-127v-465h-53v465h-73v51zM338 516h73v81q0 25 4.5 44t16.5 32t33 20t53 7h73v-51h-73q-34 0 -44 -12t-10 -40v-81h127v-51h-127v-465h-53v465h-73v51zM743 0h-53v700h53
v-700z" />
    </font>
</defs>
</svg>
